<svg xmlns="http://www.w3.org/2000/svg" viewBox="0 0 26 27.77"><defs><style>.cls-1{fill:#fff;}</style></defs><title>building</title><g id="Camada_2" data-name="Camada 2"><g id="Camada_1-2" data-name="Camada 1"><rect x="11.23" y="24.17" width="3.49" height="3.6"/><path d="M26,27.77H17.76V22.68a1.49,1.49,0,0,0-1.48-1.49H9.74a1.49,1.49,0,0,0-1.5,1.48h0v5.09H0V1.49A1.49,1.49,0,0,1,1.48,0h23a1.49,1.49,0,0,1,1.49,1.48h0V27.77Z"/><path id="Caminho_95" data-name="Caminho 95" class="cls-1" d="M19.53,5A1.49,1.49,0,0,0,18,6.46h0V8.08a1.5,1.5,0,0,0,3,0V6.47A1.49,1.49,0,0,0,19.54,5Z"/><path id="Caminho_89" data-name="Caminho 89" class="cls-1" d="M6.53,5A1.49,1.49,0,0,0,5,6.46H5V8.08a1.5,1.5,0,0,0,3,0V6.47A1.49,1.49,0,0,0,6.54,5Z"/><path id="Caminho_90" data-name="Caminho 90" class="cls-1" d="M13,13.05a1.49,1.49,0,0,0-1.49,1.49h0v1.6a1.49,1.49,0,0,0,3,0v-1.6A1.48,1.48,0,0,0,13,13.05Z"/><path id="Caminho_91" data-name="Caminho 91" class="cls-1" d="M6.53,13.05A1.5,1.5,0,0,0,5,14.54H5v1.6a1.5,1.5,0,0,0,3,0v-1.6A1.52,1.52,0,0,0,6.53,13.05Z"/><path id="Caminho_92" data-name="Caminho 92" class="cls-1" d="M13,5a1.48,1.48,0,0,0-1.49,1.48h0V8.08a1.49,1.49,0,0,0,3,0V6.47A1.45,1.45,0,0,0,13.08,5Z"/><path id="Caminho_93" data-name="Caminho 93" class="cls-1" d="M19.53,13.05A1.5,1.5,0,0,0,18,14.54h0v1.6a1.5,1.5,0,0,0,3,0v-1.6A1.52,1.52,0,0,0,19.53,13.05Z"/></g></g></svg>