<svg xmlns="http://www.w3.org/2000/svg" width="113.509" height="27.608" viewBox="0 0 113.509 27.608">
  <g id="fgts" transform="translate(0)">
    <g id="Grupo_575" data-name="Grupo 575" transform="translate(0 0)">
      <path id="Caminho_1117" data-name="Caminho 1117" d="M-655.866,457.98c.009-1.254-.075-2.518.05-3.761.14-1.4-.463-1.669-1.717-1.621-2.136.082-4.284.091-6.417-.039-2.013-.123-3.46-3.1-2.445-4.812.25-.423.658-.288,1.011-.289,4.029-.007,8.057-.021,12.086.009a2.526,2.526,0,0,1,2.712,2.742q.117,5.078,0,10.161a2.574,2.574,0,0,1-2.865,2.794q-10.292.058-20.584,0a2.616,2.616,0,0,1-2.945-2.91q-.057-10.256,0-20.512a2.582,2.582,0,0,1,2.831-2.82c7.491-.033,14.981,0,22.472-.034.96,0,1.107.383,1.133,1.222.095,3.062-.747,4.012-3.783,4.02-5.288.013-10.576.046-15.862-.027-1.271-.018-1.557.383-1.539,1.579.071,4.766.04,9.534.048,14.3.335.422.809.257,1.225.258q6.68.018,13.36,0C-656.673,458.24-656.2,458.4-655.866,457.98Z" transform="translate(706.061 -436.726)" fill="#15572d"/>
      <path id="Caminho_1118" data-name="Caminho 1118" d="M-502.6,458.049c.611-1.508.194-3.079.259-4.619.048-1.131-.916-.8-1.529-.808-5.285-.021-10.569,0-15.854-.015-3.107-.006-3.726-.642-3.73-3.78,0-2.947-.022-5.893.008-8.84.022-2.158.941-3.08,3.109-3.087,7.235-.019,14.47.015,21.7-.033,1.115-.007,1.518.215,1.5,1.425-.037,3.072-.673,3.817-3.733,3.824-5.285.012-10.57.034-15.854-.021-1.132-.012-1.5.259-1.5,1.448-.01,3.9-.065,3.9,3.753,3.9q6.795,0,13.589,0c3.082,0,3.7.631,3.707,3.771q.009,4.138,0,8.276c-.009,3.016-.656,3.678-3.633,3.682-6.731.008-13.463.024-20.195-.025-.8-.006-2.033.583-2.343-.444a4.279,4.279,0,0,1,.271-3.461,2,2,0,0,1,1.975-1.16c4.674.349,9.354.094,14.031.137A15.677,15.677,0,0,0-502.6,458.049Z" transform="translate(610.637 -436.714)" fill="#15572d"/>
      <path id="Caminho_1119" data-name="Caminho 1119" d="M-748.57,462.841c-1.112,1.6-2.785,1.455-4.431,1.44-.837-.008-.849-.534-.849-1.137q.006-12.615-.011-25.229c0-.808.262-1.1,1.079-1.1q12.753.028,25.506.01c.509,0,1.015-.056,1.024.719.019,1.7.205,3.444-1.55,4.538a3.725,3.725,0,0,1-2.839.7c-4.834.016-9.669-.008-14.5.013-2.316.01-2.461.152-2.471,2.444q-.032,7.133,0,14.265A4.646,4.646,0,0,1-748.57,462.841Z" transform="translate(753.86 -436.683)" fill="#15572d"/>
      <path id="Caminho_1120" data-name="Caminho 1120" d="M-587.357,436.639c3.586,0,7.174-.067,10.756.05.811.026,2.283-.963,2.441.979.2,2.452-.487,3.876-2.278,4.075a50.012,50.012,0,0,1-5.274.121c-3.067.014-3.067,0-3.067,3.041q0,7.147,0,14.294c0,3.043-.79,3.727-3.813,3.755-1.246.011-1.426-.454-1.417-1.535.047-5.7.022-11.41.022-17.115,0-2.437,0-2.436-2.538-2.437-1.7,0-3.4.054-5.1-.02a3.4,3.4,0,0,1-2.916-4.782c.332-.726.981-.406,1.479-.41C-595.158,436.626-591.257,436.639-587.357,436.639Z" transform="translate(658.691 -436.46)" fill="#15572e"/>
      <path id="Caminho_1121" data-name="Caminho 1121" d="M-739.867,471.507a19.138,19.138,0,0,0,.279-5.04c.019-4.575.06-9.151-.025-13.725-.027-1.432.31-1.918,1.845-1.889,5.407.1,10.816.045,16.225.033.814,0,1.629-.087,2.444-.134a58.073,58.073,0,0,1-4.961,5.057,5.73,5.73,0,0,1-2.2-1,7.041,7.041,0,0,0-8.284,1.426,7.467,7.467,0,0,0-1.165,8.206,4.9,4.9,0,0,1,.888,2.04Z" transform="translate(745.157 -445.349)" fill="#ffe400"/>
      <path id="Caminho_1122" data-name="Caminho 1122" d="M-730.132,471.049a7.585,7.585,0,0,1,.186-10.854,7.476,7.476,0,0,1,10.578.177Z" transform="translate(740.466 -449.913)" fill="#005191"/>
      <path id="Caminho_1123" data-name="Caminho 1123" d="M-498.514,492.893c-.306.414-.758.367-1.191.367q-8.045,0-16.091,0c-.432,0-.884.054-1.208-.336Z" transform="translate(606.552 -471.558)" fill="#19471e"/>
      <path id="Caminho_1124" data-name="Caminho 1124" d="M-647.1,492.676c-.243.491-.7.448-1.138.448q-6.764,0-13.528,0c-.436,0-.893.035-1.143-.446Z" transform="translate(697.292 -471.423)" fill="#19471e"/>
    </g>
  </g>
</svg>
