<svg xmlns="http://www.w3.org/2000/svg" xmlns:xlink="http://www.w3.org/1999/xlink" width="806.235" height="608.773" viewBox="0 0 806.235 608.773">
  <defs>
    <linearGradient id="linear-gradient" x1="-0.147" y1="-0.03" x2="0.818" y2="0.761" gradientUnits="objectBoundingBox">
      <stop offset="0" stop-color="#2e2e30"/>
      <stop offset="1" stop-color="#666665"/>
    </linearGradient>
    <linearGradient id="linear-gradient-2" x1="0.204" y1="0.559" x2="0.949" y2="0.412" xlink:href="#linear-gradient"/>
    <linearGradient id="linear-gradient-3" x1="0.505" y1="0.366" x2="0.459" y2="1.218" gradientUnits="objectBoundingBox">
      <stop offset="0" stop-color="#be6121"/>
      <stop offset="1" stop-color="#a03a20"/>
    </linearGradient>
    <linearGradient id="linear-gradient-4" x1="0.798" y1="0.905" x2="0.495" y2="0.187" gradientUnits="objectBoundingBox">
      <stop offset="0" stop-color="#443d8c"/>
      <stop offset="1" stop-color="#1e193b"/>
    </linearGradient>
    <linearGradient id="linear-gradient-5" x1="0.92" y1="0.496" x2="-0.111" y2="0.499" xlink:href="#linear-gradient-3"/>
    <linearGradient id="linear-gradient-6" x1="0.652" y1="0.262" x2="0.2" y2="0.797" xlink:href="#linear-gradient-4"/>
    <linearGradient id="linear-gradient-7" x1="0.371" y1="-0.445" x2="0.596" y2="0.598" gradientUnits="objectBoundingBox">
      <stop offset="0" stop-color="#fbb03b"/>
      <stop offset="1" stop-color="#d67e3c"/>
    </linearGradient>
    <linearGradient id="linear-gradient-8" x1="0.5" y1="0.009" x2="0.5" y2="0.621" xlink:href="#linear-gradient-3"/>
    <linearGradient id="linear-gradient-9" x1="0.504" y1="0.526" x2="-0.023" y2="0.657" xlink:href="#linear-gradient-7"/>
    <linearGradient id="linear-gradient-10" x1="0.49" y1="0.244" x2="0.208" y2="0.766" xlink:href="#linear-gradient-7"/>
    <linearGradient id="linear-gradient-11" x1="0.731" y1="0.151" x2="0.26" y2="0.774" xlink:href="#linear-gradient-7"/>
    <linearGradient id="linear-gradient-12" x1="0.503" y1="-0.015" x2="0.503" y2="2.132" xlink:href="#linear-gradient-3"/>
    <linearGradient id="linear-gradient-13" x1="0.501" y1="-0.599" x2="0.501" y2="0.91" xlink:href="#linear-gradient-3"/>
    <clipPath id="clip-path">
      <path id="Caminho_57" data-name="Caminho 57" d="M0-3H47.249V3.679H0Z" transform="translate(0 3)" fill="#fff"/>
    </clipPath>
  </defs>
  <g id="graphic-fale-conosco" transform="translate(-144 -4663.075)">
    <g id="Grupo_14" data-name="Grupo 14" transform="translate(144 4663.075)">
      <path id="Caminho_8" data-name="Caminho 8" d="M164.539,227.911c-.426-6.179-.639-11.933-.639-17.686a143.567,143.567,0,0,1,.852-16.833c1.7-20.243,6.606-37.715,14.063-52.418a118.7,118.7,0,0,1,31.323-39.633,138.769,138.769,0,0,1,39.42-22.374c15.342-5.753,31.962-8.949,48.583-10.228,5.54-.426,11.293-.639,17.046-.639s11.506.426,17.26.852h0a2.63,2.63,0,0,1,1.7.852,2.42,2.42,0,0,1,.639,1.7v.213c-.213,2.131-5.327,49.861-28.553,93.116C282.8,208.52,240.822,247.3,166.883,230.255c-.426-.213-1.065-.426-1.278-.852-.852-.639-1.065-1.065-1.065-1.492ZM332.021,72.575a258.321,258.321,0,0,0-30.044,14.7c6.179,1.065,20.243,3.835,26.635,5.753,1.918-10.015,2.983-17.473,3.409-20.456Zm-4.049,22.8h0c-7.245-2.344-26.422-5.753-29.192-6.179-7.884,4.688-16.833,10.228-26.422,17.046l49.435,12.785c2.77-8.736,4.688-16.833,6.179-23.652Zm-6.819,25.783-51.139-13.424a330.144,330.144,0,0,0-27.487,22.16c10.228,3.2,58.81,17.9,66.907,22.16a244.165,244.165,0,0,0,11.72-30.9Zm-12.572,32.814c-8.31-4.262-62.007-20.669-67.973-22.374-7.458,6.819-15.129,14.276-22.374,22.374l76.283,24.291a.209.209,0,0,1,.213.213,153.438,153.438,0,0,0,8.949-14.916c1.7-3.2,3.409-6.392,4.9-9.589Zm-15.129,26.422-76.922-24.5A236.227,236.227,0,0,0,199.7,176.558c12.359,4.262,76.07,24.078,76.283,24.078a.744.744,0,0,1,.426.213,173.513,173.513,0,0,0,17.046-20.456Zm-18.964,22.16c-6.819-2.131-66.268-20.669-76.5-24.078-4.688,6.392-9.376,13-13.637,20.03,15.129,7.458,65.629,20.456,65.842,20.669.213,0,.639.213.639.426a111.474,111.474,0,0,0,23.652-17.046ZM248.28,220.879c-8.1-2.131-51.353-13.637-64.99-20.456-2.77,4.475-5.54,9.162-8.1,14.063,5.753,2.344,31.749,12.146,48.369,13.85a1.416,1.416,0,0,1,1.065.852,103.436,103.436,0,0,0,23.652-8.31Zm-28.766,9.162c-17.047-2.77-40.485-11.719-45.386-13.637-1.918,3.835-3.835,7.458-5.753,11.506,18.964,4.262,36.011,4.688,51.139,2.131Zm-52.631-4.688c1.7-3.622,3.622-7.032,5.327-10.441-2.344-6.392-4.049-17.473-4.9-23.652,0,.852-.213,1.492-.213,2.344-.426,5.327-.639,10.867-.852,16.62.213,4.9.213,10.015.639,15.129Zm1.278-39.846c.426,0,.852.426,1.065,1.065,0,0,1.7,16.407,4.688,25.783,2.557-4.688,5.114-9.163,7.884-13.424a233.152,233.152,0,0,1-7.458-40.059,125.02,125.02,0,0,0-6.179,26.635Zm7.245-30.471a1.5,1.5,0,0,1,.852,1.065,222.808,222.808,0,0,0,7.032,40.272c4.262-6.819,8.736-13.211,13.211-19.39-1.279-3.835-8.949-27.274-10.015-44.747-1.918,3.2-3.622,6.392-5.327,9.8a80,80,0,0,0-5.753,13Zm12.572-25.57a1.107,1.107,0,0,1,.426.852c.639,15.768,7.458,37.5,9.589,44.108,5.327-7.245,11.08-13.85,16.62-20.243-10.228-21.521-11.719-38.994-11.933-43.255a127.866,127.866,0,0,0-14.7,18.538Zm16.833-20.456a1.107,1.107,0,0,1,.426.852s.213,18.751,11.293,42.616c7.458-8.1,14.916-15.555,22.587-22.374-4.475-10.228-8.949-35.8-9.589-39.207a144.339,144.339,0,0,0-17.686,12.146,64.756,64.756,0,0,0-7.032,5.966Zm26.635-19.39c0,.213,0,.213.213.426,0,0,4.475,27.274,9.163,38.355a337.52,337.52,0,0,1,27.914-22.374c-3.2-13.211-3.2-27.274-3.2-29.618-5.114,1.278-10.015,2.983-14.916,4.688a130.669,130.669,0,0,0-19.177,8.523Zm36.224-13.85v.213a122.066,122.066,0,0,0,2.983,28.553c9.589-6.819,18.751-12.572,26.848-17.26a67.54,67.54,0,0,1-.213-16.194,190.81,190.81,0,0,0-29.618,4.688Zm31.536-4.9h0A88.737,88.737,0,0,0,299.42,86c14.7-8.31,25.783-13.211,30.258-14.916-4.9-.426-9.589-.639-14.49-.639C309.861,70.444,304.534,70.444,299.207,70.87Z" transform="translate(185.34 77.008)" fill="#fff" fill-rule="evenodd"/>
      <path id="Caminho_9" data-name="Caminho 9" d="M179.852,221.011c.426-6.179.639-11.933.639-17.686a143.567,143.567,0,0,0-.852-16.833c-1.7-20.243-6.606-37.715-14.063-52.418a118.7,118.7,0,0,0-31.323-39.633,138.769,138.769,0,0,0-39.42-22.374C79.491,66.314,62.87,63.118,46.25,61.839,40.71,61.413,34.957,61.2,29.2,61.2s-11.506.426-17.26.852h0a2.63,2.63,0,0,0-1.7.852,2.42,2.42,0,0,0-.639,1.7v.213c.213,2.131,5.327,49.861,28.553,93.116,23.439,43.682,65.416,82.462,139.355,65.416.426-.213,1.065-.426,1.278-.852.852-.639,1.065-1.065,1.065-1.492ZM12.583,65.675a258.32,258.32,0,0,1,30.044,14.7c-6.179,1.065-20.243,3.835-26.635,5.753-2.131-10.015-2.983-17.473-3.409-20.456Zm3.835,22.8h0c7.245-2.344,26.422-5.753,29.192-6.179,7.884,4.688,16.833,10.228,26.422,17.046l-49.435,13c-2.557-8.949-4.688-17.046-6.179-23.865Zm6.819,25.783,51.139-13.424a330.157,330.157,0,0,1,27.487,22.16c-10.228,3.2-58.81,17.9-66.907,22.16a281.775,281.775,0,0,1-11.719-30.9Zm12.785,32.814c8.31-4.262,62.007-20.669,67.973-22.374,7.458,6.819,15.129,14.276,22.374,22.374L50.085,171.363a.209.209,0,0,0-.213.213,153.448,153.448,0,0,1-8.949-14.916,101.915,101.915,0,0,1-4.9-9.589Zm15.129,26.422,76.922-24.5a236.221,236.221,0,0,1,16.833,20.669c-12.359,4.262-76.07,24.078-76.283,24.078a.744.744,0,0,0-.426.213,140.029,140.029,0,0,1-17.046-20.456ZM69.9,195.654c6.819-2.131,66.268-20.669,76.5-24.078,4.688,6.392,9.376,13,13.637,20.03-15.129,7.458-65.629,20.456-65.842,20.669-.213,0-.639.213-.639.426A111.478,111.478,0,0,1,69.9,195.654Zm26.209,18.325c8.1-2.131,51.353-13.637,64.99-20.456,2.77,4.475,5.54,9.162,8.1,14.063-5.753,2.344-31.749,12.146-48.369,13.85a1.416,1.416,0,0,0-1.065.852,111.14,111.14,0,0,1-23.652-8.31Zm28.979,9.376c17.047-2.77,40.485-11.719,45.386-13.637,1.918,3.835,3.835,7.458,5.753,11.506-19.177,4.049-36.224,4.475-51.139,2.131Zm52.418-4.9c-1.7-3.622-3.622-7.032-5.327-10.441,2.344-6.392,4.049-17.473,4.9-23.652,0,.852.213,1.492.213,2.344.426,5.327.639,10.867.852,16.62,0,4.9-.213,10.015-.639,15.129Zm-1.065-39.846c-.426,0-.852.426-1.065,1.065,0,0-1.7,16.407-4.688,25.783-2.557-4.688-5.114-9.162-7.884-13.424a233.149,233.149,0,0,0,7.458-40.059,139.421,139.421,0,0,1,6.179,26.635Zm-7.458-30.471a1.5,1.5,0,0,0-.852,1.065,222.807,222.807,0,0,1-7.032,40.272c-4.262-6.819-8.736-13.211-13.211-19.39,1.278-3.835,8.949-27.274,10.015-44.747,1.918,3.2,3.622,6.392,5.327,9.8a65.061,65.061,0,0,1,5.753,13Zm-12.572-25.57a1.107,1.107,0,0,0-.426.852c-.639,15.768-7.458,37.5-9.589,44.108-5.327-7.245-11.08-13.85-16.62-20.243,10.228-21.521,11.719-38.994,11.933-43.255a114.834,114.834,0,0,1,14.7,18.538Zm-16.62-20.243a1.107,1.107,0,0,0-.426.852s-.213,18.751-11.293,42.616c-7.458-8.1-14.916-15.555-22.587-22.374,4.475-10.228,8.949-35.8,9.589-39.207a144.338,144.338,0,0,1,17.686,12.146,87.25,87.25,0,0,1,7.032,5.966Zm-26.635-19.6c0,.213,0,.213-.213.426,0,0-4.475,27.274-9.162,38.355A337.535,337.535,0,0,0,75.868,99.128c3.2-13.211,3.2-27.274,3.2-29.618,5.114,1.278,10.015,2.983,14.916,4.688a154.4,154.4,0,0,1,19.177,8.523ZM76.934,68.871v.213A122.066,122.066,0,0,1,73.95,97.637C64.362,90.818,55.2,85.065,47.1,80.377a89.117,89.117,0,0,0,.426-16.194,196.459,196.459,0,0,1,29.405,4.688Zm-31.749-4.9h0A88.739,88.739,0,0,1,44.971,79.1c-14.7-8.31-25.783-13.211-30.258-14.916,4.9-.426,9.589-.639,14.49-.639C34.53,63.544,39.858,63.757,45.185,63.97Z" transform="translate(10.856 69.206)" fill="#fff" fill-rule="evenodd"/>
      <g id="Grupo_6" data-name="Grupo 6" transform="translate(62.183 287.532)">
        <path id="Caminho_10" data-name="Caminho 10" d="M70.131,223.5c-2.131-7.032-7.032-17.9-17.9-30.471-18.538-21.1-29.831-45.812-18.538-56.253,10.867-9.8,37.076,20.03,48.369,82.036L70.131,223.5Z" transform="translate(-29.183 -134.94)" fill="#bb5d20" fill-rule="evenodd"/>
        <path id="Caminho_11" data-name="Caminho 11" d="M35.222,139.848A.9.9,0,0,1,36.5,138.57s2.344,2.131,5.966,5.966l-1.492-5.327a1.107,1.107,0,0,1,.426-.852,1.107,1.107,0,0,1,.852.426l2.131,7.884a69.667,69.667,0,0,1,5.327,6.819l-.639-6.606a.639.639,0,0,1,1.278,0l.852,8.736c1.918,2.77,3.835,5.753,5.753,9.162l-.426-5.753a.639.639,0,0,1,1.278,0l.426,8.31c1.918,3.622,3.835,7.458,5.753,11.933l.213-5.54a.639.639,0,0,1,1.278,0l-.426,8.1c1.7,4.049,3.2,8.523,4.688,13.211l.852-3.2c0-.426.426-.639.852-.426.426,0,.639.426.426.852l-1.492,5.114c1.065,3.622,1.918,7.458,2.77,11.293l1.065-3.2c0-.426.426-.426.852-.426s.426.426.426.852l-1.7,5.327a50.243,50.243,0,0,1,.852,5.966l-1.918.639c-.213-2.131-.639-4.049-.852-5.966-1.278-.852-4.262-3.2-5.966-3.622-.426,0-.639-.426-.426-.852,0-.426.426-.639.852-.426a28.568,28.568,0,0,1,5.54,2.983c-.213-1.492-.639-2.983-.852-4.475a22.321,22.321,0,0,0-7.458-3.2c-.426,0-.639-.426-.426-.639,0-.426.426-.639.639-.426a28.479,28.479,0,0,1,6.819,2.77c-.639-2.983-1.492-5.966-2.344-8.736-2.131-.639-9.162-2.983-12.572-2.983a.639.639,0,0,1,0-1.279c3.2,0,9.162,1.918,11.933,2.77-.852-2.983-1.918-5.753-2.983-8.523-2.131-.852-9.162-3.2-14.916-3.409a.639.639,0,0,1,0-1.278c5.114.213,11.293,2.131,14.276,2.983a30.187,30.187,0,0,0-1.7-3.835,60.912,60.912,0,0,0-17.9-4.475.639.639,0,1,1,0-1.278,62.141,62.141,0,0,1,17.046,4.049c-2.131-4.475-4.262-8.736-6.392-12.359-2.77-.426-13.85-2.131-19.39-1.7a.639.639,0,0,1,0-1.278c5.327-.213,14.7,1.065,18.751,1.7-1.7-2.77-3.2-5.327-4.9-7.671-2.77-.213-12.785-.639-15.342-.639a.639.639,0,0,1,0-1.279c2.344,0,10.654.426,14.49.639a88.386,88.386,0,0,0-5.966-7.671c-2.557,0-8.736,0-10.441.213a.639.639,0,0,1,0-1.279c1.278,0,6.392-.213,9.376-.213A61.065,61.065,0,0,0,35.222,139.848Z" transform="translate(-26.449 -131.197)" fill="#d0d2e8" fill-rule="evenodd"/>
      </g>
      <g id="Grupo_7" data-name="Grupo 7" transform="translate(20.044 307.4)">
        <path id="Caminho_12" data-name="Caminho 12" d="M135.323,296.907c-7.458-11.719-23.226-31.323-53.91-51.566-48.8-31.749-85.019-72.874-67.547-95.673,17.26-22.374,88.642,24.93,144.9,138.29A119.026,119.026,0,0,1,135.323,296.907Z" transform="translate(-9.407 -144.264)" fill="#ffdd92" fill-rule="evenodd"/>
        <path id="Caminho_13" data-name="Caminho 13" d="M139.6,282.588a27.2,27.2,0,0,0-9.8,1.065.674.674,0,0,1-.426-1.278,37.538,37.538,0,0,1,9.589-1.065c-1.065-1.918-1.918-3.622-2.983-5.54a107.743,107.743,0,0,0-11.933-.426.639.639,0,1,1,0-1.278c2.557,0,8.523.213,11.293.426-1.918-3.409-3.835-6.606-5.753-9.8a128.219,128.219,0,0,0-16.194.639.639.639,0,0,1,0-1.279c6.606-.639,12.785-.639,15.555-.639-1.918-3.2-3.835-6.392-5.753-9.376a212.313,212.313,0,0,0-23.013.852.639.639,0,1,1,0-1.278c9.8-.852,18.538-.852,22.374-.852q-3.835-6.073-7.671-11.506c-2.983-.213-15.768-1.065-25.357,1.7-.426,0-.639,0-.852-.426,0-.426,0-.639.426-.852,8.949-2.557,20.456-2.131,24.717-1.7-3.2-4.475-6.179-8.736-9.162-12.785-4.262,0-21.1.639-28.979,5.966-.213.213-.639,0-.852-.213a.527.527,0,0,1,.213-.852c7.884-5.114,23.439-5.966,28.766-6.179Q99,219.516,94.209,213.763c-2.983.639-15.981,3.2-28.127,8.736-.213.213-.639,0-.852-.213s0-.639.213-.852c11.506-5.327,23.652-7.884,27.7-8.736-1.918-2.131-3.835-4.475-5.54-6.392-2.983.426-15.342,2.77-32.175,10.228-.426.213-.639,0-.852-.426s0-.639.426-.852c15.555-6.819,27.7-9.376,31.749-10.015-4.475-4.9-8.736-9.376-13-13.424-3.835,1.065-22.587,6.606-32.6,12.572-.213.213-.639,0-.852-.213s0-.639.213-.852c9.589-5.54,27.274-10.867,32.175-12.359-2.344-2.344-4.9-4.475-7.245-6.606A184.125,184.125,0,0,0,34.12,196.929c-.213.213-.639,0-.852-.213s0-.639.213-.852a171.118,171.118,0,0,1,30.9-12.359c-5.54-4.688-10.654-8.949-15.555-12.359-3.2.639-17.473,3.622-28.127,9.376-.213.213-.639,0-.852-.213s0-.639.213-.852c10.015-5.327,22.587-8.31,27.274-9.163a44.979,44.979,0,0,0-5.753-3.835,107.2,107.2,0,0,0-24.291,5.114c-.426.213-.639,0-.852-.426s0-.639.426-.852a103.406,103.406,0,0,1,22.8-5.114c-14.916-9.376-24.291-11.933-24.291-11.933a1.011,1.011,0,1,1,.639-1.918A58.959,58.959,0,0,1,27.3,156.018c-1.918-2.557-4.475-6.179-5.327-6.606-.213-.213-.426-.639-.213-.852s.639-.426.852-.213c1.065.639,5.54,6.819,7.032,8.949,2.77,1.492,6.179,3.409,9.8,5.54l-5.753-12.785c-.213-.213,0-.639.213-.852s.639,0,.852.213l6.606,14.49c2.557,1.492,5.114,3.409,7.884,5.327L43.07,154.313c-.213-.426,0-.639.426-.852s.639,0,.852.426L51.38,170.72a164.136,164.136,0,0,1,13,10.441l-5.327-15.555c-.213-.426,0-.639.426-.852s.639,0,.852.426L66.3,182.653l6.392,5.753-4.475-14.063c0-.426,0-.639.426-.852.426,0,.639,0,.852.426l5.114,16.194c4.049,3.835,8.1,8.1,12.359,12.785l-3.2-13.637a.674.674,0,0,1,1.278-.426L88.882,204.6,94,210.353l-1.7-10.441c0-.426.213-.639.426-.639.426,0,.639.213.639.426l2.131,12.359c3.2,3.835,6.392,7.671,9.589,11.933l-1.492-11.506a.639.639,0,1,1,1.278,0l1.7,13.637c2.77,3.835,5.753,7.671,8.523,11.719l-.852-10.228a.639.639,0,1,1,1.278,0l1.065,12.359c2.557,3.622,4.9,7.458,7.458,11.293l.213-9.163a.639.639,0,0,1,1.278,0l-.426,11.08c1.7,2.77,3.622,5.753,5.327,8.736l1.278-7.884c0-.426.426-.639.639-.426.426,0,.639.426.426.639l-1.492,9.376c1.7,2.77,3.409,5.753,4.9,8.523l1.065-5.114c0-.426.426-.639.852-.426.426,0,.639.426.426.852l-1.492,6.392a69.009,69.009,0,0,1,3.622,6.819L143,276.622c.213-.213.639-.426.852-.213s.426.639.213.852l-2.557,4.688c1.065,1.918,1.918,3.836,2.983,5.753a14.68,14.68,0,0,0-1.7.639Q140.874,285.145,139.6,282.588Z" transform="translate(-3.451 -139.747)" fill="#bd6020" fill-rule="evenodd"/>
      </g>
      <g id="Grupo_8" data-name="Grupo 8" transform="translate(348.115 33.942)">
        <path id="Caminho_14" data-name="Caminho 14" d="M176.216,109.2c.639-7.245,3.2-18.964,11.293-33.454,13.85-24.291,20.03-50.926,6.819-58.81-12.572-7.458-32.175,27.061-30.9,90.133l12.785,2.131Z" transform="translate(-163.372 -15.929)" fill="#bd6020" fill-rule="evenodd"/>
        <path id="Caminho_15" data-name="Caminho 15" d="M190.33,20.653a.8.8,0,0,0-.213-1.278c-.426-.213-1.065-.213-1.279.213,0,0-1.918,2.557-4.688,7.032l.426-5.54a.639.639,0,0,0-1.279,0l-.426,8.1a64.108,64.108,0,0,0-3.835,7.671l-.639-6.606a.639.639,0,0,0-1.278,0l.852,8.736q-1.918,4.475-3.835,10.228l-.852-5.753a.639.639,0,0,0-1.279,0l1.279,8.31a93.3,93.3,0,0,0-3.2,12.785l-1.279-5.327c0-.426-.426-.639-.852-.426-.426,0-.639.426-.426.852l2.131,7.884a127.8,127.8,0,0,0-1.918,13.85L166.251,78.4c-.213-.213-.639-.426-.852-.213s-.426.639-.213.852l2.344,4.688c-.213,3.622-.426,7.671-.426,11.506l-1.492-2.77c-.213-.213-.639-.426-.852-.213s-.426.639-.213.852l2.77,4.9c0,1.918.213,4.049.213,5.966l1.918.213a57.855,57.855,0,0,1-.213-5.966c1.065-1.278,3.622-4.049,5.114-4.688.213-.213.426-.426.213-.852-.213-.213-.426-.426-.852-.213a16.415,16.415,0,0,0-4.688,4.049V91.822a23.436,23.436,0,0,1,6.819-4.688c.426-.213.426-.426.426-.852-.213-.426-.426-.426-.852-.426a22.611,22.611,0,0,0-6.179,4.262c0-3.2.213-6.179.426-8.949,1.918-1.065,8.31-4.688,11.719-5.54.426,0,.639-.426.426-.852,0-.426-.426-.639-.852-.426-3.2.639-8.523,3.622-11.293,5.114a56.545,56.545,0,0,1,1.278-8.949,57.207,57.207,0,0,1,13.85-6.392c.426,0,.639-.426.426-.852,0-.426-.426-.639-.852-.426a53.342,53.342,0,0,0-13.424,5.966,30.175,30.175,0,0,1,.852-4.262,69,69,0,0,1,16.62-8.1c.426,0,.426-.426.426-.852s-.426-.426-.852-.426a60.772,60.772,0,0,0-15.768,7.458c1.065-4.9,2.344-9.376,3.622-13.424,2.77-1.065,13-4.9,18.751-5.753.426,0,.639-.426.426-.639,0-.426-.426-.639-.639-.426-5.114.852-14.276,4.049-17.9,5.327q1.6-4.475,3.2-8.31c2.557-.639,12.359-3.409,14.916-3.835.426,0,.639-.426.426-.639,0-.426-.426-.639-.852-.426-2.131.426-10.441,2.557-13.85,3.622,1.492-3.409,2.983-6.179,4.262-8.736,2.557-.426,8.736-1.7,10.228-1.918a.639.639,0,1,0,0-1.278c-1.278.213-6.392,1.065-9.162,1.7C188.412,23.21,190.33,20.653,190.33,20.653Z" transform="translate(-162.143 -12.192)" fill="#d0d2e8" fill-rule="evenodd"/>
      </g>
      <g id="Grupo_9" data-name="Grupo 9" transform="translate(330.489 28.895)">
        <path id="Caminho_16" data-name="Caminho 16" d="M180.031,185.6c4.9-13,16.407-35.371,42.4-61.367C263.771,83.109,291.046,35.592,269.1,16.841c-21.308-18.538-81.61,42.19-114,164.712A152.659,152.659,0,0,0,180.031,185.6Z" transform="translate(-155.1 -13.561)" fill="#ffdd92" fill-rule="evenodd"/>
        <path id="Caminho_17" data-name="Caminho 17" d="M164,173.447a29.5,29.5,0,0,1,9.8-1.065.639.639,0,1,0,0-1.278,34.615,34.615,0,0,0-9.589.852c.639-2.131,1.279-4.049,1.918-5.966,2.131-.639,8.949-2.344,11.719-2.983.426,0,.639-.426.426-.639,0-.426-.426-.639-.639-.426-2.344.426-8.31,1.918-10.867,2.77,1.279-3.622,2.344-7.245,3.622-10.867,2.131-.426,8.523-1.918,15.981-2.77a.639.639,0,1,0,0-1.279,123.763,123.763,0,0,0-15.342,2.557c1.279-3.622,2.557-7.032,3.835-10.441a190.01,190.01,0,0,1,22.587-3.835.639.639,0,1,0,0-1.279,189.637,189.637,0,0,0-21.947,3.622q2.557-6.712,5.114-12.785c2.983-.852,15.129-4.262,25.144-3.622a.639.639,0,1,0,0-1.278c-9.376-.639-20.456,2.131-24.5,3.409,2.131-5.114,4.262-9.8,6.392-14.49,4.049-.852,20.669-3.622,29.618,0,.426.213.639,0,.852-.426s0-.639-.426-.852c-8.736-3.409-24.078-1.065-29.405-.213,2.344-4.9,4.688-9.376,7.032-13.85,3.2,0,16.194-.213,29.192,2.77a.674.674,0,0,0,.426-1.278,152.372,152.372,0,0,0-29.192-2.557c1.492-2.557,2.77-5.114,4.262-7.458,2.983-.213,15.768-.426,33.454,3.409a.674.674,0,0,0,.426-1.278C217.269,86.3,204.91,86.3,200.862,86.51c3.409-5.753,6.606-10.867,10.015-15.768,3.835.213,23.439,1.918,34.519,5.753.426.213.639,0,.852-.426s0-.639-.426-.852c-10.654-3.622-28.979-5.327-34.093-5.753,1.918-2.77,3.835-5.327,5.753-7.884a178.308,178.308,0,0,1,33.241,5.966c.426,0,.639,0,.852-.426,0-.426,0-.639-.426-.852a185.875,185.875,0,0,0-32.6-5.966c4.475-5.753,8.736-10.867,12.785-15.129,3.2,0,17.686,0,29.405,3.409.426,0,.639,0,.852-.426,0-.426,0-.639-.426-.852-10.867-3.2-23.865-3.409-28.553-3.409,1.7-1.7,3.2-3.409,4.9-4.9a90.539,90.539,0,0,1,24.717.213.639.639,0,1,0,0-1.278A110.5,110.5,0,0,0,238.79,37.5c12.572-12.146,21.308-16.62,21.308-16.62a.953.953,0,0,0-.852-1.7,65.277,65.277,0,0,0-10.015,6.819c1.279-2.983,3.2-6.819,3.835-7.458a.6.6,0,1,0-.852-.852c-.852.852-4.049,7.671-5.114,10.228-2.557,2.131-5.327,4.475-8.31,7.458l3.2-13.637a1.107,1.107,0,0,0-.426-.852,1.107,1.107,0,0,0-.852.426l-3.622,15.555c-2.131,2.131-4.262,4.262-6.606,6.819L233.463,27.7c0-.426-.213-.639-.426-.639-.426,0-.639.213-.639.426l-3.409,17.9c-3.409,3.835-7.032,8.1-10.654,12.785l1.918-16.194a.639.639,0,0,0-1.279,0L216.63,60.3q-2.557,3.2-5.114,7.032l1.492-14.49a.639.639,0,0,0-1.279,0l-1.7,16.833c-3.2,4.688-6.392,9.589-9.589,14.916l.426-14.063a.639.639,0,0,0-1.279,0l-.426,16.194c-1.279,2.131-2.557,4.475-3.835,6.606L194.9,82.888a.639.639,0,0,0-1.278,0l.426,12.572c-2.344,4.262-4.688,8.736-7.032,13.637l-.852-11.506a.639.639,0,1,0-1.278,0l1.065,13.85c-1.918,4.262-4.049,8.523-5.966,13.211L178.7,114.424a.639.639,0,0,0-1.279,0l1.492,12.359c-1.7,4.049-3.409,8.31-5.114,12.572L171.67,130.4c0-.426-.426-.639-.852-.426-.426,0-.639.426-.426.852l2.557,10.654c-1.278,3.2-2.344,6.392-3.622,9.8l-2.77-7.458c-.213-.426-.426-.426-.852-.426-.426.213-.426.426-.426.852l3.409,8.736c-1.065,2.983-2.131,6.179-3.2,9.376l-2.131-4.688c-.213-.426-.426-.426-.852-.213s-.426.426-.213.852l2.77,5.966c-.852,2.344-1.492,4.9-2.344,7.458l-2.983-3.622a.6.6,0,0,0-.852.852l3.622,4.049c-.639,2.131-1.279,4.049-1.7,6.179.639.213,1.279.213,1.918.426A52.739,52.739,0,0,1,164,173.447Z" transform="translate(-151.001 -9.078)" fill="#bd6020" fill-rule="evenodd"/>
      </g>
      <g id="Grupo_10" data-name="Grupo 10" transform="translate(278.545 288.951)">
        <path id="Caminho_18" data-name="Caminho 18" d="M131.74,388.52a334.138,334.138,0,0,1,.213-54.762c5.966-66.481,33.028-114,71.6-145.747s88.216-47.73,139.355-51.566a355.6,355.6,0,0,1,54.336.426,1.866,1.866,0,0,1,1.7,1.918V139c-.426,5.114-32.175,305.558-265.925,251.223A1.856,1.856,0,0,1,131.74,388.52Z" transform="translate(-130.722 -135.606)" fill="#ffdd92" fill-rule="evenodd"/>
        <path id="Caminho_19" data-name="Caminho 19" d="M382.11,140.531a1.471,1.471,0,0,1,2.131,1.065,1.592,1.592,0,0,1-1.065,2.131c-.213,0-18.538,6.819-45.812,22.16,9.376,1.7,30.684,5.54,40.059,8.736a1.685,1.685,0,1,1-1.065,3.2c-10.867-3.622-39.207-8.523-43.469-9.163-11.719,6.819-25.144,15.129-39.207,25.144l73.726,19.39a1.757,1.757,0,0,1-.852,3.409l-76.283-20.03c-13.211,9.589-26.848,20.456-40.912,32.814,15.129,4.688,87.789,26.848,99.722,33.028a1.718,1.718,0,0,1-1.7,2.983c-12.359-6.392-92.051-30.684-101-33.454-11.08,10.015-22.374,21.1-33.454,33.241L326.5,301.407a1.685,1.685,0,1,1-1.065,3.2L210.58,267.953c-8.523,9.589-17.046,19.817-25.144,30.684,18.538,6.179,113.146,35.8,113.572,35.8a1.685,1.685,0,1,1-1.065,3.2c-.213,0-98.657-30.684-114.638-36.224-7.032,9.376-13.85,19.39-20.243,29.831,22.374,11.08,97.591,30.471,97.8,30.684a1.757,1.757,0,0,1-.852,3.409c-.213,0-76.283-19.817-98.657-31.11q-6.392,10.228-12.146,21.1c8.523,3.409,47.091,18.112,72.021,20.669a1.718,1.718,0,0,1-.426,3.409c-25.57-2.557-65.2-17.9-73.087-21.1-2.983,5.753-5.966,11.506-8.736,17.473a1.764,1.764,0,0,1-3.2-1.492c2.983-6.179,5.966-12.359,9.162-18.325-4.9-13.637-8.1-41.977-8.1-41.977a1.718,1.718,0,0,1,3.409-.426s2.77,24.291,7.032,38.355c3.835-6.819,7.671-13.637,11.719-20.03a309.814,309.814,0,0,1-11.293-63.285,1.6,1.6,0,0,1,3.2-.213,304.122,304.122,0,0,0,10.441,59.663c6.392-10.015,13-19.6,19.6-28.766-2.131-5.966-14.063-42.829-15.129-68.825a1.7,1.7,0,1,1,3.409,0c.852,23.439,11.08,55.827,14.276,65.629,8.1-10.654,16.407-20.669,24.717-30.044-17.473-36.863-17.686-65.842-17.686-66.055a1.7,1.7,0,0,1,3.409,0s.213,27.7,16.833,63.285c11.08-12.146,22.374-23.226,33.454-33.454C237,213.4,229.971,171,229.971,170.788a1.63,1.63,0,1,1,3.2-.639c0,.213,6.606,40.485,13.637,57.106a523.469,523.469,0,0,1,41.338-33.241c-5.327-21.308-4.688-44.534-4.688-44.534a1.7,1.7,0,1,1,3.409,0s-.639,21.947,4.262,42.4c14.276-10.228,27.914-18.751,39.846-25.783a114.022,114.022,0,0,1-.426-24.291,1.718,1.718,0,1,1,3.409.426,120.836,120.836,0,0,0,.213,22.16C362.72,147.775,381.9,140.744,382.11,140.531Z" transform="translate(-125.182 -130.316)" fill="#bd6020" fill-rule="evenodd"/>
      </g>
      <path id="Caminho_20" data-name="Caminho 20" d="M11.693,260.1H613.434a9.231,9.231,0,0,1,9.162,9.162h0a9.231,9.231,0,0,1-9.162,9.163H579.767a10.685,10.685,0,0,0-10.654,10.654h0a10.819,10.819,0,0,0,9.589,10.654h18.325c3.2,0,5.753,3.409,5.753,7.458h0c0,4.049-2.557,7.458-5.753,7.458H50.047A12.14,12.14,0,0,1,37.9,302.5h0a12.14,12.14,0,0,1,12.146-12.146H63.9a5.275,5.275,0,0,0,5.327-5.327h0A5.275,5.275,0,0,0,63.9,279.7h-52.2A9.549,9.549,0,0,1,2.1,270.115h0A9.649,9.649,0,0,1,11.693,260.1Zm623.049,18.325h0a9,9,0,0,0,8.949-8.949v-.213a9,9,0,0,0-8.949-8.949h0a9,9,0,0,0-8.949,8.949v.213a9,9,0,0,0,8.949,8.949ZM19.15,290.144A11.823,11.823,0,0,0,7.431,301.864v.852A11.824,11.824,0,0,0,19.15,314.436h0A11.824,11.824,0,0,0,30.87,302.716v-.852A11.823,11.823,0,0,0,19.15,290.144Z" transform="translate(2.371 294.124)" fill-rule="evenodd" opacity="0.09"/>
      <path id="Caminho_21" data-name="Caminho 21" d="M74.193,15.8H278.538a34.193,34.193,0,0,1,34.093,34.093V529.539a34.193,34.193,0,0,1-34.093,34.093H74.193A34.193,34.193,0,0,1,40.1,529.539V49.893A34.332,34.332,0,0,1,74.193,15.8Z" transform="translate(45.346 17.867)" fill-rule="evenodd" fill="url(#linear-gradient)"/>
      <path id="Caminho_22" data-name="Caminho 22" d="M71.253,18.3A28.692,28.692,0,0,0,42.7,46.853V526.5a28.692,28.692,0,0,0,28.553,28.553H275.6A28.692,28.692,0,0,0,304.151,526.5V47.066A28.692,28.692,0,0,0,275.6,18.513H71.253Z" transform="translate(48.286 20.694)" fill-rule="evenodd" fill="url(#linear-gradient-2)"/>
      <path id="Caminho_23" data-name="Caminho 23" d="M238.2,27.783V30.34a10.913,10.913,0,0,1-10.867,10.867H105.027A10.913,10.913,0,0,1,94.16,30.34V27.783A4.929,4.929,0,0,0,89.685,24.8H63.9A14.732,14.732,0,0,0,49.2,39.5V519.148a14.732,14.732,0,0,0,14.7,14.7H268.247a14.732,14.732,0,0,0,14.7-14.7V39.716a14.732,14.732,0,0,0-14.7-14.7H242.465A4.448,4.448,0,0,0,238.2,27.783Z" transform="translate(55.636 28.044)" fill="#fff" fill-rule="evenodd"/>
      <path id="Caminho_24" data-name="Caminho 24" d="M102.893,29.262a2.131,2.131,0,0,1,0-4.262H142.74a2.131,2.131,0,0,1,0,4.262ZM95.649,25a2.131,2.131,0,1,1,0,4.262H93.731a2.131,2.131,0,1,1,0-4.262Z" transform="translate(103.582 28.27)" fill="#e3dedc" fill-rule="evenodd"/>
      <g id="Grupo_11" data-name="Grupo 11" transform="translate(117.834 57.958)">
        <path id="Caminho_25" data-name="Caminho 25" d="M55.939,28.478a.639.639,0,1,1,0-1.278H71.707a.639.639,0,0,1,0,1.278Zm0,10.228a.639.639,0,1,1,0-1.278H71.707a.639.639,0,0,1,0,1.278Zm0-5.114a.639.639,0,1,1,0-1.278H71.707a.639.639,0,0,1,0,1.278Z" transform="translate(-55.3 -27.2)" fill="#151b34" fill-rule="evenodd"/>
        <path id="Caminho_26" data-name="Caminho 26" d="M163.682,28.139Zm-18.751.639h9.162v7.458h-9.162c-.213,0-.426,0-.426-.213-.213-.213-.213-.213-.213-.426V29.631c0-.213,0-.426.213-.426a.458.458,0,0,1,.426-.426ZM162.19,27.5h-17.26a2.185,2.185,0,0,0-2.131,2.131V35.6a2.185,2.185,0,0,0,2.131,2.131h17.26a1.934,1.934,0,0,0,1.492-.639h0a1.934,1.934,0,0,0,.639-1.492V29.631A2.185,2.185,0,0,0,162.19,27.5Z" transform="translate(43.646 -26.861)" fill="#151b34" fill-rule="evenodd"/>
      </g>
      <g id="Grupo_12" data-name="Grupo 12" transform="translate(353.847 106.459)">
        <path id="Caminho_27" data-name="Caminho 27" d="M193.253,262.485c0,1.492.213,8.523-1.279,11.293-.426.639.213,1.492.639,2.131.852,2.131,3.835,4.9,13.211,6.179,9.376,1.492,20.03.426,25.57-.213s2.344-3.409-.213-4.475-21.947-7.458-24.717-10.228-.852-7.458-1.279-8.31C204.973,258.224,194.532,258.224,193.253,262.485Z" transform="translate(-136.918 185.919)" fill="#e9cacd" fill-rule="evenodd"/>
        <path id="Caminho_28" data-name="Caminho 28" d="M193.377,265.7a3.607,3.607,0,0,0-2.344,2.344c-.639,2.131,0,8.736,1.279,11.293,1.279,2.344,7.671,1.492,18.751,1.492h16.62c6.179,0,15.129-1.7,15.981-4.049,1.065-2.344-3.835-7.245-11.933-7.671,0,0,1.7,1.065-.426,2.557s-9.589,3.2-20.669,1.918C199.343,272.305,193.59,267.4,193.377,265.7Z" transform="translate(-138.108 193.998)" fill-rule="evenodd" fill="url(#linear-gradient-3)"/>
        <path id="Caminho_29" data-name="Caminho 29" d="M218.394,154.875l2.77,4.049s6.819,73.939,6.392,97.165-4.9,26.848-4.9,50.074c-.213,23.439-2.557,68.4-2.344,73.939s-10.228,4.475-13.211,1.918c-2.983-2.344-5.966-80.545-5.114-92.264s-1.492-27.914-4.049-38.781S179.4,180.445,179.4,164.89C179.187,149.548,218.394,154.875,218.394,154.875Z" transform="translate(-150.98 67.664)" fill-rule="evenodd" fill="url(#linear-gradient-4)"/>
        <path id="Caminho_30" data-name="Caminho 30" d="M189.523,206.5a9.847,9.847,0,0,1-4.049.639c-1.918,0-4.049-.213-5.753-.213a6.3,6.3,0,0,0-2.131.426c-2.131.852-4.9,3.622-7.032,13-1.918,9.376-1.492,20.03-1.065,25.57s3.2,2.344,4.475,0c1.279-2.557,7.884-19.39,12.785-23.865s5.54-3.835,6.392-4.262S193.784,207.992,189.523,206.5Z" transform="translate(-162.593 127.054)" fill="#e9cacd" fill-rule="evenodd"/>
        <path id="Caminho_31" data-name="Caminho 31" d="M183.19,208.135a3.077,3.077,0,0,0-2.344-2.344c-1.918-.639-8.736-.426-11.293.639s-1.918,7.458-2.557,18.751c-.639,11.08-.639,10.654-.852,16.62-.426,5.966.852,15.129,3.2,16.194s7.458-3.409,8.31-11.506c0,0-1.278,1.492-2.557-.639-1.492-2.131-2.557-9.589-.639-20.669C176.584,213.675,181.485,208.348,183.19,208.135Z" transform="translate(-166.062 125.845)" fill-rule="evenodd" fill="url(#linear-gradient-5)"/>
        <path id="Caminho_32" data-name="Caminho 32" d="M187.406,148.6c-3.2,2.344-15.555,10.654-16.833,13.424-23.652,51.139,72.874,65.2,84.38,82.036,1.918,2.77-62.22,26.635-64.137,28.127s-.426,11.506,1.918,13.211,80.545-15.981,98.444-26.848c0,0,11.293-8.523.426-27.487-10.654-18.964-60.728-50.713-63.924-54.762s-8.949-8.949-6.819-15.768C222.99,153.288,187.406,148.6,187.406,148.6Z" transform="translate(-165.164 61.58)" fill-rule="evenodd" fill="url(#linear-gradient-6)"/>
        <path id="Caminho_33" data-name="Caminho 33" d="M218.658,119.193l2.557-.852s1.278-3.622,2.983-5.114,4.475-3.835,4.688-7.245-12.572-5.327-12.572-4.475c0,.639-5.327,5.966-4.9,8.1a29.432,29.432,0,0,0,2.344,5.753Z" transform="translate(-114.806 8.098)" fill="#e9cacd" fill-rule="evenodd"/>
        <path id="Caminho_34" data-name="Caminho 34" d="M207.974,112.686s16.194,37.289,19.177,41.125c3.2,3.835,17.047-37.289,20.03-44.747,0,0,5.753.213,7.671,2.131,0,0-9.376,49.648-13.637,59.45-4.262,10.015-13.85,11.293-22.587,7.671s-31.11-43.042-35.8-50.287S190.5,95.64,207.974,112.686Z" transform="translate(-148.231 14.392)" fill-rule="evenodd" fill="url(#linear-gradient-7)"/>
        <path id="Caminho_35" data-name="Caminho 35" d="M174.363,157.01c-16.833-23.439-4.688-39.846,8.523-47.517,6.179-3.622,11.506-15.981,11.293-21.308-.426-18.964,9.376-40.485,28.979-34.519,36.224-14.7,38.568,17.686,33.241,38.994-1.492,5.966,1.918,11.933,7.245,17.26,12.785,13,5.327,30.044.213,39.207s3.835,19.6-.852,26.848c-5.753,8.523-31.323,31.11-36.224,7.458C217.832,141.242,201.425,161.485,174.363,157.01Z" transform="translate(-165.972 -49.962)" fill-rule="evenodd" fill="url(#linear-gradient-8)"/>
        <path id="Caminho_36" data-name="Caminho 36" d="M206.4,90.39l.639,6.179a3.788,3.788,0,0,0-3.835,2.557c-1.065,2.557-3.622,17.9-3.409,23.226,0,0-.213.426-1.065.213-.852-.426-10.867-11.719-18.325-14.276L196.594,71Z" transform="translate(-149.848 -26.171)" fill="#e9cacd" fill-rule="evenodd"/>
        <path id="Caminho_37" data-name="Caminho 37" d="M214.221,101.285s1.278,4.475,8.1,13.211c6.605,8.736,22.587,24.078,22.587,31.749,0,7.884-8.736,25.357-10.015,33.454-2.983,20.456,4.688,38.568,2.344,59.237-.213,2.131-1.065,1.7-1.918,1.492s-18.751-3.2-34.945-2.131c-16.194.852-27.487-3.622-31.323-6.606,0,0-1.918-2.131-1.279-4.049s11.506-24.291,11.293-48.156S146.887,104.268,194.831,88.5c0,0,7.671,1.918,10.441,3.2C207.828,92.975,214.221,101.285,214.221,101.285Z" transform="translate(-164.279 -6.382)" fill-rule="evenodd" fill="url(#linear-gradient-9)"/>
        <path id="Caminho_38" data-name="Caminho 38" d="M207.031,106.956s8.736,45.386,11.293,50.5,28.127-37.289,33.241-44.96c0,0,6.392,1.7,8.1,4.262,0,0-22.587,52.844-29.831,62.859s-18.325,9.162-27.061,2.983-24.078-55.4-27.487-64.564C172.086,108.661,191.9,83.517,207.031,106.956Z" transform="translate(-156.023 3.502)" fill-rule="evenodd" fill="url(#linear-gradient-10)"/>
        <path id="Caminho_39" data-name="Caminho 39" d="M235.029,84.339s2.131.639,2.131,1.918c0,1.492-4.688,34.732-5.327,36.011s-1.279,3.409-15.129,1.918c0,0-2.344-.426-2.983-1.7-.426-1.278,2.77-31.11,2.983-34.519s2.344-4.049,4.262-4.262C223.1,83.7,235.029,84.339,235.029,84.339Z" transform="translate(-112.213 -11.81)" fill-rule="evenodd" fill="url(#linear-gradient-11)"/>
        <path id="Caminho_40" data-name="Caminho 40" d="M215.9,56.1s9.376,6.392,9.376,14.7S224,85.5,223.36,86.567s-1.279,1.065-1.279,1.918a40.18,40.18,0,0,0-.213,8.1c.213,4.049-2.557,2.77-4.262,3.835s-.852,1.918-1.492,3.835c-.639,2.131-1.918,1.7-2.344,2.983-.426,1.065,0,1.7-.213,2.131a32.452,32.452,0,0,0-4.262,5.114c-1.278,2.131-4.9,1.065-8.1-.213-3.2-1.065-10.867-8.31-13.424-15.981s.213-18.112.213-18.112-1.7-4.688-.639-8.31,1.279-2.983,3.2-3.622c1.7-.639,2.131,5.753,2.131,5.753S202.9,52.687,215.9,56.1Z" transform="translate(-142.734 -43.442)" fill="#e9cacd" fill-rule="evenodd"/>
        <path id="Caminho_41" data-name="Caminho 41" d="M218.705,64.733c-4.9,11.293-22.374,7.032-29.405,12.785L191.218,65.8l3.409-8.1s8.1-5.114,8.949-4.688C204.642,53.226,219.131,57.062,218.705,64.733Z" transform="translate(-139.784 -46.539)" fill-rule="evenodd" fill="url(#linear-gradient-12)"/>
        <path id="Caminho_42" data-name="Caminho 42" d="M218.62,122.112a38.964,38.964,0,0,1,6.819-4.475c4.688-2.557,8.736-4.688,9.376-6.392s.213-3.409-.639-3.835c-.852-.639-3.2.213-4.262-.213s1.492-1.7,3.2-2.131,3.622-.213,4.262-.639a1.392,1.392,0,0,0,.426-1.7,8.18,8.18,0,0,0-3.409-.426,10.6,10.6,0,0,0-4.475.213c-1.7.639-3.409.852-3.622.639a2.5,2.5,0,0,1,0-2.557,20.418,20.418,0,0,1,3.835-3.622c.852-.639,3.409-.426,4.688-.852s1.065-1.918-.426-2.131a22.1,22.1,0,0,0-5.327,0c-2.131,0-2.983,1.278-5.753,3.2s-7.671,5.114-9.162,8.523-1.918,8.1-2.983,10.441C209.884,118.7,212.654,121.472,218.62,122.112Z" transform="translate(-115.408 -0.36)" fill="#e9cacd" fill-rule="evenodd"/>
        <path id="Caminho_43" data-name="Caminho 43" d="M189.886,68.339l14.276-.639c10.654,9.376,8.1,33.88,0,44.534-9.163,12.572-24.291,2.131-30.258,8.1l-1.7-14.49S199.688,83.042,189.886,68.339Z" transform="translate(-159.121 -29.903)" fill-rule="evenodd" fill="url(#linear-gradient-13)"/>
      </g>
      <g id="Grupo_13" data-name="Grupo 13" transform="translate(486.516 116.342)">
        <path id="Caminho_44" data-name="Caminho 44" d="M264,106.323V110.8a2.834,2.834,0,0,0,.639,1.7,2.234,2.234,0,0,0,3.835-1.7v-4.475a2.834,2.834,0,0,0-.639-1.7,2.3,2.3,0,0,0-3.835,1.7Zm98.444,102.918h-4.688a2.834,2.834,0,0,0-1.7.639,2.234,2.234,0,0,0,1.7,3.835h4.475a2.833,2.833,0,0,0,1.7-.639,2.233,2.233,0,0,0-1.492-3.835Zm-18.112,0h-4.475a2.834,2.834,0,0,0-1.7.639,2.234,2.234,0,0,0,1.7,3.835h4.475a2.834,2.834,0,0,0,1.7-.639,2.352,2.352,0,0,0-1.7-3.835Zm-18.112,0h-4.475a2.834,2.834,0,0,0-1.7.639,2.234,2.234,0,0,0,1.7,3.835h4.475a2.833,2.833,0,0,0,1.7-.639,2.352,2.352,0,0,0-1.7-3.835Zm-18.112,0h-4.475a2.834,2.834,0,0,0-1.7.639,2.234,2.234,0,0,0,1.7,3.835h4.475a2.834,2.834,0,0,0,1.7-.639,2.352,2.352,0,0,0-1.7-3.835Zm-17.047-2.131a30.175,30.175,0,0,1-3.835-1.7,1.921,1.921,0,0,0-1.065-.213,2.288,2.288,0,0,0-1.065,4.262,16.7,16.7,0,0,0,4.475,1.918c.213,0,.213,0,.426.213,2.557.213,3.622-3.622,1.065-4.475Zm-13.85-9.589c-.852-1.065-1.7-2.131-2.557-3.409l-.639-.639a2.214,2.214,0,0,0-2.983,3.2,46.8,46.8,0,0,0,2.983,3.835c.213.213.426.426.639.426a2.167,2.167,0,0,0,2.557-3.409Zm-7.671-14.916a13.738,13.738,0,0,1-.639-4.262v-.426a2.3,2.3,0,0,0-4.475.852,30.571,30.571,0,0,0,.852,4.688,4.459,4.459,0,0,0,.852,1.278c1.492,1.492,3.835,0,3.409-2.131Zm-1.065-17.473v-4.475a2.834,2.834,0,0,0-.639-1.7,2.234,2.234,0,0,0-3.835,1.7v4.475a2.834,2.834,0,0,0,.639,1.7,2.326,2.326,0,0,0,3.835-1.7Zm0-18.112v-4.688a2.834,2.834,0,0,0-.639-1.7,2.234,2.234,0,0,0-3.835,1.7v4.475a2.834,2.834,0,0,0,.639,1.7,2.215,2.215,0,0,0,3.835-1.492Zm0-22.587a2.834,2.834,0,0,0-.639-1.7,2.234,2.234,0,0,0-3.835,1.7v4.475a2.834,2.834,0,0,0,.639,1.7,2.234,2.234,0,0,0,3.835-1.7Z" transform="translate(-167.982 1.283)" fill="#fff" fill-rule="evenodd"/>
        <path id="Caminho_45" data-name="Caminho 45" d="M319.431,162.206v-4.475a2.834,2.834,0,0,0-.639-1.7,2.234,2.234,0,0,0-3.835,1.7v4.475a2.834,2.834,0,0,0,.639,1.7,2.326,2.326,0,0,0,3.835-1.7ZM221.2,59.075h4.475a2.833,2.833,0,0,0,1.7-.639,2.234,2.234,0,0,0-1.7-3.835H221.2a2.834,2.834,0,0,0-1.7.639,2.326,2.326,0,0,0,1.7,3.835Zm18.112,0h4.475a2.833,2.833,0,0,0,1.7-.639,2.234,2.234,0,0,0-1.7-3.835h-4.475a2.834,2.834,0,0,0-1.7.639,2.326,2.326,0,0,0,1.7,3.835Zm18.112,0H261.9a2.833,2.833,0,0,0,1.7-.639,2.234,2.234,0,0,0-1.7-3.835h-4.475a2.834,2.834,0,0,0-1.7.639,2.276,2.276,0,0,0,1.7,3.835Zm18.112,0h4.475a2.833,2.833,0,0,0,1.7-.639,2.234,2.234,0,0,0-1.7-3.835h-4.475a2.834,2.834,0,0,0-1.7.639,2.234,2.234,0,0,0,1.7,3.835Zm16.833,2.344a30.183,30.183,0,0,1,3.835,1.7,1.921,1.921,0,0,0,1.065.213,2.288,2.288,0,0,0,1.065-4.262,37.5,37.5,0,0,0-4.262-1.918c-.213,0-.213,0-.426-.213a2.342,2.342,0,0,0-1.279,4.475Zm13.85,9.589c.852,1.065,1.7,2.131,2.557,3.409l.639.639a2.214,2.214,0,0,0,2.983-3.2,46.81,46.81,0,0,0-2.983-3.835c-.213-.213-.426-.426-.639-.426-1.918-1.278-4.049,1.492-2.557,3.409ZM314.1,85.923a25.562,25.562,0,0,1,.639,4.262v.426a2.3,2.3,0,0,0,4.475-.852,30.564,30.564,0,0,0-.852-4.688,4.458,4.458,0,0,0-.852-1.278,2.07,2.07,0,0,0-3.409,2.131Zm.852,17.473v4.475a2.834,2.834,0,0,0,.639,1.7,2.234,2.234,0,0,0,3.835-1.7V103.4a2.834,2.834,0,0,0-.639-1.7,2.3,2.3,0,0,0-3.835,1.7Zm0,18.112v4.475a2.834,2.834,0,0,0,.639,1.7,2.234,2.234,0,0,0,3.835-1.7v-4.475a2.834,2.834,0,0,0-.639-1.7,2.3,2.3,0,0,0-3.835,1.7Zm0,22.587a2.834,2.834,0,0,0,.639,1.7,2.234,2.234,0,0,0,3.835-1.7v-4.475a2.834,2.834,0,0,0-.639-1.7,2.234,2.234,0,0,0-3.835,1.7Z" transform="translate(-218.938 -54.6)" fill="#fff" fill-rule="evenodd"/>
      </g>
      <path id="Caminho_46" data-name="Caminho 46" d="M7.406,205.8a6.265,6.265,0,0,1,4.688,1.918h0a6.688,6.688,0,0,1,0,9.376h0a7.188,7.188,0,0,1-4.688,1.918,6.265,6.265,0,0,1-4.688-1.918,6.688,6.688,0,0,1,0-9.376A6.265,6.265,0,0,1,7.406,205.8Zm2.983,3.622a4.207,4.207,0,0,0-2.983-1.279,3.576,3.576,0,0,0-2.983,1.279,4.207,4.207,0,0,0-1.278,2.983,3.576,3.576,0,0,0,1.278,2.983,4.207,4.207,0,0,0,2.983,1.278,4.207,4.207,0,0,0,2.983-1.278h0a4.12,4.12,0,0,0,0-5.966Z" transform="translate(0.905 232.721)" fill="#fff" fill-rule="evenodd"/>
      <path id="Caminho_47" data-name="Caminho 47" d="M4.9,114.779A1.228,1.228,0,0,1,6.179,113.5a1.228,1.228,0,0,1,1.278,1.278v3.835h3.835a1.278,1.278,0,1,1,0,2.557H7.458v3.835a1.228,1.228,0,0,1-1.278,1.278A1.228,1.228,0,0,1,4.9,125.006v-4.049H1.278a1.278,1.278,0,0,1,0-2.557H5.114v-3.622Z" transform="translate(0 128.347)" fill="#fff" fill-rule="evenodd"/>
      <path id="Caminho_48" data-name="Caminho 48" d="M139.5,246.8v18.964a19.209,19.209,0,0,1,2.131-1.918,8.986,8.986,0,0,1,5.327-1.918h16.407c.426,0,.639-.213,1.065-.426a1.627,1.627,0,0,0,.426-1.065v-13.85a.783.783,0,0,0-.213-.639.744.744,0,0,0-.213-.426,1.627,1.627,0,0,0-1.065-.426H141.2c-.426,0-.639.213-1.065.426a1.842,1.842,0,0,0-.639,1.278Zm16.407,3.622a.639.639,0,1,1,0,1.278H145.253a.639.639,0,1,1,0-1.278Zm1.492.639a.68.68,0,0,1,.639-.639H159.1a.639.639,0,0,1,0,1.279h-1.065a.68.68,0,0,1-.639-.639Zm-10.654,4.262a.68.68,0,0,1-.639.639H145.04a.639.639,0,0,1,0-1.279h1.065q.639.32.639.639Zm1.492-.426H157.4a.639.639,0,0,1,0,1.279h-9.162a.639.639,0,0,1,0-1.279Z" transform="translate(157.748 277.162)" fill="#151b34" fill-rule="evenodd"/>
      <path id="Caminho_49" data-name="Caminho 49" d="M183.9,6.606a6.265,6.265,0,0,1,1.918-4.688h0a6.688,6.688,0,0,1,9.376,0h0a7.188,7.188,0,0,1,1.918,4.688,6.265,6.265,0,0,1-1.918,4.688,6.688,6.688,0,0,1-9.376,0A5.95,5.95,0,0,1,183.9,6.606Zm3.622-2.983a4.207,4.207,0,0,0-1.279,2.983,3.576,3.576,0,0,0,1.279,2.983,4.207,4.207,0,0,0,2.983,1.278,3.576,3.576,0,0,0,2.983-1.278,4.207,4.207,0,0,0,1.279-2.983,4.207,4.207,0,0,0-1.279-2.983h0a4.207,4.207,0,0,0-2.983-1.278,3.869,3.869,0,0,0-2.983,1.278Z" transform="translate(207.956 0)" fill="#fff" fill-rule="evenodd"/>
      <path id="Caminho_50" data-name="Caminho 50" d="M92.878,8.658A1.228,1.228,0,0,1,91.6,7.379,1.228,1.228,0,0,1,92.878,6.1h3.835V2.478a1.278,1.278,0,0,1,2.557,0V6.314h3.835a1.228,1.228,0,0,1,1.278,1.278,1.228,1.228,0,0,1-1.278,1.278H99.271v3.835a1.228,1.228,0,0,1-1.278,1.278c-.639-.426-1.278-.852-1.278-1.492V8.658Z" transform="translate(103.582 1.357)" fill="#fff" fill-rule="evenodd"/>
      <path id="Caminho_51" data-name="Caminho 51" d="M264.906,204.411a6.265,6.265,0,0,1-4.688-1.918h0a6.688,6.688,0,0,1,0-9.376h0a7.188,7.188,0,0,1,4.688-1.918,6.63,6.63,0,0,1,4.688,11.293,7.667,7.667,0,0,1-4.688,1.918Zm-2.983-3.622a4.207,4.207,0,0,0,2.983,1.278,3.575,3.575,0,0,0,2.983-1.278,4.207,4.207,0,0,0,1.279-2.983,3.576,3.576,0,0,0-1.279-2.983,4.12,4.12,0,0,0-5.966,0h0a4.12,4.12,0,0,0,0,5.966Z" transform="translate(292.089 216.211)" fill="#fff" fill-rule="evenodd"/>
      <path id="Caminho_52" data-name="Caminho 52" d="M277.858,241.306a1.279,1.279,0,0,1-2.557,0v-3.835h-3.622a1.278,1.278,0,1,1,0-2.557h3.835v-3.835a1.279,1.279,0,1,1,2.557,0v3.835h3.835a1.278,1.278,0,1,1,0,2.557h-3.835v3.835Z" transform="translate(305.771 259.86)" fill="#fff" fill-rule="evenodd"/>
      <path id="Caminho_53" data-name="Caminho 53" d="M184.664,107.6H110.3c-22.374,0-40.7,18.538-40.7,41.551v41.125c0,23.013,18.112,41.551,40.7,41.551h25.783a1.334,1.334,0,0,0,1.065-1.918l-11.293-24.5a1.416,1.416,0,0,0-1.065-.852h-9.8a19.053,19.053,0,0,1-18.964-19.177V150.642a19.053,19.053,0,0,1,18.964-19.177h65.842a19.053,19.053,0,0,1,18.964,19.177v34.732a19.053,19.053,0,0,1-18.964,19.177h-36.65a1.334,1.334,0,0,0-1.065,1.918l11.933,25.357,10.441,22.16a1.218,1.218,0,0,0,2.131.213l16.407-21.947c.213-.426.639-.426,1.065-.426h0c22.374,0,40.7-18.538,40.7-41.551V149.151C225.362,126.351,207.25,107.6,184.664,107.6Z" transform="translate(78.704 121.675)" fill="#f4ae00"/>
    </g>
    <g id="Grupo_19" data-name="Grupo 19" transform="translate(832.418 4990.667)">
      <g id="Grupo_18" data-name="Grupo 18" transform="translate(0 -3)" clip-path="url(#clip-path)">
        <g id="Grupo_15" data-name="Grupo 15" transform="translate(37.793 1.953)">
          <path id="Caminho_54" data-name="Caminho 54" d="M3.9,0H-.822A2.339,2.339,0,0,0-2.5.7,2.366,2.366,0,0,0-.822,4.726H3.9A2.363,2.363,0,1,0,3.9,0" transform="translate(3.184)" fill="#fff" fill-rule="evenodd"/>
        </g>
        <g id="Grupo_16" data-name="Grupo 16" transform="translate(18.895 1.953)">
          <path id="Caminho_55" data-name="Caminho 55" d="M3.905,0H-.815A2.348,2.348,0,0,0-2.5.7,2.367,2.367,0,0,0-.815,4.726h4.72a2.34,2.34,0,0,0,1.681-.7A2.367,2.367,0,0,0,3.905,0" transform="translate(3.184)" fill="#fff" fill-rule="evenodd"/>
        </g>
        <g id="Grupo_17" data-name="Grupo 17" transform="translate(0 1.953)">
          <path id="Caminho_56" data-name="Caminho 56" d="M3.9,0H-.817A2.346,2.346,0,0,0-2.5.7,2.368,2.368,0,0,0-.817,4.726H3.9a2.33,2.33,0,0,0,1.683-.7A2.367,2.367,0,0,0,3.9,0" transform="translate(3.183)" fill="#fff" fill-rule="evenodd"/>
        </g>
      </g>
    </g>
    <g id="Grupo_20" data-name="Grupo 20" transform="translate(886.418 4990.667)">
      <g id="Grupo_18-2" data-name="Grupo 18" transform="translate(0 -3)" clip-path="url(#clip-path)">
        <g id="Grupo_15-2" data-name="Grupo 15" transform="translate(37.793 1.953)">
          <path id="Caminho_54-2" data-name="Caminho 54" d="M3.9,0H-.822A2.339,2.339,0,0,0-2.5.7,2.366,2.366,0,0,0-.822,4.726H3.9A2.363,2.363,0,1,0,3.9,0" transform="translate(3.184)" fill="#fff" fill-rule="evenodd"/>
        </g>
        <g id="Grupo_16-2" data-name="Grupo 16" transform="translate(18.895 1.953)">
          <path id="Caminho_55-2" data-name="Caminho 55" d="M3.905,0H-.815A2.348,2.348,0,0,0-2.5.7,2.367,2.367,0,0,0-.815,4.726h4.72a2.34,2.34,0,0,0,1.681-.7A2.367,2.367,0,0,0,3.905,0" transform="translate(3.184)" fill="#fff" fill-rule="evenodd"/>
        </g>
        <g id="Grupo_17-2" data-name="Grupo 17" transform="translate(0 1.953)">
          <path id="Caminho_56-2" data-name="Caminho 56" d="M3.9,0H-.817A2.346,2.346,0,0,0-2.5.7,2.368,2.368,0,0,0-.817,4.726H3.9a2.33,2.33,0,0,0,1.683-.7A2.367,2.367,0,0,0,3.9,0" transform="translate(3.183)" fill="#fff" fill-rule="evenodd"/>
        </g>
      </g>
    </g>
    <g id="Grupo_39" data-name="Grupo 39" transform="translate(571.251 4781.067)">
      <g id="Grupo_40" data-name="Grupo 40" transform="translate(0 -3)">
        <g id="Grupo_15-3" data-name="Grupo 15" transform="translate(35.527 1.836)">
          <path id="Caminho_54-3" data-name="Caminho 54" d="M3.48,0H-.963A2.2,2.2,0,0,0-2.537.657,2.224,2.224,0,0,0-.963,4.443H3.48A2.221,2.221,0,1,0,3.48,0" transform="translate(3.184)" fill="#fff" fill-rule="evenodd"/>
        </g>
        <g id="Grupo_16-3" data-name="Grupo 16" transform="translate(17.762 1.836)">
          <path id="Caminho_55-3" data-name="Caminho 55" d="M3.48,0H-.957A2.207,2.207,0,0,0-2.539.657,2.225,2.225,0,0,0-.957,4.443H3.48a2.2,2.2,0,0,0,1.58-.659A2.225,2.225,0,0,0,3.48,0" transform="translate(3.184)" fill="#fff" fill-rule="evenodd"/>
        </g>
      </g>
    </g>
    <g id="Grupo_43" data-name="Grupo 43" transform="translate(923.585 4991.067)">
      <g id="Grupo_40-2" data-name="Grupo 40" transform="translate(0 -3)">
        <g id="Grupo_16-4" data-name="Grupo 16" transform="translate(17.762 1.836)">
          <path id="Caminho_55-4" data-name="Caminho 55" d="M3.48,0H-.957A2.207,2.207,0,0,0-2.539.657,2.225,2.225,0,0,0-.957,4.443H3.48a2.2,2.2,0,0,0,1.58-.659A2.225,2.225,0,0,0,3.48,0" transform="translate(3.184)" fill="#fff" fill-rule="evenodd"/>
        </g>
      </g>
    </g>
  </g>
</svg>
