<svg xmlns="http://www.w3.org/2000/svg" width="40.301" height="38.018" viewBox="0 0 40.301 38.018">
  <path id="icone-quantoo" d="M29.73,0H10.516A10.6,10.6,0,0,0,0,10.736V21.361A10.6,10.6,0,0,0,10.516,32.1h6.662a.345.345,0,0,0,.275-.5L14.48,25.27a.366.366,0,0,0-.275-.22H11.672a4.923,4.923,0,0,1-4.9-4.955V11.121a4.923,4.923,0,0,1,4.9-4.955H28.684a4.923,4.923,0,0,1,4.9,4.955V20.1a4.923,4.923,0,0,1-4.9,4.955h-9.47a.345.345,0,0,0-.275.5L22.022,32.1l2.7,5.726a.315.315,0,0,0,.551.055l4.239-5.671c.055-.11.165-.11.275-.11h0A10.634,10.634,0,0,0,40.3,21.361V10.736A10.752,10.752,0,0,0,29.73,0Z" fill="#f4ae00"/>
</svg>
