<svg id="icon-menor-parcela" xmlns="http://www.w3.org/2000/svg" xmlns:xlink="http://www.w3.org/1999/xlink" width="95.864" height="96.314" viewBox="0 0 95.864 96.314">
  <defs>
    <clipPath id="clip-path">
      <rect id="Retângulo_247" data-name="Retângulo 247" width="95.864" height="96.314" fill="none"/>
    </clipPath>
  </defs>
  <path id="Caminho_1112" data-name="Caminho 1112" d="M392.18,435.676a1.876,1.876,0,1,0-2.652,0,1.877,1.877,0,0,0,2.652,0Zm0,0" transform="translate(-347.963 -370.479)" fill="#656667"/>
  <g id="Grupo_564" data-name="Grupo 564" transform="translate(0 0)">
    <g id="Grupo_563" data-name="Grupo 563" clip-path="url(#clip-path)">
      <path id="Caminho_1113" data-name="Caminho 1113" d="M364.758,181.731a13.411,13.411,0,1,0,13.411-13.411,13.427,13.427,0,0,0-13.411,13.411Zm24.383,0a10.973,10.973,0,1,1-10.973-10.973,10.985,10.985,0,0,1,10.973,10.973Zm0,0" transform="translate(-321.923 -155.395)" fill="#f4ae00"/>
      <path id="Caminho_1114" data-name="Caminho 1114" d="M236,393.819a1.874,1.874,0,0,0,2.646.015l9.09-8.954a5.666,5.666,0,0,0,1.334-5.818l1.955-1.885a5.592,5.592,0,0,1,3.9-1.578h24.923a16.785,16.785,0,0,0,11.769-4.781c.13-.127-.99,1.192,17-20.312a7.5,7.5,0,0,0-11.412-9.732l-11.062,11.37a7.537,7.537,0,0,0-5.829-2.791H259.41a24.193,24.193,0,0,0-9.388-1.874c-9.027,0-16.91,4.17-21.141,11.987a5.6,5.6,0,0,0-5.014,1.554l-8.919,8.945a1.875,1.875,0,0,0,0,2.644Zm14.025-42.591a20.466,20.466,0,0,1,8.254,1.718,1.878,1.878,0,0,0,.752.158h21.289a3.749,3.749,0,1,1,0,7.5h-15.3a1.875,1.875,0,0,0,0,3.75h15.3a7.508,7.508,0,0,0,7.5-7.5,7.606,7.606,0,0,0-.066-.98c10.7-11,12.21-12.547,12.274-12.623a3.75,3.75,0,1,1,5.726,4.845l-16.815,20.1a13.055,13.055,0,0,1-9.087,3.654H254.924a9.323,9.323,0,0,0-6.508,2.628l-1.593,1.538L232.135,361.33c3.433-6.439,9.874-10.1,17.885-10.1Zm-23.5,12.441a1.87,1.87,0,0,1,2.321-.264c.324.2-.607-.651,16.237,16.172a1.877,1.877,0,0,1,.011,2.642l-7.749,7.634-18.42-18.561Zm0,0" transform="translate(-214.307 -298.285)"/>
    </g>
  </g>
  <path id="Caminho_1115" data-name="Caminho 1115" d="M428.827,201.376v1.247a3.192,3.192,0,0,0,1.064,6.2,1.064,1.064,0,1,1,0,2.128,1.925,1.925,0,0,1-1.381-.805,1.064,1.064,0,1,0-1.629,1.37,4.412,4.412,0,0,0,1.946,1.386v1.242a1.064,1.064,0,1,0,2.128,0V212.9a3.192,3.192,0,0,0-1.064-6.2,1.064,1.064,0,0,1,0-2.128,1.709,1.709,0,0,1,1.151.557,1.064,1.064,0,0,0,1.48-1.53,4.118,4.118,0,0,0-1.567-.98v-1.239a1.064,1.064,0,1,0-2.128,0Zm0,0" transform="translate(-373.576 -181.389)" fill="#f4ae00"/>
</svg>
