<svg id="icon-lance" xmlns="http://www.w3.org/2000/svg" width="89.847" height="89.673" viewBox="0 0 89.847 89.673">
  <g id="Grupo_582" data-name="Grupo 582" transform="translate(33.984 0)">
    <path id="Caminho_1129" data-name="Caminho 1129" d="M226.42,24.043,239.332,34.09l1.784-2.355L227.955,21.5a1.3,1.3,0,0,0-.556-.263l-24.861-5.85a1.462,1.462,0,0,0-1.2.278l-16.086,11.7,1.726,2.369,15.545-11.3Z" transform="translate(-185.253 -15.355)"/>
    <path id="Caminho_1130" data-name="Caminho 1130" d="M247.832,66.774l1.082-2.72L241.6,61.129a1.463,1.463,0,0,0-1.2,0l-8.774,4.387,1.316,2.6,8.189-4.08Z" transform="translate(-222.65 -52.162)"/>
  </g>
  <path id="Caminho_1131" data-name="Caminho 1131" d="M147.954,92.1a11.7,11.7,0,1,1-.965-6.434l2.647-1.228a14.587,14.587,0,1,0,1.243,8.058Z" transform="translate(-100.048 -64.21)" fill="#f4ae00"/>
  <path id="Caminho_1128" data-name="Caminho 1128" d="M271.676,118.986a1.462,1.462,0,0,0-.936-.453l-15.794-1.462h-6.025l.292-4.387,5.718-1.155,7.985,1.784a1.469,1.469,0,0,0,.5,0l7.765-.921-.351-2.925-7.517.8-8.043-1.784a1.2,1.2,0,0,0-.6,0l-7.122,1.462a1.462,1.462,0,0,0-1.185,1.345l-.468,7.122c0,.03,0,.06,0,.09a1.462,1.462,0,0,0,1.465,1.46h7.458l15.121,1.375,7.78,8.145a1.463,1.463,0,0,0,1.053.453h10.354v-2.925H279.4Z" transform="translate(-200.167 -90.423)"/>
  <g id="Grupo_583" data-name="Grupo 583" transform="translate(0 46.303)">
    <path id="Caminho_1132" data-name="Caminho 1132" d="M96.473,281.606c0-6.133-3.8-12.65-10.843-12.65H82.573a4.948,4.948,0,0,1-3.086-1.084L65.247,256.48A9.084,9.084,0,0,0,59.6,254.5H33.478a9.017,9.017,0,0,0-7.517,4.023l-3.076,4.619a4.948,4.948,0,0,1-4.116,2.2,9.048,9.048,0,0,0-9.036,9.036v7.228a9.052,9.052,0,0,0,7.383,8.881,9.035,9.035,0,0,0,17.735.154H71.356a9.035,9.035,0,0,0,17.732-.14A8.8,8.8,0,0,0,96.473,281.606ZM26,294.256a5.421,5.421,0,1,1,5.421-5.421A5.428,5.428,0,0,1,26,294.256Zm54.213,0a5.421,5.421,0,1,1,5.421-5.421A5.428,5.428,0,0,1,80.21,294.256Zm8.8-7.445a9.035,9.035,0,0,0-17.657.217H34.85a9.035,9.035,0,0,0-17.654-.233,5.431,5.431,0,0,1-3.849-5.188v-7.228a5.428,5.428,0,0,1,5.421-5.421,8.543,8.543,0,0,0,7.124-3.813l3.076-4.615a5.416,5.416,0,0,1,4.511-2.414H59.6a5.453,5.453,0,0,1,3.39,1.189l14.24,11.388a8.57,8.57,0,0,0,5.345,1.879h3.054c5.3,0,7.229,5.4,7.229,9.036A5.157,5.157,0,0,1,89.014,286.811Z" transform="translate(-9.733 -254.5)" fill="#707070"/>
    <path id="Caminho_1133" data-name="Caminho 1133" d="M234.945,299.062H218.681V293.64a1.807,1.807,0,1,0-3.614,0v7.228a1.808,1.808,0,0,0,1.807,1.807h18.071a1.807,1.807,0,1,0,0-3.614Z" transform="translate(-175.311 -284.605)" fill="#707070"/>
    <path id="Caminho_1134" data-name="Caminho 1134" d="M119.332,299.065H107.8l2.309-4.612a1.808,1.808,0,1,0-3.235-1.616l-3.614,7.228a1.806,1.806,0,0,0,1.616,2.613h14.457a1.807,1.807,0,1,0,0-3.614Z" transform="translate(-84.997 -284.609)" fill="#707070"/>
    <path id="Caminho_1135" data-name="Caminho 1135" d="M239.154,366.5H235.54a1.807,1.807,0,1,0,0,3.614h3.614a1.807,1.807,0,1,0,0-3.614Z" transform="translate(-190.363 -344.815)" fill="#707070"/>
  </g>
  <path id="Caminho_1136" data-name="Caminho 1136" d="M178.793,118a4.68,4.68,0,0,0-4.387-4.256l-2.574-.38c-1.17-.175-1.857-.629-1.857-1.36s1.024-1.462,2.4-1.389h1.053c1.375,0,2.4.731,2.4,1.389v.395h2.925V112c0-2.219-1.865-3.971-4.387-4.322v-1.527h-2.925v1.527c-2.522.351-4.387,2.1-4.387,4.322a4.68,4.68,0,0,0,4.387,4.182l2.53.38c1.17.175,1.857.7,1.857,1.36s-1.024,1.389-2.4,1.389h-1.053c-1.374,0-2.4-.731-2.4-1.389v-.395H167.05v.395c0,2.156,1.915,3.9,4.409,4.25V123.7h2.925v-1.531C176.9,121.817,178.754,120.083,178.793,118Z" transform="translate(-136.591 -88.575)" fill="#f4ae00"/>
</svg>
