<svg id="Camada_1" data-name="Camada 1" xmlns="http://www.w3.org/2000/svg" viewBox="0 0 112 96"><title>icon-auto-02</title><g id="icon-auto"><path id="Caminho_60" data-name="Caminho 60" d="M112.31,75c0-7.92-4.9-16.34-14-16.34H94.37a6.33,6.33,0,0,1-4-1.4L72,42.56A11.74,11.74,0,0,0,64.71,40H31a11.65,11.65,0,0,0-9.71,5.19l-4,6A6.38,6.38,0,0,1,12,54,11.67,11.67,0,0,0,.31,65.66V75A11.67,11.67,0,0,0,9.84,86.46a11.67,11.67,0,0,0,22.91.2H79.89a11.67,11.67,0,0,0,22.9-.18A11.37,11.37,0,0,0,112.31,75Zm-91,16.34a7,7,0,1,1,7-7A7,7,0,0,1,21.31,91.34Zm70,0a7,7,0,1,1,7-7h0A7,7,0,0,1,91.31,91.34Zm11.37-9.62A11.67,11.67,0,0,0,79.87,82H32.75A11.66,11.66,0,0,0,10,81.7,7,7,0,0,1,5,75V65.67a7,7,0,0,1,7-7,11,11,0,0,0,9.19-4.93l4-6A7,7,0,0,1,31,44.66H64.71a7.12,7.12,0,0,1,4.37,1.53l18.4,14.7a11.06,11.06,0,0,0,6.91,2.43h3.94c6.85,0,9.34,7,9.34,11.66a6.69,6.69,0,0,1-5,6.74Z"/><path id="Caminho_61" data-name="Caminho 61" d="M77.31,63.34H54A2.34,2.34,0,0,1,51.63,61V51.66a2.34,2.34,0,0,1,4.68,0v7h21a2.34,2.34,0,0,1,0,4.68Z"/><path id="Caminho_62" data-name="Caminho 62" d="M44.65,63.34H26a2.33,2.33,0,0,1-2-1.11A2.4,2.4,0,0,1,23.89,60l4.66-9.34a2.33,2.33,0,1,1,4.18,2.08l-3,6h14.9a2.35,2.35,0,0,1,0,4.7Z"/><path id="Caminho_63" data-name="Caminho 63" d="M63.31,72.66H58.65a2.34,2.34,0,0,1,0-4.68h4.66a2.34,2.34,0,0,1,0,4.68Z"/></g></svg>