<svg id="icon-juros-zero-2" xmlns="http://www.w3.org/2000/svg" width="77.52" height="75.955" viewBox="0 0 77.52 75.955">
  <g id="Grupo_100" data-name="Grupo 100" transform="translate(0.491 0)">
    <path id="Caminho_228" data-name="Caminho 228" d="M76.71,56.817H74.943l.589-1.079a11.45,11.45,0,0,0,1.178-5.1V38.075a10.167,10.167,0,0,0-.687-3.827L65.229,3.829a5.1,5.1,0,0,0-9.322-1.178,4.966,4.966,0,0,0-.491,3.925l4.906,14.915a5.035,5.035,0,0,0-4.71,3.729L51.589,40.233A16.485,16.485,0,0,0,53.159,52.6l2.355,4.219H53.846a1.3,1.3,0,0,0-1.276,1.276v7.654a1.3,1.3,0,0,0,1.276,1.276h1.276v7.654A1.3,1.3,0,0,0,56.4,75.951H74.257a1.3,1.3,0,0,0,1.276-1.276V67.022h1.276a1.3,1.3,0,0,0,1.276-1.276V58.092a1.319,1.319,0,0,0-1.374-1.276Zm-21.391-5.5a13.767,13.767,0,0,1-1.276-10.4l4.023-15.013a2.6,2.6,0,0,1,1.374-1.668,2.749,2.749,0,0,1,2.159,0h0a2.635,2.635,0,0,1,1.374,2.944L59.93,38.369a1.274,1.274,0,0,0,2.453.687L65.425,27.87a5.03,5.03,0,0,0-2.159-5.593L57.87,5.889a2.652,2.652,0,0,1,.393-2.257,2.762,2.762,0,0,1,2.061-.981,2.434,2.434,0,0,1,2.453,1.963L73.57,35.131a10.277,10.277,0,0,1,.491,2.944V50.537a8.406,8.406,0,0,1-.981,4.023L72,56.817H58.262ZM72.883,73.4H57.575V67.022H72.883Zm2.551-8.929H55.024v-5.1h20.41Zm0,0" transform="translate(-1.447 0.004)"/>
    <path id="Caminho_229" data-name="Caminho 229" d="M31.53,21.643a1.29,1.29,0,0,0-1.178-.294,1.2,1.2,0,0,0-.785.883L27.9,31.947a1.092,1.092,0,0,0,.294.981.941.941,0,0,0,.981.294l9.714-1.668a1.2,1.2,0,0,0,.883-.785,1.29,1.29,0,0,0-.294-1.178L37.81,27.923,51.352,13.3a1.192,1.192,0,0,0,0-1.57L48.113,8.494a1.114,1.114,0,0,0-.785-.294h0a.892.892,0,0,0-.785.393L33.1,23.213Zm2.453,4.023L47.427,11.144,49,12.812,35.553,27.335a1.192,1.192,0,0,0,0,1.57l.883.883-5.986.981.981-5.986.883.883a.814.814,0,0,0,.785.294.906.906,0,0,0,.883-.294Zm0,0" transform="translate(-1.013 -0.148)" fill="#dfa528"/>
    <path id="Caminho_230" data-name="Caminho 230" d="M26.994,40.232,22.971,25.218a5.01,5.01,0,0,0-4.71-3.729L23.167,6.476A5.245,5.245,0,0,0,19.635.2a5.04,5.04,0,0,0-6.28,3.533L2.561,34.246a13.113,13.113,0,0,0-.687,3.827V50.535a11.45,11.45,0,0,0,1.178,5.1l.589,1.079H1.776A1.3,1.3,0,0,0,.5,57.992v7.752A1.3,1.3,0,0,0,1.776,67.02H3.051v7.654a1.3,1.3,0,0,0,1.276,1.276H22.186a1.3,1.3,0,0,0,1.276-1.276V67.02h1.276a1.3,1.3,0,0,0,1.276-1.276V58.09a1.3,1.3,0,0,0-1.276-1.276H23.069L25.424,52.6a16.427,16.427,0,0,0,1.57-12.364ZM20.91,73.4H5.6V67.02H20.91Zm2.551-8.929H3.051v-5.1h20.41ZM23.167,51.32l-3.042,5.4H6.388L5.308,54.46a9.714,9.714,0,0,1-.981-4.023V38.073a9.742,9.742,0,0,1,.491-2.944L15.71,4.514a2.517,2.517,0,0,1,2.159-1.864A2.678,2.678,0,0,1,20.42,3.925a3.134,3.134,0,0,1,.294,1.864l-5.4,16.583a5.03,5.03,0,0,0-2.159,5.593L16.2,39.152a1.274,1.274,0,0,0,2.453-.687L15.611,27.279a2.47,2.47,0,0,1,1.374-2.944h0c.1-.1.294-.1.491-.2a2.6,2.6,0,0,1,3.14,1.766l3.925,15.013a14.2,14.2,0,0,1-1.374,10.4Zm0,0" transform="translate(-0.5 0.006)"/>
    <rect id="Retângulo_28" data-name="Retângulo 28" width="76.538" height="75.95" transform="translate(0 0.006)" fill="none"/>
    <path id="Caminho_231" data-name="Caminho 231" d="M48.413,21.4a4.465,4.465,0,0,0-4.219,2.846,4.571,4.571,0,0,0,5.986,5.986A4.587,4.587,0,0,0,48.413,21.4Zm0,6.869A2.531,2.531,0,0,1,46.254,26.9a2.078,2.078,0,0,1,.491-2.453,2.136,2.136,0,0,1,2.453-.491,2.256,2.256,0,0,1,1.374,2.159,2.059,2.059,0,0,1-2.159,2.159Zm0,0" transform="translate(-1.313 -0.395)" fill="#dfa528"/>
    <path id="Caminho_232" data-name="Caminho 232" d="M34.412,17.725a4.465,4.465,0,0,0,4.219-2.846,4.571,4.571,0,0,0-5.986-5.986,4.587,4.587,0,0,0,1.766,8.831Zm0-6.869a2.531,2.531,0,0,1,2.159,1.374,2.078,2.078,0,0,1-.491,2.453,2.136,2.136,0,0,1-2.453.491,2.256,2.256,0,0,1-1.374-2.159,2.007,2.007,0,0,1,2.159-2.159Zm0,0" transform="translate(-1.049 -0.155)" fill="#dfa528"/>
  </g>
  <g id="Grupo_101" data-name="Grupo 101" transform="translate(0 56.919)">
    <path id="Caminho_233" data-name="Caminho 233" d="M24.826,68.107H1.668A1.72,1.72,0,0,1,0,66.439V59.668A1.6,1.6,0,0,1,1.668,58H24.826a1.72,1.72,0,0,1,1.668,1.668v6.771A1.72,1.72,0,0,1,24.826,68.107ZM3.042,65.556h20.41v-5.1H3.042Z" transform="translate(0 -58)" fill="#666767"/>
  </g>
  <g id="Grupo_102" data-name="Grupo 102" transform="translate(51.026 56.919)">
    <path id="Caminho_234" data-name="Caminho 234" d="M76.924,68.107H53.668A1.72,1.72,0,0,1,52,66.439V59.668A1.6,1.6,0,0,1,53.668,58H76.826a1.72,1.72,0,0,1,1.668,1.668v6.771A1.635,1.635,0,0,1,76.924,68.107ZM55.14,65.556H75.55v-5.1H55.14Z" transform="translate(-52 -58)" fill="#666767"/>
  </g>
</svg>
