<svg id="Camada_1" data-name="Camada 1" xmlns="http://www.w3.org/2000/svg" viewBox="0 0 112 96"><title>icon-moto-02</title><path d="M94.29,73.85a7.32,7.32,0,1,0,7.32,7.32A7.31,7.31,0,0,0,94.29,73.85Zm0,11h0A3.69,3.69,0,1,1,98,81.2,3.65,3.65,0,0,1,94.34,84.89Z"/><path d="M111.44,66.92h0A22.34,22.34,0,0,0,91,59.15c-.73-4.78-5.23-11.1-9.59-16.27V27.49A1.84,1.84,0,0,0,80.72,26a1.88,1.88,0,0,0-1.58-.3l-3,.82a8.44,8.44,0,0,0-4,2.45l-1.55-7.14a1.77,1.77,0,0,0-1.78-1.42H65.65V17.81A1.8,1.8,0,0,0,63.8,16,1.82,1.82,0,0,0,62,17.81v9.13a1.82,1.82,0,0,0,3.63,0V24h1.7l2.23,10.28A7.25,7.25,0,0,0,67.71,38l-5.23,5.74a1.81,1.81,0,0,0,.12,2.57h0a1.82,1.82,0,0,0,1.21.49,1.78,1.78,0,0,0,1.33-.6l3.15-3.48A8.76,8.76,0,0,0,69.13,44a54,54,0,0,1,6.78,10.74c2,4.5,2.51,8.25,1.42,11.13-1.57,4.2-6.2,7.44-12.34,8.65-6.56,1.3-13.07-.09-16.18-3.45a5.87,5.87,0,0,1-1.88-4.48c.18-2.72,2.63-6,7.23-9.77a3.88,3.88,0,0,1,.39-.42,6.71,6.71,0,0,0-1.67-9.33,6.81,6.81,0,0,0-3.83-1.2H22.89a9.56,9.56,0,0,0-9.53,8.78,60.28,60.28,0,0,0-5.93,7.13C3.08,68,.87,73.76.87,79a1.82,1.82,0,0,0,1.81,1.82h6.2v.39A14.82,14.82,0,0,0,38,84.92H80A14.81,14.81,0,1,0,106.7,73.06l4.47-3.57a1.69,1.69,0,0,0,.66-1.24A1.73,1.73,0,0,0,111.44,66.92ZM49.08,49.5a3.08,3.08,0,0,1,2.75,1.67A3.16,3.16,0,0,1,52,53.62H38.58V49.5Zm-26.19,0h12v4.12H17.23A6,6,0,0,1,22.89,49.5Zm12,31.7a11.19,11.19,0,0,1-22.38,0v-.39h3.87v.39A7.32,7.32,0,0,0,31,81.2v-.39h3.87ZM20,81.17a2.56,2.56,0,0,1,0-.39h7.35a1.29,1.29,0,0,1,0,.39,3.71,3.71,0,1,1-7.41,0Zm15.61-4H8.94a24.32,24.32,0,0,1,3.63-6.75c4.38-5.62,10.8-8.16,19.05-7.59,3.66.24,6,1.21,6.84,2.87,1.12,2.15.18,6-2.85,11.47ZM72,81.32H38.52V81.2a14.84,14.84,0,0,0-.09-1.63C41.24,74.64,44,68.5,41.64,64c-1.51-2.81-4.78-4.42-9.77-4.78-11.95-.84-18.69,4.51-22.26,9.1a27.8,27.8,0,0,0-4.48,8.83H4.59c1-8.85,9.16-17.72,11.28-19.89H48.35c-3.14,3.2-4.78,6.2-5,9.1a9.42,9.42,0,0,0,2.85,7.2c4,4.29,11.67,6.07,19.53,4.53a26.8,26.8,0,0,0,7-2.39,21.77,21.77,0,0,0-.7,5.5v.12Zm5.15-51.26h0l.66-.18v8.89c-1.87-2-3.45-3.63-4.35-4.51A5.13,5.13,0,0,1,77.15,30.06ZM72,41.73h0a3.74,3.74,0,0,1-.78-2.81,4,4,0,0,1,.42-1.36C76.93,42.85,87,54,87.46,59.94a23.58,23.58,0,0,0-5.93,2.93C81.65,58.15,79.6,51.29,72,41.73ZM94.3,92.39A11.19,11.19,0,1,1,105.49,81.2,11.19,11.19,0,0,1,94.3,92.39Zm10.07-22.11A14.81,14.81,0,0,0,79.51,81.17v.12H75.67v-.12a18.67,18.67,0,0,1,31.75-13.31Z"/></svg>