<svg id="icon-juncao" xmlns="http://www.w3.org/2000/svg" width="74.095" height="74.094" viewBox="0 0 74.095 74.094">
  <path id="Caminho_1137" data-name="Caminho 1137" d="M225.52,225.92l-2.974-9.2-.021-.063a6.746,6.746,0,0,0-6.346-4.545H194.736a6.745,6.745,0,0,0-6.345,4.544l-3,9.289a8.717,8.717,0,0,0-2.88,1.985A8.847,8.847,0,0,0,180,234.11v15.2a5.788,5.788,0,0,0,11.53.724h27.88a5.8,5.8,0,0,0,5.741,5.065c3.03,0,5.789-2.415,5.789-5.065V233.965a8.694,8.694,0,0,0-5.42-8.045ZM194.737,217.9h21.443a.965.965,0,0,1,.872.643l2.178,6.738H191.687l2.177-6.738a.964.964,0,0,1,.873-.641Zm30.415,23.443a2.9,2.9,0,0,1-2.895,2.894H188.683a2.9,2.9,0,0,1-2.894-2.894V234.11a3.009,3.009,0,0,1,2.894-3.039h33.574a2.9,2.9,0,0,1,2.895,2.895Zm-26.194-6.657h13.169v5.788H198.958Zm22.576,2.894a2.894,2.894,0,1,1-2.895-2.894,2.895,2.895,0,0,1,2.895,2.894Zm-26.194,0a2.895,2.895,0,1,1-2.895-2.894,2.895,2.895,0,0,1,2.895,2.894Zm46.454-16.064a2.894,2.894,0,1,1,2.895-2.894,2.894,2.894,0,0,1-2.895,2.894Zm-43.56-18.958a2.894,2.894,0,1,1-2.894,2.895,2.894,2.894,0,0,1,2.894-2.895Zm-12.4,7.516a8.532,8.532,0,0,1-.043-.858v-6.659a8.847,8.847,0,0,1,2.509-6.177,8.7,8.7,0,0,1,2.916-2l2.971-8.856a6.745,6.745,0,0,1,6.34-4.529h21.443a6.745,6.745,0,0,1,6.34,4.529l.662,2.415h-6.16c-.156-.342-.49-1.158-.843-1.158H200.525a.969.969,0,0,0-.88.665l-.009.024-2.038,6.258h9.763a12.647,12.647,0,0,0-1.281,2.637l-.033.1-.988,3.057H194.471a3.009,3.009,0,0,0-2.894,3.039v4.175a12.537,12.537,0,0,0-5.746,3.341Zm68.264,4.929v16.064c0,2.65-2.759,5.065-5.789,5.065a5.8,5.8,0,0,1-5.741-5.065h-6.127a14.4,14.4,0,0,0-2.61-5.789h11.584a2.9,2.9,0,0,0,2.894-2.894v-7.381a2.9,2.9,0,0,0-2.894-2.894h-18.7a12.517,12.517,0,0,0-10.53-5.789h26.144l-2.113-6.153a.96.96,0,0,0-.876-.648H217.891a.964.964,0,0,0-.878.657l-2.105,6.288h-6.119l2.757-8.191a6.745,6.745,0,0,1,6.345-4.544h21.443a6.745,6.745,0,0,1,6.345,4.544l2.98,8.679a8.7,8.7,0,0,1,5.435,8.051Zm-23.914,6.512-1.872-5.788h6.973v5.788Zm0,0" transform="translate(-180 -181)"/>
</svg>
