<svg id="icon-variedade-deplanos-2" xmlns="http://www.w3.org/2000/svg" width="62.488" height="75.486" viewBox="0 0 62.488 75.486">
  <path id="Caminho_235" data-name="Caminho 235" d="M70.346,38.8H49.1a1.5,1.5,0,1,1,0-3H70.346a1.521,1.521,0,0,1,1.5,1.5A1.564,1.564,0,0,1,70.346,38.8Z" transform="translate(-17.856 -13.429)" fill="#666767"/>
  <path id="Caminho_236" data-name="Caminho 236" d="M73.1,50.1a1.773,1.773,0,0,1-1.062-.437A1.508,1.508,0,0,1,71.6,48.6a1.773,1.773,0,0,1,.437-1.062A1.508,1.508,0,0,1,73.1,47.1a1.63,1.63,0,0,1,1.062.437A1.508,1.508,0,0,1,74.6,48.6a1.773,1.773,0,0,1-.437,1.062A1.508,1.508,0,0,1,73.1,50.1Z" transform="translate(-26.859 -17.668)" fill="#666767"/>
  <path id="Caminho_237" data-name="Caminho 237" d="M49.1,13.1a1.773,1.773,0,0,1-1.062-.437A1.508,1.508,0,0,1,47.6,11.6a1.773,1.773,0,0,1,.437-1.062A1.508,1.508,0,0,1,49.1,10.1a1.63,1.63,0,0,1,1.062.437A1.508,1.508,0,0,1,50.6,11.6a1.773,1.773,0,0,1-.437,1.062A1.773,1.773,0,0,1,49.1,13.1Z" transform="translate(-17.856 -3.789)"/>
  <path id="Caminho_238" data-name="Caminho 238" d="M57.911,50.1H49.1a1.5,1.5,0,1,1,0-3h8.811a1.5,1.5,0,1,1,0,3Z" transform="translate(-17.856 -17.668)" fill="#666767"/>
  <path id="Caminho_239" data-name="Caminho 239" d="M70.346,64.2H49.1a1.5,1.5,0,1,1,0-3H70.346a1.5,1.5,0,1,1,0,3Z" transform="translate(-17.856 -22.957)" fill="#666767"/>
  <path id="Caminho_240" data-name="Caminho 240" d="M73.1,75.6a1.773,1.773,0,0,1-1.062-.437A1.508,1.508,0,0,1,71.6,74.1a1.63,1.63,0,0,1,.437-1.062A1.287,1.287,0,0,1,73.1,72.6a1.63,1.63,0,0,1,1.062.437A1.508,1.508,0,0,1,74.6,74.1a1.63,1.63,0,0,1-.437,1.062A1.287,1.287,0,0,1,73.1,75.6Z" transform="translate(-26.859 -27.234)" fill="#666767"/>
  <path id="Caminho_241" data-name="Caminho 241" d="M57.911,75.6H49.1a1.5,1.5,0,1,1,0-3h8.811a1.5,1.5,0,1,1,0,3Z" transform="translate(-17.856 -27.234)" fill="#666767"/>
  <path id="Caminho_242" data-name="Caminho 242" d="M70.346,89.7H49.1a1.5,1.5,0,1,1,0-3H70.346a1.5,1.5,0,1,1,0,3Z" transform="translate(-17.856 -32.523)" fill="#666767"/>
  <path id="Caminho_243" data-name="Caminho 243" d="M73.1,101a1.773,1.773,0,0,1-1.062-.437A1.508,1.508,0,0,1,71.6,99.5a1.631,1.631,0,0,1,.437-1.062A1.508,1.508,0,0,1,73.1,98a1.631,1.631,0,0,1,1.062.437A1.508,1.508,0,0,1,74.6,99.5a1.63,1.63,0,0,1-.437,1.062A1.287,1.287,0,0,1,73.1,101Z" transform="translate(-26.859 -36.762)" fill="#666767"/>
  <path id="Caminho_244" data-name="Caminho 244" d="M57.911,101H49.1a1.5,1.5,0,1,1,0-3h8.811a1.5,1.5,0,1,1,0,3Z" transform="translate(-17.856 -36.762)" fill="#666767"/>
  <path id="Caminho_245" data-name="Caminho 245" d="M55.3,5.749H44.054a8.943,8.943,0,0,0-6.249-2.5H36.493a5.864,5.864,0,0,0-10.5,0H24.683a8.943,8.943,0,0,0-6.249,2.5H7.186A7.228,7.228,0,0,0,0,12.935V68.3a7.228,7.228,0,0,0,7.186,7.186H55.3A7.228,7.228,0,0,0,62.488,68.3V12.935A7.228,7.228,0,0,0,55.3,5.749Zm-30.619.437h2.312a1.481,1.481,0,0,0,1.437-1.062,3,3,0,0,1,2.812-2.187,2.874,2.874,0,0,1,2.812,2.187,1.481,1.481,0,0,0,1.437,1.062h2.312a6.224,6.224,0,0,1,6.124,5.624H18.621A6.119,6.119,0,0,1,24.683,6.186ZM59.551,68.3A4.254,4.254,0,0,1,55.3,72.549H7.186A4.254,4.254,0,0,1,2.937,68.3V12.935A4.254,4.254,0,0,1,7.186,8.686h9.186a8.752,8.752,0,0,0-.75,3.624v.937a1.521,1.521,0,0,0,1.5,1.5H45.429a1.521,1.521,0,0,0,1.5-1.5V12.31a8.752,8.752,0,0,0-.75-3.624h9.186a4.254,4.254,0,0,1,4.249,4.249V68.3Z"/>
  <path id="Caminho_246" data-name="Caminho 246" d="M25.257,35.047l-6.311,6.311-1.937-1.937a1.458,1.458,0,1,0-2.062,2.062l3,3a1.509,1.509,0,0,0,2.125,0l7.249-7.374a1.458,1.458,0,1,0-2.062-2.062Z" transform="translate(-5.449 -12.989)" fill="#dfa528"/>
  <path id="Caminho_247" data-name="Caminho 247" d="M24.061,86.8H17a1.521,1.521,0,0,0-1.5,1.5v7.061a1.521,1.521,0,0,0,1.5,1.5h7.061a1.521,1.521,0,0,0,1.5-1.5V88.3A1.48,1.48,0,0,0,24.061,86.8Zm-1.437,7.061H18.5V89.737h4.124Z" transform="translate(-5.814 -32.56)" fill="#dfa528"/>
  <path id="Caminho_248" data-name="Caminho 248" d="M24.061,61.3H17a1.521,1.521,0,0,0-1.5,1.5v7.061a1.521,1.521,0,0,0,1.5,1.5h7.061a1.521,1.521,0,0,0,1.5-1.5V62.8A1.521,1.521,0,0,0,24.061,61.3Zm-1.437,7.061H18.5V64.237h4.124Z" transform="translate(-5.814 -22.995)" fill="#dfa528"/>
</svg>
