<svg id="icon-menor-taxa-2" xmlns="http://www.w3.org/2000/svg" width="79.466" height="81.498" viewBox="0 0 79.466 81.498">
  <g id="Grupo_97" data-name="Grupo 97">
    <path id="Caminho_221" data-name="Caminho 221" d="M67.274,58.479V40.026A2.555,2.555,0,0,0,64.748,37.5H58.487a2.555,2.555,0,0,0-2.526,2.526V56.721a21.707,21.707,0,0,0-5.327,1.373V46.671a2.555,2.555,0,0,0-2.526-2.526H41.9a2.555,2.555,0,0,0-2.526,2.526V69.187a21.536,21.536,0,0,0-1.7,7.963H34.049V73.8a1.593,1.593,0,0,0-3.185,0v3.35H25.921V55.238h4.943v4.338a1.593,1.593,0,0,0,3.185,0v-5a2.486,2.486,0,0,0-2.526-2.526H25.262a2.555,2.555,0,0,0-2.526,2.526V77.205H17.409V63.476a2.519,2.519,0,0,0-2.526-2.526H8.677a2.555,2.555,0,0,0-2.526,2.526V77.151H1.593a1.593,1.593,0,1,0,0,3.185h36.3A20.836,20.836,0,1,0,67.274,58.479Zm-3.13-17.793v16.64a21.1,21.1,0,0,0-4.943-.769V40.685ZM42.561,47.33H47.5V59.742a20.653,20.653,0,0,0-4.943,4.338ZM9.336,64.135h4.943V77.151H9.336ZM58.542,95.109A17.669,17.669,0,0,1,57.609,59.8h.934a17.656,17.656,0,1,1,0,35.312Zm0,0" transform="translate(0 -16.906)"/>
    <path id="Caminho_222" data-name="Caminho 222" d="M13.839,39.278A13.852,13.852,0,0,0,27.678,25.439a1.594,1.594,0,0,0-1.593-1.593H15.432V13.193A1.594,1.594,0,0,0,13.839,11.6a13.839,13.839,0,0,0,0,27.678ZM12.247,14.9V25.439a1.594,1.594,0,0,0,1.593,1.593H24.383A10.659,10.659,0,1,1,12.247,14.9Zm0,0" transform="translate(0 -5.23)" fill="#666767"/>
    <path id="Caminho_223" data-name="Caminho 223" d="M35.493,15.432H47.739a1.594,1.594,0,0,0,1.593-1.593A13.852,13.852,0,0,0,35.493,0,1.594,1.594,0,0,0,33.9,1.593V13.839a1.594,1.594,0,0,0,1.593,1.593ZM37.085,3.3a10.722,10.722,0,0,1,8.952,8.952H37.085Zm0,0" transform="translate(-15.283)" fill="#dfa528"/>
    <path id="Caminho_224" data-name="Caminho 224" d="M61.293,87A1.594,1.594,0,0,0,59.7,88.593h0A1.593,1.593,0,1,0,61.293,87Zm0,0" transform="translate(-26.914 -39.222)" fill="#dfa528"/>
    <g id="Grupo_96" data-name="Grupo 96" transform="translate(37.619 39.65)">
      <path id="Caminho_225" data-name="Caminho 225" d="M89.424,114.047a20.924,20.924,0,1,1,20.924-20.924A20.953,20.953,0,0,1,89.424,114.047Zm.055-38.332a17.354,17.354,0,1,0,17.354,17.354A17.391,17.391,0,0,0,89.479,75.715Z" transform="translate(-68.5 -72.2)" fill="#dfa528"/>
    </g>
  </g>
  <g id="Grupo_98" data-name="Grupo 98" transform="translate(47.339 52.501)">
    <path id="Caminho_226" data-name="Caminho 226" d="M86.42,111.8a.42.42,0,0,1-.11-.275v-6.975a.375.375,0,0,1,.384-.384h4.119a1.821,1.821,0,0,0,1.373-.549,1.7,1.7,0,0,0,.549-1.318,1.785,1.785,0,0,0-.549-1.318,1.822,1.822,0,0,0-1.373-.549h-1.7a.5.5,0,0,0-.384.165.475.475,0,0,0-.165.33v.494a.391.391,0,0,1-.165.33.5.5,0,0,1-.384.165H86.694a.391.391,0,0,1-.329-.165.475.475,0,0,1-.165-.33v-3.24a.375.375,0,0,1,.384-.384H90.7a4.452,4.452,0,0,1,2.252.6A4.183,4.183,0,0,1,94.6,100a4.452,4.452,0,0,1,.6,2.252,4.062,4.062,0,0,1-.494,1.977,5,5,0,0,1-1.263,1.538.285.285,0,0,0-.11.22v.22l2.307,5.162a.5.5,0,0,1,.055.275c0,.165-.11.22-.275.22H93.779c-.165,0-.275,0-.33-.055-.055,0-.11-.11-.165-.22L91.2,106.916l-.165-.165a3.1,3.1,0,0,0-.384-.055h-1.7a.814.814,0,0,0-.384.055c-.11.055-.11.165-.11.275v4.393a.375.375,0,0,1-.384.384H86.529C86.584,111.914,86.475,111.859,86.42,111.8Z" transform="translate(-86.2 -96.592)" fill="#dfa528"/>
    <path id="Caminho_227" data-name="Caminho 227" d="M109.165,109.22a.59.59,0,0,1-.11-.659l.659-1.153a.368.368,0,0,1,.384-.22.419.419,0,0,1,.275.11,4.209,4.209,0,0,0,.934.384c.055,0,.11.11.11.165.055.11.055.165,0,.22-.055.165-.22.714-.6,1.648-.055.11-.11.165-.22.165a.249.249,0,0,1-.275,0A4.265,4.265,0,0,1,109.165,109.22Zm3.844,3.02a.4.4,0,0,1-.11-.33v-.879a1.521,1.521,0,0,0-.055-.494,1.072,1.072,0,0,1-.055-.384q.082-.33.165-.824c.055-.33.11-.6.165-.879a.3.3,0,0,1,.165-.275.412.412,0,0,1,.275-.055h.879a2.54,2.54,0,0,0,1.373-.33.968.968,0,0,0,.494-.824,1.17,1.17,0,0,0-.384-.879,1.255,1.255,0,0,0-.659-.439,5.653,5.653,0,0,0-1.208-.275l-.659-.165a9.526,9.526,0,0,1-2.087-.879,4.192,4.192,0,0,1-1.373-1.538l-.055-.055a2.911,2.911,0,0,1-.439-1.483,3.26,3.26,0,0,1,.769-2.2,5.063,5.063,0,0,1,2.252-1.483.535.535,0,0,0,.439-.549v-.989a.781.781,0,0,1,.11-.33c.11-.11.165-.11.329-.11h1.153a.781.781,0,0,1,.33.11.475.475,0,0,1,.165.33v.879a.464.464,0,0,0,.11.329.71.71,0,0,0,.439.11,6.2,6.2,0,0,1,1.867.549,7.41,7.41,0,0,1,1.153.714.577.577,0,0,1,.275.494.415.415,0,0,1-.055.22,8.746,8.746,0,0,1-.879,1.318.428.428,0,0,1-.384.165.7.7,0,0,1-.329-.055,7.451,7.451,0,0,0-1.263-.494,4.124,4.124,0,0,0-1.318-.22,3.531,3.531,0,0,0-1.208.22,1.105,1.105,0,0,0-.6.494,1.055,1.055,0,0,0-.22.659.8.8,0,0,0,.384.714,3.355,3.355,0,0,0,.769.384c.275.11.659.22,1.1.384l.494.165c.769.275,1.373.549,1.922.769a3.132,3.132,0,0,1,1.867,1.977,4.682,4.682,0,0,1,.165,1.263,3.248,3.248,0,0,1-1.1,2.471,5.173,5.173,0,0,1-2.8,1.153q-.33.082-.33.329v.934a.781.781,0,0,1-.11.33.391.391,0,0,1-.33.165h-1.153C113.174,112.4,113.064,112.35,113.009,112.24Z" transform="translate(-96.479 -95.6)" fill="#dfa528"/>
  </g>
</svg>
