<svg id="Camada_1" data-name="Camada 1" xmlns="http://www.w3.org/2000/svg" viewBox="0 0 112 96"><title>icon-imovel-02</title><path d="M101,87.21A6.67,6.67,0,0,0,102.53,83a6.9,6.9,0,0,0-4.63-6.51h0a6.88,6.88,0,0,0-4.57-6.11V36.19l2.14,1.29A4.62,4.62,0,0,0,101.83,36a4.55,4.55,0,0,0,.52-1.17,4.63,4.63,0,0,0-2-5.18L59,4.7a4.63,4.63,0,0,0-4.89,0l-41.41,25a4.61,4.61,0,0,0,1.44,8.39,5.17,5.17,0,0,0,1,.11,4.48,4.48,0,0,0,2.41-.7l2.17-1.32V70.34a6.91,6.91,0,0,0-4.56,6.11A6.9,6.9,0,0,0,10.53,83a6.67,6.67,0,0,0,1.53,4.25,3.08,3.08,0,0,0-1.53,2.65v3.07A3.08,3.08,0,0,0,13.6,96H99.46a3.07,3.07,0,0,0,3.07-3.07h0V89.86A3.12,3.12,0,0,0,101,87.21ZM16,34.89a1.53,1.53,0,0,1-1.65-2.57l41.41-25a1.53,1.53,0,0,1,.81-.23,1.62,1.62,0,0,1,.85.25l41.38,25a1.49,1.49,0,0,1,.7,1.37,1.53,1.53,0,0,1-1.6,1.46,1.48,1.48,0,0,1-.76-.24L57.32,10.81a1.59,1.59,0,0,0-1.58,0Zm1,44.25h0l.05,0,.11,0a.72.72,0,0,0,.2-.09,1.59,1.59,0,0,0,.27-.12,1,1,0,0,0,.21-.2l.2-.21a2.1,2.1,0,0,0,.13-.26,1.11,1.11,0,0,0,.12-.57.82.82,0,0,0,0-.22s0,0,0-.07v-.09a2.28,2.28,0,0,1,0-.45A3.83,3.83,0,0,1,22,73a3.42,3.42,0,0,1,.9.12,8.45,8.45,0,0,0-.15,1.42,7.82,7.82,0,0,0,1,3.83,1.54,1.54,0,1,0,2.66-1.55,4.52,4.52,0,0,1-.63-2.3,4.09,4.09,0,0,1,.36-1.72,4.58,4.58,0,0,1,8.7.61A3.83,3.83,0,0,1,35,74.54a4.58,4.58,0,0,1-.7,2.44,1.89,1.89,0,0,0-.09.21l-.11.22v.06c0,.2,0,.4,0,.59a1.73,1.73,0,0,0,.08.27,1.69,1.69,0,0,0,.13.27,1.24,1.24,0,0,0,.18.22.77.77,0,0,0,.23.21l.06.06a1.38,1.38,0,0,0,.41.18h0a3.83,3.83,0,0,1-1,7.53H17.43A3.85,3.85,0,0,1,17,79.14ZM32,60.71H28.93v-4.6a1.53,1.53,0,0,1,1.53-1.53H32Zm0,3.07V67a7.93,7.93,0,0,0-3.07,0V63.78Zm6.13,0v6.13a1.47,1.47,0,0,1-.77,1.29h0a7.62,7.62,0,0,0-2.3-2.77V63.78Zm-3.07-3.07V54.58H36.6a1.52,1.52,0,0,1,1.53,1.53h0v4.6Zm3.07,32.22H13.61V89.86H38.13Zm33.75,0H41.2V89.84H71.88ZM47.33,86.78V54.58a3.08,3.08,0,0,1,3.07-3.07H62.68a3.08,3.08,0,0,1,3.07,3.07h0v32.2H47.33Zm25.44-.35a4.11,4.11,0,0,0,.24.39H68.77V54.58a6.12,6.12,0,0,0-6.12-6.12H50.37a6.11,6.11,0,0,0-6.13,6.11h0v32.2H40A6.85,6.85,0,0,0,41.17,83a6.76,6.76,0,0,0-2-4.86A6.83,6.83,0,0,0,37.68,77a7.77,7.77,0,0,0,.42-2.44c0-.09,0-.18,0-.27A4.63,4.63,0,0,0,41.17,70V56.15a4.61,4.61,0,0,0-4.6-4.6H30.44a4.61,4.61,0,0,0-4.6,4.6V68.44a8,8,0,0,0-1.74,1.83A6.72,6.72,0,0,0,22.77,70V34.33L56.53,13.92,90.26,34.33V70a6.72,6.72,0,0,0-1.33.29,7.3,7.3,0,0,0-1.74-1.85V56.15a4.61,4.61,0,0,0-4.6-4.6H76.46a4.6,4.6,0,0,0-4.6,4.6V70A4.59,4.59,0,0,0,75,74.28c0,.08,0,.18,0,.27A7.28,7.28,0,0,0,75.33,77,6.91,6.91,0,0,0,72.77,86.43ZM81.08,67V63.8h3.07V67a6.25,6.25,0,0,0-1.55-.18h0A6.49,6.49,0,0,0,81.08,67Zm0-6.31V54.58H82.6a1.52,1.52,0,0,1,1.53,1.53h0v4.6ZM78,63.78v4.64a7.91,7.91,0,0,0-2.3,2.8,1.54,1.54,0,0,1-.77-1.31V63.78Zm-3.07-3.07v-4.6a1.53,1.53,0,0,1,1.52-1.53H78v6.13Zm24.53,32.2H74.93V89.84H99.46Zm0-9.48a3.83,3.83,0,0,1-3.8,3.35H78.78A3.84,3.84,0,0,1,75,83a3.79,3.79,0,0,1,1.15-2.72,3.55,3.55,0,0,1,1.71-1h0a2.65,2.65,0,0,0,.42-.18l.05-.06a2.29,2.29,0,0,0,.23-.21.91.91,0,0,0,.18-.21,1.66,1.66,0,0,0,.13-.27,1.43,1.43,0,0,0,.09-.27,2.32,2.32,0,0,0,0-.59v-.07a1.51,1.51,0,0,0-.11-.22A.78.78,0,0,0,78.7,77a4.6,4.6,0,1,1,8.16-4.14,4,4,0,0,1,.34,1.67,4.51,4.51,0,0,1-.62,2.3,1.49,1.49,0,0,0,0,1.55,1.51,1.51,0,0,0,1.32.77,1.54,1.54,0,0,0,1.33-.77,7.46,7.46,0,0,0,.88-5.25A4,4,0,0,1,91,73a3.86,3.86,0,0,1,3.85,3.85h0a1.87,1.87,0,0,1,0,.47v.08s0,.06,0,.08a.91.91,0,0,0,0,.23,1,1,0,0,0,.13.57.75.75,0,0,0,.13.25,1,1,0,0,0,.19.22,1.24,1.24,0,0,0,.22.18l.29.13.19.08.11,0,.06,0A3.83,3.83,0,0,1,99.45,83.43Z"/><path d="M61.13,69.93a1.53,1.53,0,1,0,1.53,1.53h0A1.53,1.53,0,0,0,61.13,69.93Z"/><path d="M56.55,20.84a9.2,9.2,0,0,0-9.2,9.2V42.31a3,3,0,0,0,3,3.07H62.68a3.07,3.07,0,0,0,3.07-3.07h0V30A9.2,9.2,0,0,0,56.55,20.84ZM55,42.31H50.4V36.18H55Zm0-9.18H50.4V30.06A6.1,6.1,0,0,1,55,24.15Zm7.66,9.18h-4.6V36.18h4.6Zm0-9.18h-4.6v-9a6.09,6.09,0,0,1,4.6,5.91Z"/></svg>