<svg id="Logo" xmlns="http://www.w3.org/2000/svg" width="279.004" height="51.64" viewBox="0 0 279.004 51.64">
  <path id="Caminho_1" data-name="Caminho 1" d="M114.072,13H117.2a2.781,2.781,0,0,1,3.052,3.125V31.314c0,12.21-6.032,15.771-16.425,15.771S87.4,43.524,87.4,31.314V16.2a2.781,2.781,0,0,1,3.052-3.125h3.125A2.781,2.781,0,0,1,96.63,16.2V31.532c0,6.032,2.108,7.7,7.122,7.7s7.122-1.672,7.122-7.7V16.2C110.947,14.163,112.037,13,114.072,13Z" transform="translate(-23.881 -3.552)" fill="#fff"/>
  <path id="Caminho_2" data-name="Caminho 2" d="M171.833,25.309V36.574c0,7.122-3.2,9.811-10.32,9.811h-7.558c-8.14,0-13.154-2.253-13.154-10.247,0-8.067,5.015-10.247,13.154-10.247H162.6v-.581c0-3.779-2.907-5.378-7.776-5.378a45.275,45.275,0,0,0-8.648,1.09c-2.108.436-3.343-.581-3.343-2.762V17.024c0-1.89,1.017-3.125,3.2-3.561a48.431,48.431,0,0,1,10.1-1.163C165.147,12.227,171.833,16.151,171.833,25.309Zm-9.3,10.829V32.722h-8.212c-4.07,0-4.869.945-4.869,3.488,0,2.471.8,3.416,4.869,3.416h4.869C162.094,39.553,162.53,38.39,162.53,36.137Z" transform="translate(-38.472 -3.36)" fill="#fff"/>
  <path id="Caminho_3" data-name="Caminho 3" d="M226,27.971V43.16a2.781,2.781,0,0,1-3.052,3.125h-3.125a2.781,2.781,0,0,1-3.052-3.125V27.825c0-6.032-2.108-7.7-7.122-7.7s-7.122,1.672-7.122,7.7V43.16a2.781,2.781,0,0,1-3.052,3.125h-3.125A2.781,2.781,0,0,1,193.3,43.16V27.971c0-12.21,6.032-15.771,16.425-15.771C219.972,12.2,226,15.761,226,27.971Z" transform="translate(-52.817 -3.333)" fill="#fff"/>
  <path id="Caminho_4" data-name="Caminho 4" d="M266.332,17.88h-9.085V31.252c0,3.488,1.526,4.942,5.16,4.942,1.744,0,2.907-.363,4.07-.363,2.035,0,2.907.8,2.907,2.471v1.672a3.066,3.066,0,0,1-2.471,3.343C256.3,45.933,247.8,43.171,247.8,31.18V5.525A2.781,2.781,0,0,1,250.852,2.4h3.27a2.781,2.781,0,0,1,3.052,3.125V10.1h9.085a2.781,2.781,0,0,1,3.052,3.125v1.526C269.458,16.79,268.367,17.88,266.332,17.88Z" transform="translate(-67.708 -0.656)" fill="#fff"/>
  <path id="Caminho_5" data-name="Caminho 5" d="M283.3,29.57c0-11.119,5.959-17.37,16.861-17.37s16.861,6.323,16.861,17.37-5.959,17.37-16.861,17.37S283.3,40.616,283.3,29.57Zm24.347,0c0-6.614-2.471-9.448-7.486-9.448s-7.486,2.762-7.486,9.448c0,6.541,2.471,9.375,7.486,9.375S307.647,36.183,307.647,29.57Z" transform="translate(-77.408 -3.333)" fill="#fff"/>
  <path id="Caminho_6" data-name="Caminho 6" d="M337.4,29.57c0-11.119,5.959-17.37,16.861-17.37s16.934,6.323,16.934,17.37-5.959,17.37-16.934,17.37C343.359,46.939,337.4,40.616,337.4,29.57Zm24.347,0c0-6.614-2.471-9.448-7.486-9.448s-7.486,2.762-7.486,9.448c0,6.541,2.471,9.375,7.486,9.375S361.747,36.183,361.747,29.57Z" transform="translate(-92.19 -3.333)" fill="#fff"/>
  <path id="Caminho_7" data-name="Caminho 7" d="M40.335,0H14.245A14.442,14.442,0,0,0,0,14.608V29A14.442,14.442,0,0,0,14.245,43.606h9.085a.462.462,0,0,0,.436-.654L19.7,34.3a.491.491,0,0,0-.436-.291H15.771a6.716,6.716,0,0,1-6.614-6.759V15.117a6.716,6.716,0,0,1,6.614-6.759H38.882A6.716,6.716,0,0,1,45.5,15.117V27.254a6.716,6.716,0,0,1-6.614,6.759H26.091a.462.462,0,0,0-.436.654l4.215,8.939L33.5,51.382a.477.477,0,0,0,.8.073l5.669-7.7a.4.4,0,0,1,.363-.218h0A14.442,14.442,0,0,0,54.58,28.925V14.608A14.349,14.349,0,0,0,40.335,0Z" fill="#fff"/>
</svg>
