<svg id="logo-color" xmlns="http://www.w3.org/2000/svg" width="263" height="48.501" viewBox="0 0 263 48.501">
  <path id="Caminho_74" data-name="Caminho 74" d="M65.883,6.1h2.934A2.633,2.633,0,0,1,71.75,9.034V23.408c0,11.441-5.721,14.815-15.4,14.815S40.8,34.85,40.8,23.408V9.034A2.633,2.633,0,0,1,43.734,6.1h2.934A2.633,2.633,0,0,1,49.6,9.034V23.555c0,5.721,2.054,7.187,6.747,7.187S63.1,29.129,63.1,23.555V9.034A2.53,2.53,0,0,1,65.883,6.1Z" transform="translate(19.046 2.848)" fill="#f2f3ee"/>
  <path id="Caminho_75" data-name="Caminho 75" d="M94.99,18.068V28.629c0,6.747-2.934,9.241-9.681,9.241H78.121c-7.627,0-12.321-2.054-12.321-9.681s4.694-9.681,12.321-9.681h8.214v-.587c0-3.52-2.787-5.134-7.334-5.134a44.891,44.891,0,0,0-8.067,1.027c-2.2.587-3.374-.293-3.374-2.347v-1.32c0-1.76,1.027-2.934,3.08-3.374A46.868,46.868,0,0,1,80.175,5.6C88.682,5.747,94.99,9.414,94.99,18.068Zm-8.8,10.121V24.962H78.415c-3.814,0-4.547.88-4.547,3.227s.733,3.227,4.547,3.227h4.547C85.749,31.563,86.189,30.389,86.189,28.189Z" transform="translate(30.716 2.614)" fill="#f2f3ee"/>
  <path id="Caminho_76" data-name="Caminho 76" d="M121.1,20.515V34.89a2.633,2.633,0,0,1-2.934,2.934h-2.934A2.633,2.633,0,0,1,112.3,34.89V20.368c0-5.721-2.054-7.187-6.747-7.187S98.8,14.794,98.8,20.368V34.89a2.633,2.633,0,0,1-2.934,2.934H92.934A2.633,2.633,0,0,1,90,34.89V20.515C90.147,9.074,95.867,5.7,105.695,5.7S121.1,9.074,121.1,20.515Z" transform="translate(42.013 2.661)" fill="#f2f3ee"/>
  <path id="Caminho_77" data-name="Caminho 77" d="M133.2,15.768h-8.508V28.383c0,3.227,1.467,4.694,4.84,4.694,1.613,0,2.787-.293,3.814-.293,1.907,0,2.64.733,2.64,2.347v1.613a2.79,2.79,0,0,1-2.347,3.08c-9.974,2.494-18.042-.147-18.042-11.441V4.034A2.633,2.633,0,0,1,118.534,1.1h3.08a2.633,2.633,0,0,1,2.934,2.934v4.4h8.508a2.633,2.633,0,0,1,2.934,2.934v1.467C136.135,14.741,135.109,15.768,133.2,15.768Z" transform="translate(53.964 0.513)" fill="#f2f3ee"/>
  <path id="Caminho_78" data-name="Caminho 78" d="M132.2,22.128c0-10.414,5.574-16.428,15.988-16.428,10.268,0,15.988,6.014,15.988,16.428S158.6,38.557,148.188,38.557C137.921,38.41,132.2,32.543,132.2,22.128Zm23.029,0c0-6.307-2.347-8.8-7.041-8.8s-7.041,2.64-7.041,8.8,2.347,8.8,7.041,8.8S155.229,28.289,155.229,22.128Z" transform="translate(61.713 2.661)" fill="#f2f3ee"/>
  <path id="Caminho_79" data-name="Caminho 79" d="M157.5,22.128c0-10.414,5.574-16.428,15.988-16.428,10.268,0,15.988,6.014,15.988,16.428S183.9,38.557,173.488,38.557C163.221,38.41,157.5,32.543,157.5,22.128Zm23.029,0c0-6.307-2.347-8.8-7.041-8.8s-7.041,2.64-7.041,8.8,2.347,8.8,7.041,8.8S180.529,28.289,180.529,22.128Z" transform="translate(73.523 2.661)" fill="#f2f3ee"/>
  <path id="Caminho_80" data-name="Caminho 80" d="M37.991,0h-24.5A13.618,13.618,0,0,0,0,13.788V27.429A13.585,13.585,0,0,0,13.495,41.071H22c.293,0,.587-.293.44-.587L18.629,32.27c0-.147-.293-.293-.44-.293H14.962a6.354,6.354,0,0,1-6.307-6.307V14.228a6.261,6.261,0,0,1,6.307-6.307H36.67a6.354,6.354,0,0,1,6.307,6.307V25.669a6.261,6.261,0,0,1-6.307,6.307H24.5c-.293,0-.587.293-.44.587l3.96,8.361,3.374,7.334a.511.511,0,0,0,.733.147l5.427-7.187c.147-.147.147-.147.293-.147h0A13.618,13.618,0,0,0,51.339,27.283V13.788A13.4,13.4,0,0,0,37.991,0Z" fill="#f3a803"/>
</svg>
