<?xml version="1.0" encoding="utf-8"?>
<!-- Generator: Adobe Illustrator 24.0.2, SVG Export Plug-In . SVG Version: 6.00 Build 0)  -->
<svg version="1.1" id="Camada_1" xmlns="http://www.w3.org/2000/svg" xmlns:xlink="http://www.w3.org/1999/xlink" x="0px" y="0px"
	 viewBox="0 0 307.3 372" style="enable-background:new 0 0 307.3 372;" xml:space="preserve">
<style type="text/css">
	.st0{opacity:0.35;fill:#FFFFFF;enable-background:new    ;}
	.st1{fill:#E2795A;}
	.st2{fill:#B84B36;}
	.st3{fill:#EAEBFC;}
	.st4{fill:url(#Caminho_149_1_);}
	.st5{fill:url(#Caminho_150_1_);}
	.st6{fill:#C15546;}
	.st7{fill:url(#Caminho_154_1_);}
	.st8{fill:#FFFFFF;}
	.st9{fill:#5C499B;}
	.st10{fill:url(#Caminho_158_1_);}
	.st11{fill:#312C70;}
	.st12{fill:url(#Caminho_162_1_);}
	.st13{opacity:0.4;enable-background:new    ;}
	.st14{fill:#E27659;}
	.st15{fill:#EF3300;}
	.st16{fill-rule:evenodd;clip-rule:evenodd;fill:#FFFFFF;}
</style>
<g id="Grupo_70" transform="translate(0.1 -0.007)">
	<path id="Caminho_143" class="st0" d="M285.6,318c-5.7-1.8-13.8-1.6-21.6-0.9c-32.4,10.9-86.6,16.8-147.8,22.5
		c-2.8,0.8-5.8,1.3-9.3,1.9c-7.2,1.3-17.5,1.6-28.9,1.5c-25.8,2.4-52.2,4.8-78.1,7.8c17.5,10.2,77.4,16,91.7,12
		c16.5-4.6,82.3,4.6,116.3,3.6c34-1.2,36.4-18.7,25.8-23.5C223.4,337.9,300.9,322.6,285.6,318z"/>
	<g id="Grupo_69" transform="translate(28.083 0.007)">
		<g id="Grupo_60" transform="translate(70.936 61.897)">
			<path id="Caminho_144" class="st1" d="M79,12.7c0,0-3.6-17.1-25.9-11.7s-39.9,37.2-45,53.7S1.8,104,2.4,108.8
				c-1.9,1.8-2.8,4.5-2.2,7c0.6,4.6,3.6,7,5.8,5.8c2.4-1.2,5.8-5.8,5.8-8.8s-0.6-8.2-0.6-8.2s14.5-35.8,23.2-45.9
				c8.8-10,31.6-24.3,36.9-28.9C76.7,25,82,19.2,79,12.7z"/>
			<path id="Caminho_145" class="st2" d="M2.4,108.8c-3.3,3.6-3,9.3,0.6,12.6c-1.6-4.3,0.3-8.8,1.9-12c1.8-3.6,1-41.1,18-71.8
				c14.2-25.8,44.2-30,53.5-30.6c-3.1-4.3-9.9-9.1-23.1-5.8C31,6.6,13.5,38.4,8.4,54.9S1.8,104.2,2.4,108.8z"/>
		</g>
		<g id="Grupo_63" transform="translate(63.56)">
			<path id="Caminho_146" class="st1" d="M81,314.6l-8.5,18.9L59.8,329l4.3-16.5L81,314.6z"/>
			<path id="Caminho_147" class="st1" d="M173.3,277.3l10.8,17.5l-10.6,7.9l-11.2-12.7L173.3,277.3z"/>
			<path id="Caminho_148" class="st3" d="M57.6,328.7c0.3-1.6,1.6-2.9,3.3-3c4-0.5,11.2-0.5,14.1,4.8c2.7,3.9,1.5,7,3.1,9.7
				c1.5,2.7,5.5,5.1,8.5,5.5c3.1,0.4,10.6,3.6,10.6,5.5s-17.7,2.7-25.8,1.9c-8.2-0.8-16.8-3.1-17.2-5.5
				C54,345.8,56.4,334.1,57.6,328.7z"/>
			
				<linearGradient id="Caminho_149_1_" gradientUnits="userSpaceOnUse" x1="-890.3286" y1="721.2404" x2="-889.3286" y2="721.2404" gradientTransform="matrix(125.4976 0 0 -157.553 111785.6094 113848.1875)">
				<stop  offset="0" style="stop-color:#004B6A"/>
				<stop  offset="8.700000e-02" style="stop-color:#008098"/>
				<stop  offset="1" style="stop-color:#00ACBF"/>
			</linearGradient>
			<path id="Caminho_149" class="st4" d="M57.1,136.4c0,0-11.7,15.9-1.2,30.6c10.6,14.7,35.8,28.2,41.7,34.6
				c5.8,6.4,10.8,37.5,24.3,49.8s31.3,24.9,42,42c0,0,9-3,13.2-10.6c0,0-37-70.5-55.2-97.6c-18.3-27-31.2-49.3-31.2-49.3L57.1,136.4
				z"/>
			
				<linearGradient id="Caminho_150_1_" gradientUnits="userSpaceOnUse" x1="-883.0432" y1="721.4943" x2="-882.0432" y2="721.4943" gradientTransform="matrix(58.764 0 0 -177.492 51952.9609 128291.0625)">
				<stop  offset="0" style="stop-color:#004B6A"/>
				<stop  offset="8.700000e-02" style="stop-color:#008098"/>
				<stop  offset="1" style="stop-color:#00ACBF"/>
			</linearGradient>
			<path id="Caminho_150" class="st5" d="M120.5,148.1c0,0-11.7,126.4-42.3,172.2l-16.5-4.6c0,0,3-16.5,4-26.4
				c1.2-10,3-37.6,8.8-54.1s8.2-19.3,10-24.7c1.8-5.2-3-24.7-5.2-30c-2.4-5.2-11.1-15.3-7-37.6L120.5,148.1z"/>
			<path id="Caminho_151" class="st3" d="M170.3,299.1c4.9-0.5,9.3-3.5,11.4-7.9c2.1-2.4,4.9,3.3,7.9,3c3-0.3,12.6-10,15.9-9.7
				c3.3,0.3-4.9,16.5-10.9,20.5c-5.8,4-12,10.6-14.4,10.9C177.9,316.1,169.1,302.1,170.3,299.1z"/>
			<path id="Caminho_152" class="st6" d="M96.8,40c0,0-4.3,4.3-0.6,10.6l-17.7-2.1l9.1-9.4L96.8,40z"/>
			<g id="Grupo_61" transform="translate(77.173 8.305)">
				<path id="Caminho_153" class="st1" d="M22.8,8.9l3.7,15.6c0.9,4-1.5,8.1-5.5,9.1l-3.7,0.9c-1.9,0.5-4,0.1-5.7-0.9l-5.1-3.1
					c-1.7-1-2.9-2.7-3.4-4.6L0.3,14.3C-1.1,8.2,2.6,2,8.7,0.4l0,0c6.2-1.6,12.5,2.2,14.1,8.4C22.8,8.8,22.8,8.9,22.8,8.9z"/>
			</g>
			
				<linearGradient id="Caminho_154_1_" gradientUnits="userSpaceOnUse" x1="-886.3104" y1="720.0916" x2="-885.3114" y2="720.0916" gradientTransform="matrix(77.1766 0 0 -104.4484 68452.8984 75312.0547)">
				<stop  offset="0" style="stop-color:#FBB03B"/>
				<stop  offset="1" style="stop-color:#D67E3C"/>
			</linearGradient>
			<path id="Caminho_154" class="st7" d="M72.1,49.5c0.8-0.4,1.7-0.7,2.5-0.9c5.8-1.6,21.4-3.7,40.2,12.1
				c20.2,18,11.5,72.7,5.7,87.4c-6.7,9.7-60.1-1.9-67.6-5.7c0,0,0.8-2.5,1.5-14.5s1.8-4.9-3.4-37.2C45.9,58.5,72.1,49.5,72.1,49.5z"
				/>
			<g id="Grupo_62" transform="translate(67.759 91.133)">
				<path id="Caminho_155" class="st8" d="M24,56.8c0,0-1.2,18.7,4.6,22.8c5.8,3.9,27,0,31.3-3.9S58,53.8,54.9,52.6
					C51.9,51.3,24.9,53.7,24,56.8z"/>
				<path id="Caminho_156" class="st8" d="M3.7,0c0,0,13.6,46.2,22.8,57.3L25,61.6c0,0-14.5-21.1-25-59.2L3.7,0z"/>
				<path id="Caminho_157" class="st9" d="M42,59.8c0,0,8.7-2.2,9.4-0.2S38.7,64.9,42,59.8z"/>
			</g>
			
				<linearGradient id="Caminho_158_1_" gradientUnits="userSpaceOnUse" x1="-888.7319" y1="720.727" x2="-887.7329" y2="720.727" gradientTransform="matrix(100.5107 0 0 -128.3804 89327.2266 92591.375)">
				<stop  offset="0" style="stop-color:#330055"/>
				<stop  offset="0.989" style="stop-color:#6200AA"/>
			</linearGradient>
			<path id="Caminho_158" class="st10" d="M76.3,7c0,0,12.3-11.8,21.7-4.8c7,7-3.4,13.5-1.2,17.7c2.4,4,5.2,8.2,2.4,15.3
				s-10.5,5.2-8.8,13.5c1.8,8.2,7.2,36.4-12.3,41.8c-19.3,5.4-8.7,28.2-25.8,34.8C35.2,131.8,0,130.7,0,95.5
				c-0.2-35.2,27.6-22.3,39.9-34.2s5.2-19.9,9.9-27.6s16.5-7,19.5-15.3C72.3,10.2,73.5,8.2,76.3,7z"/>
		</g>
		<g id="Grupo_64" transform="translate(157.249 58.493)">
			<path id="Caminho_159" class="st1" d="M12.7,0.9c0,0-17.1,3.6-11.7,25.8s37,40,53.5,45.3s49.3,6.4,54.1,5.8
				c1.8,1.9,4.4,2.8,7,2.4c4.6-0.6,7-3.6,5.8-5.8c-1.2-2.4-5.8-5.8-8.8-5.8s-8.2,0.6-8.2,0.6S68.7,54.4,58.6,45.5
				s-24.1-31.8-28.8-37S19.3-2.1,12.7,0.9z"/>
			<path id="Caminho_160" class="st2" d="M108.5,77.9c1.8,1.9,4.4,2.8,7,2.4c2.2-0.1,4.2-1.1,5.5-2.8c-4.3,1.6-8.8-0.3-12-1.9
				c-3.6-1.8-41.1-1.2-71.7-18.3C11.8,42.8,7.6,12.9,7.1,3.6c-4.3,3.1-9.1,9.7-6,23.1c5.2,22.3,37,40,53.5,45.3
				C70.9,77.3,103.9,78.4,108.5,77.9z"/>
		</g>
		<g id="Grupo_67" transform="translate(0 175.532)">
			<g id="Grupo_66">
				<path id="Caminho_161" class="st11" d="M83.6,47.2l8.8-39.9c0.2-1.1-0.5-2.3-1.6-2.5c-0.2,0-0.3-0.1-0.5,0L62.2,4.2
					c-0.9,0-1.7,0.5-2.1,1.3L45.7,43c-0.3,0.8-1.1,1.3-1.9,1.3l0,0c-1.2,0.1-2.2-0.8-2.2-2c0-0.3,0-0.6,0.1-0.9L57,1.3
					c0.3-0.9,1.2-1.4,2.1-1.3l36.9,1.2c1.2,0.1,2.2,1.1,2.1,2.4c0,0.1,0,0.1,0,0.2l-9.4,44.7c-0.3,1.2-1.5,1.9-2.7,1.6c0,0,0,0,0,0
					l-0.8-0.1C84.1,49.5,83.4,48.4,83.6,47.2z"/>
				<g id="Grupo_65" transform="translate(0 41.015)">
					
						<linearGradient id="Caminho_162_1_" gradientUnits="userSpaceOnUse" x1="-824.9908" y1="504.1623" x2="-823.9918" y2="504.1623" gradientTransform="matrix(98.2639 0 0 -127.5653 81066.8438 64377.375)">
						<stop  offset="0" style="stop-color:#BE6121"/>
						<stop  offset="1" style="stop-color:#A03A20"/>
					</linearGradient>
					<path id="Caminho_162" class="st12" d="M28.3,0.8c0,0,39.3-2.2,51.6,0.8s16.9,13.5,18.3,17.2s-16.3,98.8-20.4,103.3
						s-19,5.8-27,5.4s-42.3-1.9-49.2-6.6C-5.4,116.2,11.4,4.7,28.3,0.8z"/>
					<path id="Caminho_163" class="st13" d="M79.9,1.6c9.3,4.2-9.6,109.3-15.1,114.8c-4.5,4.3-46.2,0-64.3,0.9
						c0.3,1.9,0.7,3.1,1.3,3.6c6.9,4.5,41.2,6.1,49.2,6.6s22.8-0.8,27-5.4c4-4.5,21.7-99.5,20.4-103.3C96.7,15.1,92.2,4.6,79.9,1.6z
						"/>
					<path id="Caminho_164" class="st11" d="M62.4,131.4c0.5,3.9-2.1,7.4-6,7.9c-3.9,0.5-7.4-2.1-7.9-6c-0.5-3.8,2.1-7.4,6-7.9
						c3.8-0.6,7.4,2.1,7.9,5.9C62.3,131.3,62.4,131.3,62.4,131.4z"/>
					<path id="Caminho_165" class="st11" d="M17.5,128.1c0.5,3.9-2.1,7.4-6,7.9c-3.9,0.5-7.4-2.1-7.9-6c-0.5-3.8,2.1-7.4,6-7.9
						c3.8-0.6,7.3,1.9,7.9,5.7C17.5,127.9,17.5,128,17.5,128.1z"/>
				</g>
			</g>
			<path id="Caminho_166" class="st14" d="M13.8,57.9c0,0,51.9-2.5,55.8,0c3.9,2.4-4.5,48.1-8.4,49.8c-3.9,1.8-56.8,0.8-57.7-1.5
				C2.4,104,9.6,62.1,13.8,57.9z"/>
			<path id="Caminho_167" class="st14" d="M16.3,116.3c0,0,31.8-1.5,34.2,0s-2.8,29.5-5.2,30.6s-34.9,0.4-35.5-0.9
				C9.4,144.7,13.8,118.9,16.3,116.3z"/>
			<path id="Caminho_168" class="st15" d="M23.8,71.1c0,0,14.5-6.7,24.9,0.9l-0.3,2.5l-25-1L23.8,71.1z"/>
		</g>
		<g id="Grupo_68" transform="translate(136.481 4.539)">
			<path id="Caminho_169" class="st8" d="M0.1,4c0,0,12.3-2.4,18.3,2.7c6,5.1,7.3,15,7.3,15l2.4-3c0,0-2.4-11.1-7.3-15.9
				C15.8-1.9,6.4,0.7,4.3,0.7S-0.5,3.4,0.1,4z"/>
			<path id="Caminho_170" class="st8" d="M32.8,21.2c0.5,2.9-1.5,5.5-4.3,6c-2.8,0.5-3.3-1.6-3.7-4.5s-0.8-5.4,2.1-5.8
				c2.8-0.5,5.5,1.4,6,4.2C32.8,21.1,32.8,21.2,32.8,21.2z"/>
		</g>
	</g>
	<path id="Caminho_210" class="st16" d="M82,52.5c0-1.2,0.4-2.4,1.3-3.3l0,0c1.8-1.8,4.7-1.8,6.5,0l0,0c0.8,0.9,1.3,2,1.3,3.3
		c0,2.5-2.1,4.6-4.6,4.6c-1.2,0-2.4-0.5-3.2-1.3C82.4,54.9,82,53.7,82,52.5z M84.5,50.5c-0.6,0.5-0.9,1.3-0.9,2.1
		c-0.1,0.8,0.3,1.6,0.9,2.1c0.5,0.6,1.3,0.9,2.1,0.9c0.8,0.1,1.6-0.3,2.1-0.9c1.1-1.1,1.2-2.9,0.1-4c0,0-0.1-0.1-0.1-0.1l0,0
		C87.5,49.3,85.7,49.3,84.5,50.5C84.5,50.4,84.5,50.4,84.5,50.5L84.5,50.5z"/>
	<path id="Caminho_211" class="st16" d="M233.2,174.2c-0.5,0-0.9-0.3-0.9-0.8c0,0,0,0,0-0.1c0-0.5,0.3-0.9,0.8-0.9c0,0,0,0,0.1,0
		h2.7v-2.5c0-0.5,0.4-0.9,0.9-0.9c0.5,0,0.9,0.4,0.9,0.9v2.7h2.7c0.5,0,0.9,0.3,0.9,0.8c0,0,0,0,0,0.1c0,0.5-0.3,0.9-0.8,0.9
		c0,0,0,0-0.1,0h-2.7v2.7c0,0.5-0.4,0.9-0.9,0.9c-0.5,0-0.9-0.4-0.9-0.9v-2.8H233.2z"/>
	<path id="Caminho_212" class="st16" d="M152.8,234c-0.9,0.8-2.2,1.1-3.4,1l0,0c-2.5-0.3-4.3-2.6-4-5.1l0,0c0.2-1.2,0.8-2.3,1.7-3.1
		c2-1.6,4.9-1.2,6.5,0.8c0.7,1,1.1,2.2,0.9,3.4C154.4,232.2,153.8,233.3,152.8,234z M149.7,233.3c0.8,0.1,1.6-0.1,2.2-0.6
		c0.7-0.4,1.1-1.2,1.1-2c0.1-0.8-0.1-1.6-0.6-2.2c-0.4-0.7-1.2-1.1-2-1.1c-1.6-0.2-3,0.9-3.2,2.4c0,0,0,0.1,0,0.1l0,0
		c-0.2,1.6,0.9,3,2.4,3.2C149.6,233.3,149.6,233.3,149.7,233.3L149.7,233.3z"/>
	<path id="Caminho_213" class="st16" d="M54.6,183.6c0.3,0.4,0.3,0.9-0.1,1.2c0,0,0,0-0.1,0c-0.4,0.3-0.9,0.3-1.2-0.1c0,0,0,0,0-0.1
		l-1.6-2.1l-2,1.6c-0.4,0.3-0.9,0.2-1.2-0.2c-0.3-0.4-0.2-0.9,0.2-1.2l2.1-1.6l-1.6-2.1c-0.3-0.4-0.3-0.9,0.1-1.2c0,0,0,0,0.1,0
		c0.4-0.3,0.9-0.3,1.2,0.1c0,0,0,0,0,0.1L52,180l2.1-1.6c0.4-0.3,0.9-0.2,1.2,0.2c0.3,0.4,0.2,0.9-0.2,1.2l-2.2,1.7L54.6,183.6z"/>
	<path id="Caminho_214" class="st16" d="M270.2,44.2c-0.5,0-0.9-0.3-0.9-0.8c0,0,0,0,0-0.1c0-0.5,0.3-0.9,0.8-0.9c0,0,0,0,0.1,0h2.7
		v-2.5c0-0.5,0.4-0.9,0.9-0.9c0.5,0,0.9,0.4,0.9,0.9v2.7h2.7c0.5,0,0.9,0.3,0.9,0.8c0,0,0,0,0,0.1c0,0.5-0.3,0.9-0.8,0.9
		c0,0,0,0-0.1,0h-2.7V47c0,0.5-0.4,0.9-0.9,0.9s-0.9-0.4-0.9-0.9v-2.8H270.2z"/>
</g>
</svg>
