<?xml version="1.0" encoding="utf-8"?>
<!-- Generator: Adobe Illustrator 24.0.2, SVG Export Plug-In . SVG Version: 6.00 Build 0)  -->
<svg version="1.1" id="Camada_1" xmlns="http://www.w3.org/2000/svg" xmlns:xlink="http://www.w3.org/1999/xlink" x="0px" y="0px"
	 viewBox="0 0 212 372" style="enable-background:new 0 0 212 372;" xml:space="preserve">
<style type="text/css">
	.st0{opacity:0.66;fill-rule:evenodd;clip-rule:evenodd;fill:#B7B7B7;enable-background:new    ;}
	.st1{fill:#EBBA9A;}
	.st2{fill:url(#Caminho_174_1_);}
	.st3{fill:url(#Caminho_176_1_);}
	.st4{fill:url(#Caminho_177_1_);}
	.st5{fill:none;stroke:#3459A5;stroke-width:0.75;stroke-miterlimit:10;}
	.st6{fill:url(#Caminho_178_1_);}
	.st7{fill:url(#Caminho_179_1_);}
	.st8{fill:url(#Caminho_180_1_);}
	.st9{fill:url(#Caminho_182_1_);}
	.st10{fill:url(#Caminho_183_1_);}
	.st11{fill:none;stroke:#DCA686;stroke-width:0.482;stroke-miterlimit:10;}
	.st12{fill:#121314;}
	.st13{fill:url(#Caminho_189_1_);}
	.st14{fill:#DCA686;}
	.st15{fill:url(#Caminho_194_1_);}
	.st16{fill:url(#Caminho_195_1_);}
	.st17{fill:url(#Caminho_196_1_);}
	.st18{fill:#D19B7E;}
	.st19{fill:url(#Caminho_199_1_);}
	.st20{fill:url(#Caminho_201_1_);}
	.st21{fill:url(#Caminho_202_1_);}
	.st22{fill:url(#Caminho_203_1_);}
	.st23{fill-rule:evenodd;clip-rule:evenodd;fill:#FFFFFF;}
</style>
<g id="Grupo_94" transform="translate(0 0.011)">
	<path id="Caminho_172" class="st0" d="M6.4,334.7h184.8c3.4,0.1,6.1,2.8,6.1,6.2l0,0c0,3.4-2.7,6.2-6.1,6.2h-22.5
		c-3.9,0.1-7.1,3.3-7.1,7.3l0,0c-0.1,3.7,2.7,6.8,6.4,7.1h12.1c2.1,0,3.8,2.3,3.8,5l0,0c0,2.8-1.7,5-3.8,5H32
		c-4.5,0-8.2-3.7-8.1-8.2c0,0,0-0.1,0-0.1l0,0c0-4.5,3.6-8.2,8.1-8.3h9.2c1.9,0,3.5-1.6,3.5-3.6c0,0,0,0,0-0.1l0,0
		c0-1.9-1.5-3.5-3.5-3.6H6.4c-3.6-0.1-6.4-3-6.4-6.6l0,0C0.1,337.6,2.9,334.8,6.4,334.7z M205.4,347L205.4,347c3.3,0,6-2.7,6.1-6.1
		v-0.2c0-3.3-2.7-6-6.1-6.1l0,0c-3.3,0-6,2.7-6.1,6.1v0.2C199.3,344.3,202,347,205.4,347z M11.4,354.8c-4.3,0.1-7.8,3.6-7.8,8v0.5
		c0,4.3,3.4,7.9,7.8,8l0,0c4.3-0.1,7.8-3.6,7.8-8v-0.5C19.3,358.4,15.8,354.9,11.4,354.8z"/>
	<g id="Grupo_93" transform="translate(35.67 -0.011)">
		<g id="Grupo_78" transform="translate(12.814 149.799)">
			<g id="Grupo_73" transform="translate(54.717 153.243)">
				<path id="Caminho_173" class="st1" d="M19.9,1.2l-2.3,32.7L2.4,33.4L2.9,0L19.9,1.2z"/>
				<g id="Grupo_72" transform="translate(0 30.129)">
					<g id="Grupo_71">
						
							<linearGradient id="Caminho_174_1_" gradientUnits="userSpaceOnUse" x1="-938.6521" y1="373.3415" x2="-937.6471" y2="373.3415" gradientTransform="matrix(48.6015 0 0 -17.661 45619.8125 6602.4185)">
							<stop  offset="0" style="stop-color:#FBB03B"/>
							<stop  offset="1" style="stop-color:#D67E3C"/>
						</linearGradient>
						<path id="Caminho_174" class="st2" d="M18.7,0.2l27.5,12.6c1.8,0.9,2.7,2.9,2.3,4.8H0L1.7,0L18.7,0.2z"/>
					</g>
				</g>
			</g>
			<g id="Grupo_76" transform="translate(5.368 153.243)">
				<path id="Caminho_175" class="st1" d="M19.9,1.2l-2.3,32.7L2.4,33.4L2.9,0L19.9,1.2z"/>
				<g id="Grupo_75" transform="translate(0 30.129)">
					<g id="Grupo_74">
						
							<linearGradient id="Caminho_176_1_" gradientUnits="userSpaceOnUse" x1="-889.3021" y1="373.3415" x2="-888.2981" y2="373.3415" gradientTransform="matrix(48.6015 0 0 -17.661 43221.375 6602.4185)">
							<stop  offset="0" style="stop-color:#FBB03B"/>
							<stop  offset="1" style="stop-color:#D67E3C"/>
						</linearGradient>
						<path id="Caminho_176" class="st3" d="M18.7,0.2l27.5,12.6c1.8,0.9,2.7,2.9,2.3,4.8H0L1.7,0L18.7,0.2z"/>
					</g>
				</g>
			</g>
			<g id="Grupo_77">
				
					<linearGradient id="Caminho_177_1_" gradientUnits="userSpaceOnUse" x1="-891.7484" y1="574.6208" x2="-890.7473" y2="574.6208" gradientTransform="matrix(87.616 0 0 -169.692 78131.4219 97593.4063)">
					<stop  offset="0" style="stop-color:#0090D4"/>
					<stop  offset="1" style="stop-color:#003FAA"/>
				</linearGradient>
				<path id="Caminho_177" class="st4" d="M65.8,0L7.6,4.3L0,167.6h31.9L42.1,44.5l13.9,52.6l-4.7,72.6h27l9.3-80.2L65.8,0z"/>
				<line id="Linha_1" class="st5" x1="55.1" y1="37.4" x2="42.1" y2="44.5"/>
			</g>
		</g>
		<g id="Grupo_89" transform="translate(0 63.394)">
			<g id="Grupo_79" transform="translate(77.401 9.35)">
				
					<linearGradient id="Caminho_178_1_" gradientUnits="userSpaceOnUse" x1="-873.1122" y1="633.1597" x2="-872.1213" y2="633.1597" gradientTransform="matrix(9.177 0 0 -17.139 8012.6353 10886.4395)">
					<stop  offset="0" style="stop-color:#BE6121"/>
					<stop  offset="1" style="stop-color:#A03A20"/>
				</linearGradient>
				<path id="Caminho_178" class="st6" d="M0.5,27.2L0,43.3h9.2L8.5,26.1L0.5,27.2z"/>
				
					<linearGradient id="Caminho_179_1_" gradientUnits="userSpaceOnUse" x1="-903.8519" y1="643.9548" x2="-902.8499" y2="643.9548" gradientTransform="matrix(13.7092 0 0 -36.016 12391.0439 23210.6836)">
					<stop  offset="0" style="stop-color:#BE6121"/>
					<stop  offset="1" style="stop-color:#A03A20"/>
				</linearGradient>
				<path id="Caminho_179" class="st7" d="M1,0c0,0,14.5,8.7,12.5,36L0,32.9L1,0z"/>
			</g>
			<g id="Grupo_80" transform="translate(19.74)">
				
					<linearGradient id="Caminho_180_1_" gradientUnits="userSpaceOnUse" x1="-894.7281" y1="659.5042" x2="-893.7261" y2="659.5042" gradientTransform="matrix(62.336 0 0 -98.007 55773.6445 64685.0313)">
					<stop  offset="0" style="stop-color:#BE6121"/>
					<stop  offset="1" style="stop-color:#A03A20"/>
				</linearGradient>
				<path id="Caminho_180" class="st8" d="M31.2,0C16.6,0,0,5,0,5l0.7,93l61.6-4.7l-0.7-81.4c0-1.4-0.8-2.7-2.1-3.5L42.4,1.2
					C42.4,1.2,34.1,0,31.2,0z"/>
			</g>
			<g id="Grupo_86" transform="translate(0 5.252)">
				<g id="Grupo_82">
					<path id="Caminho_181" class="st1" d="M25.3,31.5l-4,46.1c0,0-4.3,9.2-12.1-0.3c-7.8-9.7-1-47.3-1-47.3L25.3,31.5z"/>
					<g id="Grupo_81">
						
							<linearGradient id="Caminho_182_1_" gradientUnits="userSpaceOnUse" x1="-858.778" y1="650.2091" x2="-857.778" y2="650.2091" gradientTransform="matrix(28.5323 0 0 -46.1747 24502.7734 30046.3008)">
							<stop  offset="0" style="stop-color:#BE6121"/>
							<stop  offset="1" style="stop-color:#A03A20"/>
						</linearGradient>
						<path id="Caminho_182" class="st9" d="M27.4,41.2c0,0,5-39.1-5.7-41C10.6-2,0,24.4,0,46.2L27.4,41.2z"/>
						
							<linearGradient id="Caminho_183_1_" gradientUnits="userSpaceOnUse" x1="-718.8044" y1="639.9716" x2="-717.8224" y2="639.9716" gradientTransform="matrix(5.022 0 0 -19.74 3634.1455 12664.6689)">
							<stop  offset="0" style="stop-color:#BE6121"/>
							<stop  offset="1" style="stop-color:#A03A20"/>
						</linearGradient>
						<path id="Caminho_183" class="st10" d="M24.2,41.5l4.2-1.4l0.9-18.4"/>
					</g>
				</g>
				<g id="Grupo_85" transform="translate(15.93 25.49)">
					<g id="Grupo_83" transform="translate(34.921)">
						<path id="Caminho_184" class="st1" d="M0.8,8.9c0,0,2.3-8.1,10.4-8.8c8.1-0.9,10.6,5.5,9,9.9c-1.6,4.2-6.8,11.1-14.9,7.6
							C-2.7,13.9,0.8,8.9,0.8,8.9z"/>
						<path id="Caminho_185" class="st1" d="M13.7,0.1c0,0,8,0.9,13.9,3.8c0.5,0.4,0.8,0.9,0.9,1.6l0,0c-0.2,0.9-1,1.5-1.9,1.4
							L15.6,4.8L13.7,0.1z"/>
					</g>
					<g id="Grupo_84" transform="translate(0 8.91)">
						<path id="Caminho_186" class="st1" d="M3.6,45.5L40.2,8.5L35.7,0L0,22.7L3.6,45.5z"/>
						<line id="Linha_2" class="st11" x1="7.4" y1="18" x2="0" y2="22.7"/>
					</g>
				</g>
			</g>
			<g id="Grupo_88" transform="translate(42.056 39.586)">
				<g id="Grupo_87">
					<path id="Caminho_187" class="st12" d="M59.6,9.4L44.2,55.1c-0.5,1.6-2.2,2.6-3.8,2.3L3,52.5c-1.8-0.2-3.2-1.9-3-3.7
						c0-0.3,0.1-0.5,0.2-0.8L16.1,2.3c0.5-1.6,2.2-2.6,3.8-2.3L57,4.9c1.9,0.3,3.1,2.1,2.7,4C59.7,9.1,59.6,9.2,59.6,9.4z"/>
					<path id="Caminho_188" class="st12" d="M58.9,6l1.9,2.6l-58.2,45l-2.3-2.8L58.9,6z"/>
					
						<linearGradient id="Caminho_189_1_" gradientUnits="userSpaceOnUse" x1="-916.4602" y1="617.3746" x2="-915.4602" y2="617.3746" gradientTransform="matrix(59.7933 0 0 -57.441 54799.875 35493.5625)">
						<stop  offset="0" style="stop-color:#2E2E30"/>
						<stop  offset="1" style="stop-color:#666665"/>
					</linearGradient>
					<path id="Caminho_189" class="st13" d="M61.3,11.7L45.9,57.4c-0.5,1.6-2.2,2.6-3.8,2.3L4.7,54.8c-1.8-0.2-3.2-1.9-3-3.7
						c0-0.3,0.1-0.5,0.2-0.8L17.9,4.6C18.4,3,20,2,21.7,2.3l37.1,4.8c1.9,0.3,3.1,2.1,2.7,4C61.4,11.3,61.4,11.5,61.3,11.7z"/>
				</g>
				<path id="Caminho_190" class="st1" d="M59.6,25l-3.5,9.5c-0.4,1.2-1.5,1.9-2.8,1.7l0,0c-3.6-0.7-6.1-4.2-4.8-7.6l1-3.1
					c0.8-2.5,3.2-4.2,5.9-4.2l1.9,0.2c1.4,0.1,2.5,1.2,2.4,2.6C59.7,24.5,59.7,24.7,59.6,25z"/>
			</g>
		</g>
		<g id="Grupo_92" transform="translate(31.133)">
			<path id="Caminho_191" class="st1" d="M31.4,49.9L29.5,65c-0.7,5.2-4.2,7.6-9.2,7.1l0,0c-4.3-0.5-8.7-3.3-8-7.8l2.2-23.5
				L31.4,49.9z"/>
			<path id="Caminho_192" class="st14" d="M29.8,63.7c0,0-17-6.1-15.4-21.3c0.3-4.5,17.3,6.8,17.3,6.8L29.8,63.7z"/>
			<path id="Caminho_193" class="st1" d="M33.3,66.7L26,63.2l-12.8,0.3l-7.6,1c0,0-2.8,11.3,16.3,11.9
				C37.3,77.1,33.3,66.7,33.3,66.7z"/>
			<g id="Grupo_91">
				
					<linearGradient id="Caminho_194_1_" gradientUnits="userSpaceOnUse" x1="-878.4927" y1="712.9117" x2="-877.4927" y2="712.9117" gradientTransform="matrix(20.6466 0 0 -25.9783 18168.5156 18537.7148)">
					<stop  offset="0" style="stop-color:#FBB03B"/>
					<stop  offset="1" style="stop-color:#D67E3C"/>
				</linearGradient>
				<path id="Caminho_194" class="st15" d="M41.6,30.5c0,0,14.7-10.9,8-21.1C42.8-0.7,30.7,8,30.7,8L41.6,30.5z"/>
				
					<linearGradient id="Caminho_195_1_" gradientUnits="userSpaceOnUse" x1="-889.1395" y1="713.215" x2="-888.1415" y2="713.215" gradientTransform="matrix(27.8181 0 0 -26.5713 24736.1816 18969.2695)">
					<stop  offset="0" style="stop-color:#FBB03B"/>
					<stop  offset="1" style="stop-color:#D67E3C"/>
				</linearGradient>
				<path id="Caminho_195" class="st16" d="M29.8,5.4c0,0-41.4-5.9-23.2,26.1l4.7-13L29.8,5.4z"/>
				
					<linearGradient id="Caminho_196_1_" gradientUnits="userSpaceOnUse" x1="-790.6829" y1="707.4478" x2="-789.6709" y2="707.4478" gradientTransform="matrix(6.6057 0 0 -18.528 5261.2813 13130.9014)">
					<stop  offset="0" style="stop-color:#FBB03B"/>
					<stop  offset="1" style="stop-color:#D67E3C"/>
				</linearGradient>
				<path id="Caminho_196" class="st17" d="M42.3,14c0,0,6.9,5.7-1.7,18.5l-2.3-16.3L42.3,14z"/>
				<path id="Caminho_197" class="st18" d="M34.5,36.4c-0.4,3.4,2,6.5,5.4,7.1c3.4,0.3,6.4-2.1,6.8-5.5c0.4-3.4-2-6.5-5.4-7.1
					C38,30.3,35,32.7,34.5,36.4z"/>
				<path id="Caminho_198" class="st1" d="M25.1,55.3L25.1,55.3c8.7,0.5,16.1-6.2,16.8-13.5l1.2-15.2c0.8-8.9-5.5-17-14.4-18.4l0,0
					c-9-1-18.7,5.4-19.9,14.7L8,34.8C7.1,45.4,14.8,53.9,25.1,55.3z"/>
				
					<linearGradient id="Caminho_199_1_" gradientUnits="userSpaceOnUse" x1="-897.4152" y1="714.8499" x2="-896.4172" y2="714.8499" gradientTransform="matrix(38.1012 0 0 -30.3 34197.6289 21680.3125)">
					<stop  offset="0" style="stop-color:#FBB03B"/>
					<stop  offset="1" style="stop-color:#D67E3C"/>
				</linearGradient>
				<path id="Caminho_199" class="st19" d="M43.2,22.7c0,0,0.5-4-7.3-5s-18-0.3-23.5,6.8l-0.2,11.1l-7.1-6.9l3.6-16.5l21-6.9
					l12.6,8.7L43.2,22.7z"/>
				<g id="Grupo_90" transform="translate(0 28.524)">
					<path id="Caminho_200" class="st1" d="M0,5.6c-0.5,3.3,1.9,6.4,5.2,6.9c0,0,0.1,0,0.1,0c3.4,0.3,6.4-2.1,6.8-5.5
						c0.4-3.3-2-6.4-5.3-6.8S0.4,2.2,0,5.6C0,5.6,0,5.6,0,5.6L0,5.6z"/>
				</g>
				
					<linearGradient id="Caminho_201_1_" gradientUnits="userSpaceOnUse" x1="-890.5625" y1="684.9832" x2="-889.5645" y2="684.9832" gradientTransform="matrix(29.1719 0 0 -8.5026 25986.5156 5828.3843)">
					<stop  offset="0" style="stop-color:#FBB03B"/>
					<stop  offset="1" style="stop-color:#D67E3C"/>
				</linearGradient>
				<path id="Caminho_201" class="st20" d="M36.1,8.5c0,0,1.9-4.8-4.7-7.4C25.7-1.2,19.8-0.3,7.1,8.3L36.1,8.5z"/>
				
					<linearGradient id="Caminho_202_1_" gradientUnits="userSpaceOnUse" x1="-893.0325" y1="717.3474" x2="-892.0316" y2="717.3474" gradientTransform="matrix(31.8611 0 0 -38.5684 28461.457 27706.875)">
					<stop  offset="0" style="stop-color:#FBB03B"/>
					<stop  offset="1" style="stop-color:#D67E3C"/>
				</linearGradient>
				<path id="Caminho_202" class="st21" d="M40.4,48.3c0-1-0.6-1.9-1.6-2.2c-2.1-0.8-4.2-1.4-6.4-1.7c-3.8-0.5-9.3,0.7-12.3,1.4
					c-1.2,0.3-2.5-0.3-3.1-1.4c-1.9-4-5.5-13.2-2.8-23.7l-4.3,3.1l0.5,6.8c0,0,3.5,7.3-1.9,10.6c0,0-0.2,15.1,13.7,17.8
					c4.2,0.7,8.4,0.2,12.3-1.6C37.6,55.6,40.4,52.1,40.4,48.3z"/>
				
					<linearGradient id="Caminho_203_1_" gradientUnits="userSpaceOnUse" x1="-820.3104" y1="702.2211" x2="-819.3014" y2="702.2211" gradientTransform="matrix(8.5729 0 0 -14.5394 7042.8022 10230.3145)">
					<stop  offset="0" style="stop-color:#FBB03B"/>
					<stop  offset="1" style="stop-color:#D67E3C"/>
				</linearGradient>
				<path id="Caminho_203" class="st22" d="M12.5,27.7c0,0,9.2-2.1,5.7-11.1s-7.8,2.4-7.8,2.4L12.5,27.7z"/>
			</g>
		</g>
	</g>
	<path id="Caminho_204" class="st23" d="M24.6,47.7c0.1-1.2,0.8-2.3,1.8-3l0,0c2-1.5,4.9-1.1,6.5,0.9l0,0c0.7,1,1,2.2,0.9,3.4
		c-0.4,2.5-2.7,4.3-5.2,3.9c-1.2-0.2-2.3-0.8-3-1.8C24.8,50.2,24.5,49,24.6,47.7z M27.4,46c-0.6,0.5-1.1,1.2-1.2,1.9
		c-0.2,0.8,0.1,1.6,0.6,2.2c0.5,0.6,1.2,1.1,1.9,1.2c0.8,0.2,1.6-0.1,2.2-0.6c1.3-0.9,1.6-2.7,0.7-4c0,0-0.1-0.1-0.1-0.1l0,0
		c-0.9-1.3-2.7-1.6-4-0.7C27.5,46,27.5,46,27.4,46L27.4,46z"/>
	<path id="Caminho_205" class="st23" d="M130.3,15.8c-0.5,0-0.8-0.5-0.8-0.9c0,0,0,0,0-0.1c0-0.5,0.5-0.8,0.9-0.8c0,0,0,0,0.1,0
		l2.6,0.4l0.4-2.5c0.1-0.5,0.5-0.8,1-0.8c0.5,0.1,0.8,0.5,0.8,1l-0.4,2.6l2.6,0.4c0.5,0,0.8,0.5,0.8,0.9c0,0,0,0,0,0.1
		c0,0.5-0.5,0.8-0.9,0.8c0,0,0,0-0.1,0l-2.6-0.4l-0.4,2.6c-0.1,0.5-0.5,0.8-1,0.8c-0.5-0.1-0.8-0.5-0.8-1l0.4-2.8L130.3,15.8z"/>
	<path id="Caminho_206" class="st23" d="M161.8,90.7c1.2,0.3,2.2,1.1,2.8,2.1l0,0c1.2,2.2,0.5,5-1.7,6.3l0,0
		c-1.1,0.6-2.3,0.7-3.5,0.4c-2.5-0.7-3.9-3.2-3.2-5.7c0.3-1.2,1.1-2.2,2.1-2.8C159.4,90.6,160.6,90.4,161.8,90.7z M163.2,93.7
		c-0.4-0.7-1-1.2-1.8-1.4c-0.8-0.3-1.6-0.1-2.2,0.3c-0.7,0.4-1.2,1-1.4,1.8c-0.3,0.8-0.1,1.6,0.3,2.2c0.8,1.4,2.5,1.9,3.9,1.1
		c0,0,0.1,0,0.1-0.1l0,0c1.4-0.8,1.9-2.5,1.1-3.9C163.2,93.8,163.2,93.7,163.2,93.7L163.2,93.7z"/>
	<path id="Caminho_207" class="st23" d="M155.6,171.6c0.1-0.5,0.6-0.7,1-0.6c0,0,0,0,0.1,0c0.5,0.1,0.7,0.6,0.6,1c0,0,0,0,0,0.1
		l-0.7,2.6l2.4,0.7c0.5,0.1,0.8,0.6,0.6,1.1s-0.6,0.8-1.1,0.6l-2.6-0.7l-0.7,2.6c-0.1,0.5-0.6,0.7-1,0.6c0,0,0,0-0.1,0
		c-0.5-0.1-0.7-0.6-0.6-1c0,0,0,0,0-0.1l0.7-2.6l-2.6-0.7c-0.5-0.1-0.8-0.6-0.6-1.1c0.1-0.5,0.6-0.8,1.1-0.6l2.7,0.7L155.6,171.6z"
		/>
	<path id="Caminho_209" class="st23" d="M18.4,226.6c-0.1,0.5-0.6,0.7-1,0.6c0,0,0,0-0.1,0c-0.5-0.1-0.7-0.6-0.6-1c0,0,0,0,0-0.1
		l0.7-2.6l-2.4-0.7c-0.5-0.1-0.8-0.6-0.6-1.1c0.1-0.5,0.6-0.8,1.1-0.6l2.6,0.7l0.7-2.6c0.1-0.5,0.6-0.7,1-0.6c0,0,0,0,0.1,0
		c0.5,0.1,0.7,0.6,0.6,1c0,0,0,0,0,0.1l-0.7,2.6l2.6,0.7c0.5,0.1,0.8,0.6,0.6,1.1c-0.1,0.5-0.6,0.8-1.1,0.6L19,224L18.4,226.6z"/>
</g>
</svg>
