<?xml version="1.0" encoding="utf-8"?>
<!-- Generator: Adobe Illustrator 24.0.2, SVG Export Plug-In . SVG Version: 6.00 Build 0)  -->
<svg version="1.1" id="Grupo_59" xmlns="http://www.w3.org/2000/svg" xmlns:xlink="http://www.w3.org/1999/xlink" x="0px" y="0px"
	 viewBox="0 0 437.9 372" style="enable-background:new 0 0 437.9 372;" xml:space="preserve">
<style type="text/css">
	.st0{opacity:0.42;fill-rule:evenodd;clip-rule:evenodd;fill:#FFFFFF;enable-background:new    ;}
	.st1{fill-rule:evenodd;clip-rule:evenodd;fill:#FFFFFF;}
	.st2{fill:none;stroke:#707070;stroke-width:2;stroke-linecap:round;stroke-linejoin:round;stroke-miterlimit:10;}
	.st3{fill:#51A0A3;}
	.st4{fill:#DADEFE;}
	.st5{fill:url(#Caminho_106_1_);}
	.st6{opacity:0.4;fill:#CCE8EC;enable-background:new    ;}
	.st7{fill:#B57A04;}
	.st8{fill:#FF952C;}
	.st9{fill:#DD722A;}
	.st10{fill:url(#Caminho_110_1_);}
	.st11{opacity:0.3;fill:#34364D;enable-background:new    ;}
	.st12{fill:url(#Caminho_112_1_);}
	.st13{fill:#F4B979;}
	.st14{fill:url(#Caminho_114_1_);}
	.st15{fill:url(#Caminho_116_1_);}
	.st16{fill:#9FB4B8;}
	.st17{fill:url(#Caminho_117_1_);}
	.st18{fill:url(#Caminho_118_1_);}
	.st19{fill:#DBA66D;}
	.st20{fill:url(#Caminho_120_1_);}
	.st21{fill:url(#Caminho_121_1_);}
	.st22{fill:url(#Caminho_122_1_);}
	.st23{fill:url(#Caminho_123_1_);}
	.st24{fill:url(#Caminho_126_1_);}
	.st25{fill:url(#Caminho_127_1_);}
	.st26{fill:#CCE8EC;}
	.st27{fill:#B5B5B5;}
	.st28{fill:url(#Caminho_132_1_);}
	.st29{fill:#414460;}
	.st30{fill:#C99864;}
	.st31{fill:#FDD247;}
	.st32{fill:#4F4F4F;}
	.st33{fill:url(#Caminho_138_1_);}
	.st34{fill:url(#Caminho_139_1_);}
	.st35{fill:url(#Caminho_141_1_);}
	.st36{fill:url(#Caminho_142_1_);}
</style>
<path id="Caminho_96" class="st0" d="M431.4,372H20.7c-3.5,0-6.3-2.9-6.2-6.4l0,0l0,0c0-3.5,2.8-6.3,6.2-6.4h23.1
	c4,0,7.3-3.3,7.3-7.3c0,0,0,0,0-0.1l0,0c0-3.8-2.9-7-6.7-7.4H31.8c-2.2,0-3.8-2.4-3.8-5.2l0,0c0-2.8,1.8-5.2,3.8-5.2H405
	c4.6,0.1,8.3,3.8,8.3,8.4l0,0c0.1,4.6-3.6,8.4-8.2,8.4H405h-9.3c-2,0-3.6,1.7-3.6,3.7l0,0c0,2,1.6,3.7,3.6,3.7h35.7
	c3.6,0,6.5,3,6.5,6.7l0,0c0.2,3.6-2.6,6.7-6.2,6.9C431.6,372,431.5,372,431.4,372L431.4,372z M6.1,359.3L6.1,359.3
	c-3.4,0-6.1,2.8-6.1,6.2l0,0v0.1c0,3.4,2.7,6.1,6.1,6.2l0,0c3.4,0,6.1-2.8,6.1-6.2l0,0v-0.1c0.1-3.3-2.5-6.1-5.9-6.2
	C6.2,359.3,6.1,359.3,6.1,359.3z M426.4,351.1c4.5-0.1,8-3.7,8-8.1v-0.6c0-4.5-3.5-8.1-8-8.1l0,0c-4.5,0.1-8,3.7-8,8.1v0.6
	c-0.1,4.4,3.4,8.1,7.9,8.1C426.3,351.1,426.3,351.1,426.4,351.1z"/>
<path id="Caminho_97" class="st1" d="M98.9,255.3c1.2,0,2.4,0.4,3.3,1.3l0,0c1.8,1.8,1.8,4.7,0,6.5l0,0c-0.9,0.8-2,1.3-3.3,1.3
	c-2.5,0-4.6-2.1-4.6-4.6c0-1.2,0.5-2.4,1.3-3.2C96.5,255.8,97.7,255.3,98.9,255.3z M101,257.7c-0.5-0.6-1.3-0.9-2.1-0.9
	c-0.8-0.1-1.6,0.3-2.1,0.9c-0.6,0.5-0.9,1.3-0.9,2.1c-0.1,0.8,0.3,1.6,0.9,2.1c1.1,1.1,2.9,1.2,4,0.1l0.1-0.1l0,0
	C102.1,260.8,102.2,258.9,101,257.7C101,257.8,101,257.7,101,257.7L101,257.7z"/>
<path id="Caminho_98" class="st1" d="M25.2,205.1c0-0.5,0.4-0.9,0.9-0.9s0.9,0.4,0.9,0.9l0,0v2.7h2.7c0.5,0,0.9,0.4,0.9,0.9
	s-0.4,0.9-0.9,0.9H27v2.7c0,0.5-0.4,0.9-0.9,0.9s-0.9-0.4-0.9-0.9v-2.7h-2.7c-0.5,0-0.9-0.4-0.9-0.9s0.4-0.9,0.9-0.9l0,0h2.7V205.1z
	"/>
<path id="Caminho_99" class="st1" d="M139,123.7c0-1.2,0.4-2.4,1.3-3.3l0,0c1.8-1.8,4.7-1.8,6.5,0l0,0c0.8,0.9,1.3,2,1.3,3.3
	c0,2.5-2.1,4.6-4.6,4.6c-1.2,0-2.4-0.5-3.2-1.3C139.5,126.1,139,124.9,139,123.7z M141.5,121.6c-0.6,0.5-0.9,1.3-0.9,2.1
	c-0.1,0.8,0.3,1.6,0.9,2.1c0.5,0.6,1.3,0.9,2.1,0.9c0.8,0.1,1.6-0.3,2.1-0.9c1.1-1.1,1.2-2.9,0.1-4l-0.1-0.1l0,0
	C144.6,120.5,142.8,120.5,141.5,121.6C141.6,121.6,141.6,121.6,141.5,121.6L141.5,121.6z"/>
<path id="Caminho_100" class="st1" d="M239.2,77.4c-0.5,0-0.9-0.3-0.9-0.8c0,0,0,0,0-0.1c0-0.5,0.3-0.9,0.8-0.9c0,0,0,0,0.1,0h2.7
	v-2.5c0-0.5,0.4-0.9,0.9-0.9s0.9,0.4,0.9,0.9v2.7h2.7c0.5,0,0.9,0.3,0.9,0.8c0,0,0,0,0,0.1c0,0.5-0.3,0.9-0.8,0.9c0,0,0,0-0.1,0
	h-2.7v2.6c0,0.5-0.4,0.9-0.9,0.9s-0.9-0.4-0.9-0.9v-2.8H239.2z"/>
<path id="Caminho_101" class="st1" d="M399.6,250.9c-1.2,0-2.4-0.4-3.3-1.3l0,0c-1.8-1.8-1.8-4.7,0-6.5l0,0c0.9-0.8,2-1.3,3.3-1.3
	c2.5,0,4.6,2.1,4.6,4.6c0,1.2-0.5,2.4-1.3,3.2C402,250.5,400.8,251,399.6,250.9z M397.5,248.4c0.5,0.6,1.3,0.9,2.1,0.9
	c0.8,0.1,1.6-0.3,2.1-0.9c0.6-0.5,0.9-1.3,0.9-2.1c0.1-0.8-0.3-1.6-0.9-2.1c-1.1-1.1-2.9-1.2-4-0.1l-0.1,0.1l0,0
	c-0.6,0.5-0.9,1.3-0.9,2.1C396.6,247.1,396.9,247.9,397.5,248.4L397.5,248.4z"/>
<path id="Caminho_102" class="st1" d="M300.7,245.3c0,0.5-0.4,0.9-0.9,0.9s-0.9-0.4-0.9-0.9l0,0v-2.7h-2.7c-0.5,0-0.9-0.4-0.9-0.9
	s0.4-0.9,0.9-0.9h2.7v-2.6c0-0.5,0.4-0.9,0.9-0.9s0.9,0.4,0.9,0.9v2.7h2.7c0.5,0,0.9,0.4,0.9,0.9s-0.4,0.9-0.9,0.9h-2.7V245.3z"/>
<path id="Caminho_103" class="st2" d="M301.1,118.2"/>
<g id="Grupo_47" transform="translate(98.895 34.199)">
	<g id="Grupo_45" transform="translate(20.874 72.987)">
		<path id="Caminho_104" class="st3" d="M6.1,86.6H0V72.2h6.1c2.9,0,5.3,2.4,5.3,5.3l0,0v3.7C11.4,84.2,9,86.5,6.1,86.6z M2.1,84.5
			h4c1.8,0,3.2-1.5,3.3-3.3v-3.7c0-1.8-1.5-3.2-3.3-3.3h-4C2.1,74.2,2.1,84.5,2.1,84.5z"/>
	</g>
	<g id="Grupo_46" transform="translate(1.298)">
		<path id="Caminho_105" class="st4" d="M18.4,73.5c-2.6,0.7-4.9,2.4-6.5,4.6c-1.4,1.9-2.4,4.1-2.7,6.5c-0.7,4.6,0.6,9.6,2.1,15
			c0.4,1.3,0.9,2.7,1.3,4.1c0.5,1.5,0.9,2.9,1.2,4.4c0.8,3.1,1.3,6.4,1.3,9.6c0,3.4-0.8,6.8-2.2,9.9s-4,5.6-7.1,7l-0.6-0.7
			c1.4-2.3,2.3-5,2.5-7.7c0.2-2.6,0-5.2-0.6-7.7c-1.2-5-3.6-10.1-5.3-16.1c-0.4-1.5-0.9-3.1-1.2-4.6c-0.3-1.6-0.5-3.2-0.6-4.9
			c-0.2-3.5,0.3-7.1,1.5-10.4c1.3-3.5,3.8-6.4,7-8.3c1.5-0.9,3.3-1.6,5-1.9c1.7-0.3,3.5-0.1,5.2,0.5L18.4,73.5z"/>
	</g>
	
		<linearGradient id="Caminho_106_1_" gradientUnits="userSpaceOnUse" x1="-1610.2423" y1="69.8297" x2="-1609.2484" y2="69.8297" gradientTransform="matrix(21.9111 0 0 24.4281 35282.25 -1552.5557)">
		<stop  offset="0" style="stop-color:#004B6A"/>
		<stop  offset="8.700000e-02" style="stop-color:#008098"/>
		<stop  offset="1" style="stop-color:#00ACBF"/>
	</linearGradient>
	<path id="Caminho_106" class="st5" d="M16.1,141H0v18.4c0,3.3,2.7,6,6,6.1h0.1h9.8c3.3,0,6.1-2.7,6.1-6.1V141H16.1z"/>
	<path id="Caminho_107" class="st6" d="M16.1,141v16.9c0,3.3-2.7,6.1-6.1,6.1H2c1.1,1,2.5,1.5,4,1.5h9.8c3.3,0,6.1-2.7,6.1-6.1V141
		H16.1z"/>
</g>
<g id="Grupo_48" transform="translate(153.375 70.47)">
	<rect id="Retângulo_23" x="71.4" y="184.7" class="st7" width="5.9" height="91.9"/>
	<path id="Caminho_108" class="st8" d="M81.1,187.5l-64.4-0.9l-5.5-92.4c-0.6-11.2,8-20.9,19.3-21.5c0.5,0,0.9,0,1.4,0l38.3-0.5
		c16.9,0,25.8,15.5,23.4,32.1L81.1,187.5z"/>
	<path id="Caminho_109" class="st9" d="M81.1,187.7H0v-3.8c0-11.6,9.4-21,21-21l0,0h39c11.6,0,21,9.4,21,21l0,0L81.1,187.7
		L81.1,187.7z"/>
	<rect id="Retângulo_24" x="4" y="184.7" class="st7" width="5.9" height="91.9"/>
</g>
<g id="Grupo_49" transform="translate(191.214 22.171)">
	
		<linearGradient id="Caminho_110_1_" gradientUnits="userSpaceOnUse" x1="-1828.8071" y1="46.8029" x2="-1827.8059" y2="46.8029" gradientTransform="matrix(44.0163 0 0 79.0246 80504.9453 -3586.8982)">
		<stop  offset="0" style="stop-color:#FFCA00"/>
		<stop  offset="1" style="stop-color:#FF8D00"/>
	</linearGradient>
	<path id="Caminho_110" class="st10" d="M26,72.2c6.1-0.3,11.8,3.1,14.4,8.7c4.6,10.5-4.3,22.9-0.9,34.1c1.3,4.6,4.7,8.3,7.6,12.1
		c2.9,3.8,5.3,8.4,4.7,13.2c-0.6,5-4.9,9.3-9.9,10.5c-5.1,1-10.4,0-14.7-3c-4.3-2.8-7.6-7-10.2-11.4c-9.2-15.2-13.5-39.9-3.2-55.6
		C16.6,76.2,20.3,72.7,26,72.2z"/>
	<path id="Caminho_111" class="st11" d="M17.7,86.6c5.8-0.3,11.5,3,13.8,7.8c4.4,9.5-4.1,20.7-0.9,30.5c1.3,4.1,4.4,7.4,7.3,11
		c2.7,3.4,5.2,7.6,4.6,11.8c-0.6,4.6-4.7,8.3-9.6,9.5c-4.7,1.2-10.1-0.1-14.1-2.7c-4-2.7-7.4-6.2-9.9-10.2C0,130.7-4,108.3,5.8,94.1
		C8.8,90.1,12.2,86.9,17.7,86.6z"/>
</g>
<linearGradient id="Caminho_112_1_" gradientUnits="userSpaceOnUse" x1="-1450.3359" y1="47.6097" x2="-1449.3358" y2="47.6097" gradientTransform="matrix(49.892 0 0 73.2865 72536.0391 -3307.7417)">
	<stop  offset="0" style="stop-color:#1E193B"/>
	<stop  offset="1" style="stop-color:#443D8C"/>
</linearGradient>
<path id="Caminho_112" class="st12" d="M225,218h-48.6c-0.3,0-0.6-0.3-0.6-0.6v-51.3c0-11.8,9.5-21.3,21.3-21.3h7.3
	c11.8,0,21.3,9.5,21.3,21.3v51.4C225.7,217.8,225.4,218.1,225,218z"/>
<path id="Caminho_113" class="st13" d="M232.3,164.3c0,0,18.1,21,14.2,34.2c0,0,0,6.8-28.1-0.3l-23.7-3.8l-1-6.7
	c5.8-0.1,12-0.1,18.8,0.3c7.2,0.4,14.4,1.3,21.5,2.7c-1.8-1.9-3.4-4.1-5.2-6.5c-2.8-3.8-5.9-8.6-7.3-12.7L232.3,164.3z"/>
<linearGradient id="Caminho_114_1_" gradientUnits="userSpaceOnUse" x1="-1433.2869" y1="57.3188" x2="-1432.2848" y2="57.3188" gradientTransform="matrix(31.682 0 0 39.1073 45620.3281 -2075.5439)">
	<stop  offset="0" style="stop-color:#1E193B"/>
	<stop  offset="1" style="stop-color:#443D8C"/>
</linearGradient>
<path id="Caminho_114" class="st14" d="M211,146.5c0,0,17.5-2.1,31.7,32.9l-15.7,6.2c0,0-10.1-13.6-11.5-25.6
	C214.1,148.1,211,146.5,211,146.5z"/>
<g id="Grupo_50" transform="translate(143.9 74.02)">
	<path id="Caminho_115" class="st13" d="M22.2,90c0,0-20.1,20.1-22.2,33c0,0,0.3,3.8,29.2,1.8H54l1.9-5c-5.6-1.2-11.8-2.4-18.5-3.1
		c-7.2-0.8-14.4-1.2-21.6-1.2c2.2-1.7,4.3-3.5,6.2-5.5c3.4-3.3,7.3-7.4,9.3-11.3L22.2,90z"/>
	
		<linearGradient id="Caminho_116_1_" gradientUnits="userSpaceOnUse" x1="-1729.0571" y1="56.943" x2="-1728.0551" y2="56.943" gradientTransform="matrix(38.2 0 0 39.8275 66059.2813 -2175.7971)">
		<stop  offset="0" style="stop-color:#1E193B"/>
		<stop  offset="1" style="stop-color:#443D8C"/>
	</linearGradient>
	<path id="Caminho_116" class="st15" d="M47.5,72.2c0,0-18.1-0.9-38.2,30.9l14.4,8.9c0,0,12.3-11.7,15.8-23.1
		C43.1,77.2,47.5,72.2,47.5,72.2z"/>
</g>
<rect id="Retângulo_25" x="158.6" y="194" class="st16" width="62.6" height="5.6"/>
<g id="Grupo_51" transform="translate(194.976 0.28)">
	
		<linearGradient id="Caminho_117_1_" gradientUnits="userSpaceOnUse" x1="-1834.3531" y1="89.1376" x2="-1833.3531" y2="89.1376" gradientTransform="matrix(41.575 0 0 15.4664 76407.1406 -1036.2882)">
		<stop  offset="0" style="stop-color:#000000"/>
		<stop  offset="1" style="stop-color:#280094"/>
	</linearGradient>
	<path id="Caminho_117" class="st17" d="M170.5,335.1c-3.7,3.7-24.9,9-26.2,11.1c-0.5,0.8-0.5,1.7-0.1,2.5c1,2.2,4.9,1.2,6.7,1
		c2.2-0.1,26.4-1.3,26.4-1.2l0.3,1.3l8-0.4l-0.6-14.8C185.1,334.7,178.8,335,170.5,335.1z"/>
	
		<linearGradient id="Caminho_118_1_" gradientUnits="userSpaceOnUse" x1="-1834.5204" y1="77.7467" x2="-1833.5264" y2="77.7467" gradientTransform="matrix(41.7694 0 0 19.7393 76742.9922 -1198.8668)">
		<stop  offset="0" style="stop-color:#000000"/>
		<stop  offset="1" style="stop-color:#280094"/>
	</linearGradient>
	<path id="Caminho_118" class="st18" d="M141.2,328c-3.3,4-23.7,12-24.7,14.1c-0.5,0.8-0.4,1.8,0.1,2.5c1.3,2.1,5,0.6,6.8,0.3
		c2.2-0.4,26.1-4.4,26.1-4.3l0.4,1.3l8-1.3l-2.4-14.7C155.4,326,149.4,327,141.2,328z"/>
	<path id="Caminho_119" class="st19" d="M98.3,149.6c0,0-2.7,40.6-2.7,40.7c-0.3,4.1-6.8,3.7-9.8,4.1c-4.4,0.7-10.2,2.4-13.8,5.6
		c1.2,0.7,3.7,0.4,5.2,0.4c1.9,0.1,3.7,0.1,5.6,0.3c3.8,0.1,7.7,0.1,11.5,0.4c0,0,10.4-0.6,10.1-6.8s7.6-43.4,7.6-43.4L98.3,149.6z"
		/>
	
		<linearGradient id="Caminho_120_1_" gradientUnits="userSpaceOnUse" x1="-1815.6711" y1="52.4055" x2="-1814.6691" y2="52.4055" gradientTransform="matrix(27.2643 0 0 51.1889 49594.3008 -2545.9309)">
		<stop  offset="0" style="stop-color:#FFCA00"/>
		<stop  offset="1" style="stop-color:#FF8D00"/>
	</linearGradient>
	<path id="Caminho_120" class="st20" d="M91.3,158.8l22.9,3.4l3.9-31.5c0.9-6.8,1.2-17.8-5.6-19.1c-0.1,0-1.5-0.4-1.6-0.4
		c-7.7-1.3-18.4,9.6-18.5,17.2L91.3,158.8z"/>
	
		<linearGradient id="Caminho_121_1_" gradientUnits="userSpaceOnUse" x1="-1835.7778" y1="41.9943" x2="-1834.7773" y2="41.9943" gradientTransform="matrix(43.3063 0 0 148.193 79619.6641 -5967.062)">
		<stop  offset="0" style="stop-color:#1E193B"/>
		<stop  offset="1" style="stop-color:#443D8C"/>
	</linearGradient>
	<path id="Caminho_121" class="st21" d="M147.5,182.1l-26.6,62.8c-2,4.8-2.4,10.1-1,15.1l19.2,70.3l16.7-1.6c-1-11,0.4-46-5.6-57.1
		c-3.3-6-3.2-13.3,0.3-19.2l7.6-12l4.3-57.7L147.5,182.1z"/>
	
		<linearGradient id="Caminho_122_1_" gradientUnits="userSpaceOnUse" x1="-1829.1656" y1="41.1252" x2="-1828.165" y2="41.1252" gradientTransform="matrix(36.2867 0 0 176.029 66526.8438 -6992.1357)">
		<stop  offset="0" style="stop-color:#1E193B"/>
		<stop  offset="1" style="stop-color:#443D8C"/>
	</linearGradient>
	<path id="Caminho_122" class="st22" d="M174.4,169.9l-4-10.8c0,0,21.2,19.1,18.1,36.7c-2.7,15.2-7.1,49.7-8.3,58.9
		c-0.1,1.5,0,3,0.4,4.4l4.9,15.4c1.1,3.6,1.7,7.4,1.6,11.3l-1.6,49.3h-17l-14.4-77.6c-0.2-0.9-0.3-1.8-0.3-2.7l-1.3-73.7
		L174.4,169.9z"/>
	
		<linearGradient id="Caminho_123_1_" gradientUnits="userSpaceOnUse" x1="-1852.2404" y1="46.5829" x2="-1851.2404" y2="46.5829" gradientTransform="matrix(83.5586 0 0 80.7503 154866.5 -3614.3835)">
		<stop  offset="0" style="stop-color:#FFCA00"/>
		<stop  offset="1" style="stop-color:#FF8D00"/>
	</linearGradient>
	<path id="Caminho_123" class="st23" d="M115.5,107.3c12.6,2.8,41.2,17,63.4,61.3c3,5.9-5.2,12.9-9.8,15.2c-3.6,1.9-7.6,3-11.7,3.4
		c-2.3,0.3-4.6,0.4-7,0.3c-1,0-7,0.1-7.4-0.6c-1.9-3.9-4.1-7.7-6.5-11.4c-2.7-3.8-5.9-8-9.8-13.2c-7.7-10-16.7-19-26.8-26.7
		c-2.4-3-3.8-6.6-4-10.4c-0.1-3.8,1-8.4,5-13.5C104.2,107.6,110.1,106,115.5,107.3z"/>
	<path id="Caminho_124" class="st13" d="M101.9,128.9l-23.4,23.7c-1.4,1.4-3,2.4-4.9,3.1l-37.3,13.9c-2.4,0.9-5.1,0.9-7.6,0
		l-4.6-1.6c-1.8-0.6-3.6-0.7-5.5-0.4L0,171l0.3,2.1l15.4,0.1l2.4,4.3c1.8,3.1,5.4,4.6,8.9,3.7l53.1-13.5c2.6-0.6,5-1.9,7.1-3.6
		l26.1-21.5L101.9,128.9z"/>
	<path id="Caminho_125" class="st13" d="M71.4,98c0.3-0.6,0.2-1.4-0.3-1.9c-1.6-2.4-5-9.5,4.6-16.4c0,0,17.2-10.8,24.9,6.2
		c2.2,4.9,1.6,9.2-0.3,12.4c-0.7,1.5,8.7,8.3,9.9,8.7c1.3,0.4,3.8,6.2-11.8,13.6c-0.6-1-0.9-1.2-1.9-2.7c-3.4-4.7-7.7-7-11.4-5.5
		c-1.8,0.7-4.9,3-6.7,1.9c-1-0.4-3.1-5.2-3.7-5.6l-0.3-0.3c-0.6-0.5-0.9-1.2-0.9-1.9v-1.2l-2.4-1c-0.9-0.4-1.3-1.3-1-2.2L71.4,98z"
		/>
	
		<linearGradient id="Caminho_126_1_" gradientUnits="userSpaceOnUse" x1="-1834.228" y1="64.1906" x2="-1833.2301" y2="64.1906" gradientTransform="matrix(41.4323 0 0 29.4035 76059.9297 -1800.5428)">
		<stop  offset="0" style="stop-color:#000000"/>
		<stop  offset="1" style="stop-color:#280094"/>
	</linearGradient>
	<path id="Caminho_126" class="st24" d="M90.6,97.2c0.6-0.1,1.3-0.1,1.9-0.3c-0.5-0.8-0.8-1.8-0.7-2.8c0.1-1.1,1-1.8,2.1-1.8
		c1.3,0.3,1.5,1.9,1.8,3.1c0.7,3.8,5,6.7,9,6.1c0.3-4.7,0.6-9.5-0.4-14.1c-0.8-4.7-3.3-9-7.1-12c-3.6-2.4-8.4-3.3-12.8-3.2
		c-4.8,0.1-9.4,1.2-13.8,3.1c-2,0.8-3.8,2.1-5.3,3.7c-1.5,1.6-2.1,3.8-1.6,5.9c0.7,2.7,3.6,4.4,6.4,4.9s5.6-0.1,8.4-0.7
		c2.2-0.4,6.4-1.9,8.1-0.1C87.3,89.8,90,97.2,90.6,97.2z"/>
	
		<linearGradient id="Caminho_127_1_" gradientUnits="userSpaceOnUse" x1="-1832.3416" y1="56.9176" x2="-1831.3446" y2="56.9176" gradientTransform="matrix(39.3529 0 0 39.8775 72195.1016 -2134.4067)">
		<stop  offset="0" style="stop-color:#FFCA00"/>
		<stop  offset="1" style="stop-color:#FF8D00"/>
	</linearGradient>
	<path id="Caminho_127" class="st25" d="M87.1,139.6l15.5,15.7l20-19c4.8-4.5,5.1-12,0.7-16.9l-0.3-0.3c-5-5.3-14.1-4.9-18.8,0.7
		L87.1,139.6z"/>
</g>
<path id="Caminho_128" class="st26" d="M209.3,199.7H158l-13.8-29.6c-0.2-0.5,0-1,0.5-1.2c0.1-0.1,0.3-0.1,0.4-0.1h46.3
	c2.1,0,4,1.2,4.9,3.1L209.3,199.7z"/>
<path id="Caminho_129" class="st27" d="M305.9,206H54.6l2.1-6.4h247.2L305.9,206z"/>
<g id="Grupo_54" transform="translate(180.734 29.461)">
	<g id="Grupo_52" transform="translate(0 1.276)">
		<path id="Caminho_130" class="st13" d="M4,90.6c0,0,1,22.4,7.8,23.2c8.4,1.2,14.4-3.1,15.7-10.7c0.6-3-0.1-11.8-0.9-17.3
			c-0.4-3.6-4.6-6.8-8-7.4c-2.4-0.4-4.8-0.2-7.1,0.6C2.5,82.2,4,90.6,4,90.6z"/>
		<path id="Caminho_131" class="st13" d="M14.2,109.6c-0.2,2.7-0.2,5.3,0,8c1.6,2.8,4.8,4.3,8,3.7c5.5-1.2,4.6-4.7,4.6-4.7
			l-0.7-15.8L14.2,109.6z"/>
		
			<linearGradient id="Caminho_132_1_" gradientUnits="userSpaceOnUse" x1="-1802.41" y1="60.9251" x2="-1801.4109" y2="60.9251" gradientTransform="matrix(37.8923 0 0 33.3336 68297.3828 -1941.9927)">
			<stop  offset="0" style="stop-color:#FFCA00"/>
			<stop  offset="1" style="stop-color:#FF8D00"/>
		</linearGradient>
		<path id="Caminho_132" class="st28" d="M37.6,87.5c-1.4-7.8-7.6-13.9-15.5-15.1c-5.8-0.8-11.7,1.1-16,5c-4.8,4-7,10.4-5.8,16.6
			c4.6,1.3,22.8,1.3,26.2,1c0.1,3.7,1.3,6.8,1.5,10.5C35.4,102.8,38.8,95.1,37.6,87.5z"/>
		<path id="Caminho_133" class="st13" d="M30.7,100.4c-0.4,1.9-1.8,3.3-3,3c-1.2-0.3-1.9-2.1-1.5-4c0.4-1.9,1.8-3.3,3-3
			C30.4,96.8,31,98.5,30.7,100.4z"/>
		<path id="Caminho_134" class="st29" d="M27.7,97l-0.9-1l-4.7,3.8c-0.8-1.7-2.6-2.7-4.4-2.7c-1.6,0-3.2,0.7-4.1,2.1
			c-1.1-0.5-2.4-0.5-3.6,0c-0.1,0-0.1,0.1-0.1,0.1l0,0C9,97.8,7.3,97,5.6,97.1c-2.7,0-4.7,1.8-4.7,3.8s2.1,3.8,4.7,3.8
			s4.7-1.8,4.7-3.8c0-0.2,0.1-0.5,0.3-0.6c0.8-0.2,1.7-0.2,2.5,0.1v0.4c0,2.1,2.1,3.8,4.7,3.8c2.2,0.1,4.2-1.4,4.7-3.6L27.7,97z
			 M8.9,101c0,1.3-1.5,2.5-3.4,2.5s-3.4-1.2-3.4-2.5c0-1.3,1.5-2.5,3.4-2.5c1.4-0.1,2.7,0.7,3.4,1.9H9C8.9,100.6,8.9,100.8,8.9,101
			L8.9,101z M17.8,103.5c-1.9,0-3.4-1.2-3.4-2.5c0-1.3,1.5-2.5,3.4-2.5s3.4,1.2,3.4,2.5C21.2,102.5,19.6,103.5,17.8,103.5
			L17.8,103.5z"/>
		<path id="Caminho_135" class="st30" d="M13.8,113.9l0.4,3.8c0,0,4.4,6.2,9.2-5.2s0.6-3,0.6-3S19.6,114.9,13.8,113.9z"/>
	</g>
	<g id="Grupo_53" transform="translate(23.717)">
		<path id="Caminho_136" class="st31" d="M11.1,82c0.5-0.9,0.7-1.9,0.7-3c-0.1-3.8-3.2-6.8-7.1-6.8C3,72.2,1.3,72.8,0,74
			C4.6,75.1,8.6,77.9,11.1,82z"/>
	</g>
</g>
<rect id="Retângulo_26" x="259.2" y="205.7" class="st32" width="7" height="144.5"/>
<g id="Grupo_58" transform="translate(84.332 144.641)">
	<g id="Grupo_56" transform="translate(0 17.321)">
		<g id="Grupo_55" transform="translate(0 93.121)">
			<path id="Caminho_137" class="st13" d="M28.2,72.2l-5.9,9.5l7.7,5.2l6.2-9.5L28.2,72.2z"/>
			
				<linearGradient id="Caminho_138_1_" gradientUnits="userSpaceOnUse" x1="-1600.983" y1="78.2116" x2="-1599.983" y2="78.2116" gradientTransform="matrix(31.0396 0 0 19.5207 49693.9141 -1441.3363)">
				<stop  offset="0" style="stop-color:#004B6A"/>
				<stop  offset="1" style="stop-color:#00ACBF"/>
			</linearGradient>
			<path id="Caminho_138" class="st33" d="M24,81.5c0,0-8.6-7.4-22.7-5.6C0.5,76-0.1,76.8,0,77.7c0.1,0.5,0.4,0.9,0.8,1.2l26.1,16.3
				c0,0,5.9-7.4,3.7-10.4C30.6,85.1,25.8,86.4,24,81.5z"/>
		</g>
		
			<linearGradient id="Caminho_139_1_" gradientUnits="userSpaceOnUse" x1="-1633.0199" y1="44.2785" x2="-1632.0199" y2="44.2785" gradientTransform="matrix(94.601 0 0 104.669 154509.3125 -4510.082)">
			<stop  offset="0" style="stop-color:#004B6A"/>
			<stop  offset="8.700000e-02" style="stop-color:#008098"/>
			<stop  offset="1" style="stop-color:#00ACBF"/>
		</linearGradient>
		<path id="Caminho_139" class="st34" d="M77.9,72.2L24,168.1c3.4,3.2,7.1,6.1,11,8.7l32.7-49.2c6.1-4,12.4-8,12.4-8
			c12.6-8.3,38.5-35.2,38.5-35.2L77.9,72.2z"/>
	</g>
	<g id="Grupo_57" transform="translate(47.897)">
		<path id="Caminho_140" class="st13" d="M31.1,185l2.8,13.9h9.2l-2.8-15L31.1,185z"/>
		
			<linearGradient id="Caminho_141_1_" gradientUnits="userSpaceOnUse" x1="-1728.4052" y1="43.5777" x2="-1727.4041" y2="43.5777" gradientTransform="matrix(92.1894 0 0 115.035 159340.5313 -4883.2588)">
			<stop  offset="0" style="stop-color:#004B6A"/>
			<stop  offset="8.700000e-02" style="stop-color:#008098"/>
			<stop  offset="1" style="stop-color:#00ACBF"/>
		</linearGradient>
		<path id="Caminho_141" class="st35" d="M91.9,72.2l-75.3,0.3C7.4,72.5,0,79.8,0,89c0,1.4,0.2,2.9,0.6,4.3L28,187.2h14.4l-5.2-46
			c-0.1-0.9,0-1.9,0.1-2.8c4.4-21.5-9.2-33.9-9.2-33.9c7.7,3.3,20.3,4.9,32.1,5.5c16.8,0.9,31.1-12,31.9-28.8c0-0.3,0-0.5,0-0.8
			L91.9,72.2z"/>
		
			<linearGradient id="Caminho_142_1_" gradientUnits="userSpaceOnUse" x1="-1701.4349" y1="101.9527" x2="-1700.4346" y2="101.9527" gradientTransform="matrix(34.4018 0 0 12.4401 58543.8633 -1066.0894)">
			<stop  offset="0" style="stop-color:#004B6A"/>
			<stop  offset="1" style="stop-color:#00ACBF"/>
		</linearGradient>
		<path id="Caminho_142" class="st36" d="M35.2,196.9c0,0-12.1-1.3-23.4,9.2c-0.6,0.5-0.6,1.4-0.1,1.9c0.3,0.3,0.7,0.5,1.1,0.4
			l32.9-1.3c0,0,0.7-9.9-3-11.1C41,198.3,37.6,198.7,35.2,196.9C35.3,196.9,35.2,196.9,35.2,196.9z"/>
	</g>
</g>
<rect id="Retângulo_27" x="69.9" y="205.7" class="st32" width="6.1" height="144.5"/>
</svg>
