<svg xmlns="http://www.w3.org/2000/svg" viewBox="0 0 446.41 448.59"><title>telefone</title><g id="Camada_2" data-name="Camada 2"><g id="Layer_1" data-name="Layer 1"><path d="M439.44,348.18l-77.32-77.32a23.82,23.82,0,0,0-33.67,0l-32,32A398.42,398.42,0,0,1,145.68,152.17L179.89,118a23.8,23.8,0,0,0,0-33.67L102.57,7A23.82,23.82,0,0,0,68.9,7L19.53,56.35l.19.19C2.24,70.82-4.93,95.52,3.57,119.87,56.24,270.8,177.79,392.34,328.71,445c23.26,8.12,46.77,2,61.3-13.83l.05.05,49.38-49.38A23.8,23.8,0,0,0,439.44,348.18Z"/></g></g></svg>