<svg xmlns="http://www.w3.org/2000/svg" viewBox="0 0 294.64 132.45"><defs><style>.cls-1{fill:#fff;stroke:#2b3239;stroke-width:4px;}</style></defs><title>vs</title><g id="Camada_2" data-name="Camada 2"><g id="Camada_1-2" data-name="Camada 1"><path class="cls-1" d="M40.08,126.12,2.24,7.06A2.67,2.67,0,0,1,2,5.86c0-1.45.88-2.17,2.65-2.17h37.6A3.17,3.17,0,0,1,45.62,6.1L61.53,72.37c.16.48.4.73.72.73s.56-.25.72-.73L79.12,6.1a3.16,3.16,0,0,1,3.37-2.41l37.36.48A2.71,2.71,0,0,1,122,5a2.65,2.65,0,0,1,.24,2.53L84.66,126.12a3,3,0,0,1-3.13,2.41H43.21A3,3,0,0,1,40.08,126.12Z"/><path class="cls-1" d="M151.18,125.75q-12.78-4.69-19.64-13.25a30.48,30.48,0,0,1-6.87-19.64V90.21a2.78,2.78,0,0,1,.84-2,2.83,2.83,0,0,1,2-.85H160.1a2.83,2.83,0,0,1,2.05.85,2.78,2.78,0,0,1,.84,2q0,4.58,5.06,7.59t12.77,3q6.75,0,10.73-2.29t4-6.14q0-3.85-4.22-5.67c-2.82-1.2-7.35-2.37-13.62-3.49q-15.18-2.89-24.58-7-12.29-5.07-19.52-12.65t-7.23-20.85q0-18.79,14.58-29.76T179.38,2q16.14,0,28.32,5.18t18.91,14.58a36.24,36.24,0,0,1,6.75,21.69,2.87,2.87,0,0,1-2.89,2.89H198.9a2.75,2.75,0,0,1-2.05-.84,2.78,2.78,0,0,1-.84-2q0-4.58-4.34-7.47t-11.81-2.89q-6.75,0-11,2.29t-4.21,6.39c0,2.73,1.52,4.69,4.58,5.9s8.19,2.53,15.42,4q14,2.88,19.52,4.58,14.94,4.82,23.26,13t8.31,21.93q0,18.8-14.82,29t-39.89,10.24Q163.95,130.45,151.18,125.75Z"/><path class="cls-1" d="M256.86,124.07A20.41,20.41,0,0,1,251,109q0-9.39,5.91-15.18T271.92,88q9.15,0,14.94,5.78T292.64,109q0,9.16-5.9,15.07a20.09,20.09,0,0,1-14.82,5.9Q262.76,130,256.86,124.07Z"/></g></g></svg>